%TF.GenerationSoftware,KiCad,Pcbnew,5.1.10*%
%TF.CreationDate,2022-06-04T14:31:52-04:00*%
%TF.ProjectId,BeagleLogic Cape,42656167-6c65-44c6-9f67-696320436170,rev?*%
%TF.SameCoordinates,PX6cb8080PY7bfa480*%
%TF.FileFunction,Copper,L2,Bot*%
%TF.FilePolarity,Positive*%
%FSLAX46Y46*%
G04 Gerber Fmt 4.6, Leading zero omitted, Abs format (unit mm)*
G04 Created by KiCad (PCBNEW 5.1.10) date 2022-06-04 14:31:52*
%MOMM*%
%LPD*%
G01*
G04 APERTURE LIST*
%TA.AperFunction,ComponentPad*%
%ADD10C,1.500000*%
%TD*%
%TA.AperFunction,ComponentPad*%
%ADD11C,1.524000*%
%TD*%
%TA.AperFunction,ComponentPad*%
%ADD12R,1.727200X1.727200*%
%TD*%
%TA.AperFunction,ComponentPad*%
%ADD13O,1.727200X1.727200*%
%TD*%
%TA.AperFunction,SMDPad,CuDef*%
%ADD14R,1.000760X0.800100*%
%TD*%
%TA.AperFunction,SMDPad,CuDef*%
%ADD15C,0.150000*%
%TD*%
%TA.AperFunction,SMDPad,CuDef*%
%ADD16R,0.600000X1.550000*%
%TD*%
%TA.AperFunction,SMDPad,CuDef*%
%ADD17R,0.900000X0.500000*%
%TD*%
%TA.AperFunction,SMDPad,CuDef*%
%ADD18R,0.500000X0.900000*%
%TD*%
%TA.AperFunction,ViaPad*%
%ADD19C,0.812800*%
%TD*%
%TA.AperFunction,Conductor*%
%ADD20C,0.350000*%
%TD*%
%TA.AperFunction,Conductor*%
%ADD21C,0.254000*%
%TD*%
%TA.AperFunction,Conductor*%
%ADD22C,0.289000*%
%TD*%
%TA.AperFunction,Conductor*%
%ADD23C,0.150000*%
%TD*%
G04 APERTURE END LIST*
D10*
%TO.P,U1,1*%
%TO.N,Net-(U1-Pad1)*%
X50980400Y67424800D03*
D11*
%TO.P,U1,46*%
%TO.N,/CH2*%
X53520400Y11544800D03*
%TO.P,U1,45*%
%TO.N,/CH1*%
X50980400Y11544800D03*
%TO.P,U1,44*%
%TO.N,/CH4*%
X53520400Y14084800D03*
%TO.P,U1,43*%
%TO.N,/CH3*%
X50980400Y14084800D03*
%TO.P,U1,42*%
%TO.N,/CH6*%
X53520400Y16624800D03*
%TO.P,U1,41*%
%TO.N,/CH5*%
X50980400Y16624800D03*
%TO.P,U1,30*%
%TO.N,/CH12*%
X53520400Y31864800D03*
%TO.P,U1,40*%
%TO.N,/CH8*%
X53520400Y19164800D03*
%TO.P,U1,39*%
%TO.N,/CH7*%
X50980400Y19164800D03*
%TO.P,U1,9*%
%TO.N,Net-(U1-Pad9)*%
X50980400Y57264800D03*
%TO.P,U1,7*%
%TO.N,Net-(U1-Pad7)*%
X50980400Y59804800D03*
%TO.P,U1,5*%
%TO.N,Net-(U1-Pad5)*%
X50980400Y62344800D03*
%TO.P,U1,3*%
%TO.N,Net-(U1-Pad3)*%
X50980400Y64884800D03*
%TO.P,U1,37*%
%TO.N,Net-(U1-Pad37)*%
X50980400Y21704800D03*
%TO.P,U1,35*%
%TO.N,Net-(U1-Pad35)*%
X50980400Y24244800D03*
%TO.P,U1,38*%
%TO.N,Net-(U1-Pad38)*%
X53520400Y21704800D03*
%TO.P,U1,36*%
%TO.N,Net-(U1-Pad36)*%
X53520400Y24244800D03*
%TO.P,U1,34*%
%TO.N,Net-(U1-Pad34)*%
X53520400Y26784800D03*
%TO.P,U1,32*%
%TO.N,Net-(U1-Pad32)*%
X53520400Y29324800D03*
%TO.P,U1,28*%
%TO.N,/CH11*%
X53520400Y34404800D03*
%TO.P,U1,33*%
%TO.N,Net-(U1-Pad33)*%
X50980400Y26784800D03*
%TO.P,U1,26*%
%TO.N,Net-(U1-Pad26)*%
X53520400Y36944800D03*
%TO.P,U1,24*%
%TO.N,Net-(U1-Pad24)*%
X53520400Y39484800D03*
%TO.P,U1,31*%
%TO.N,Net-(U1-Pad31)*%
X50980400Y29324800D03*
%TO.P,U1,22*%
%TO.N,Net-(U1-Pad22)*%
X53520400Y42024800D03*
%TO.P,U1,29*%
%TO.N,/CH10*%
X50980400Y31864800D03*
%TO.P,U1,20*%
%TO.N,/CH14*%
X53520400Y44564800D03*
%TO.P,U1,27*%
%TO.N,/CH9*%
X50980400Y34404800D03*
%TO.P,U1,18*%
%TO.N,Net-(U1-Pad18)*%
X53520400Y47104800D03*
%TO.P,U1,25*%
%TO.N,Net-(U1-Pad25)*%
X50980400Y36944800D03*
%TO.P,U1,16*%
%TO.N,Net-(U1-Pad16)*%
X53520400Y49644800D03*
%TO.P,U1,23*%
%TO.N,Net-(U1-Pad23)*%
X50980400Y39484800D03*
%TO.P,U1,14*%
%TO.N,Net-(U1-Pad14)*%
X53520400Y52184800D03*
%TO.P,U1,21*%
%TO.N,/CH13*%
X50980400Y42024800D03*
%TO.P,U1,12*%
%TO.N,Net-(U1-Pad12)*%
X53520400Y54724800D03*
%TO.P,U1,19*%
%TO.N,Net-(U1-Pad19)*%
X50980400Y44564800D03*
%TO.P,U1,10*%
%TO.N,Net-(U1-Pad10)*%
X53520400Y57264800D03*
%TO.P,U1,17*%
%TO.N,Net-(U1-Pad17)*%
X50980400Y47104800D03*
%TO.P,U1,8*%
%TO.N,Net-(U1-Pad8)*%
X53520400Y59804800D03*
%TO.P,U1,15*%
%TO.N,Net-(U1-Pad15)*%
X50980400Y49644800D03*
%TO.P,U1,6*%
%TO.N,Net-(U1-Pad6)*%
X53520400Y62344800D03*
%TO.P,U1,13*%
%TO.N,Net-(U1-Pad13)*%
X50980400Y52184800D03*
%TO.P,U1,4*%
%TO.N,Net-(U1-Pad4)*%
X53520400Y64884800D03*
%TO.P,U1,11*%
%TO.N,Net-(U1-Pad11)*%
X50980400Y54724800D03*
%TO.P,U1,2*%
%TO.N,Net-(U1-Pad2)*%
X53520400Y67424800D03*
%TO.P,U1,902*%
%TO.N,GND*%
X5260400Y67424800D03*
%TO.P,U1,911*%
%TO.N,Net-(U1-Pad911)*%
X2720400Y54724800D03*
%TO.P,U1,904*%
%TO.N,+3.3V*%
X5260400Y64884800D03*
%TO.P,U1,913*%
%TO.N,Net-(U1-Pad913)*%
X2720400Y52184800D03*
%TO.P,U1,906*%
%TO.N,Net-(U1-Pad906)*%
X5260400Y62344800D03*
%TO.P,U1,915*%
%TO.N,Net-(U1-Pad915)*%
X2720400Y49644800D03*
%TO.P,U1,908*%
%TO.N,Net-(U1-Pad908)*%
X5260400Y59804800D03*
%TO.P,U1,917*%
%TO.N,Net-(U1-Pad917)*%
X2720400Y47104800D03*
%TO.P,U1,910*%
%TO.N,/SYS_RESETn*%
X5260400Y57264800D03*
%TO.P,U1,919*%
%TO.N,/EP_SCL*%
X2720400Y44564800D03*
%TO.P,U1,912*%
%TO.N,Net-(U1-Pad912)*%
X5260400Y54724800D03*
%TO.P,U1,921*%
%TO.N,Net-(U1-Pad921)*%
X2720400Y42024800D03*
%TO.P,U1,914*%
%TO.N,Net-(U1-Pad914)*%
X5260400Y52184800D03*
%TO.P,U1,923*%
%TO.N,Net-(U1-Pad923)*%
X2720400Y39484800D03*
%TO.P,U1,916*%
%TO.N,Net-(U1-Pad916)*%
X5260400Y49644800D03*
%TO.P,U1,925*%
%TO.N,Net-(U1-Pad925)*%
X2720400Y36944800D03*
%TO.P,U1,918*%
%TO.N,Net-(U1-Pad918)*%
X5260400Y47104800D03*
%TO.P,U1,927*%
%TO.N,Net-(U1-Pad927)*%
X2720400Y34404800D03*
%TO.P,U1,920*%
%TO.N,/EP_SDA*%
X5260400Y44564800D03*
%TO.P,U1,929*%
%TO.N,Net-(U1-Pad929)*%
X2720400Y31864800D03*
%TO.P,U1,922*%
%TO.N,Net-(U1-Pad922)*%
X5260400Y42024800D03*
%TO.P,U1,931*%
%TO.N,Net-(U1-Pad931)*%
X2720400Y29324800D03*
%TO.P,U1,924*%
%TO.N,Net-(U1-Pad924)*%
X5260400Y39484800D03*
%TO.P,U1,926*%
%TO.N,Net-(U1-Pad926)*%
X5260400Y36944800D03*
%TO.P,U1,933*%
%TO.N,Net-(U1-Pad933)*%
X2720400Y26784800D03*
%TO.P,U1,928*%
%TO.N,Net-(U1-Pad928)*%
X5260400Y34404800D03*
%TO.P,U1,932*%
%TO.N,Net-(U1-Pad932)*%
X5260400Y29324800D03*
%TO.P,U1,934*%
%TO.N,Net-(U1-Pad934)*%
X5260400Y26784800D03*
%TO.P,U1,936*%
%TO.N,Net-(U1-Pad936)*%
X5260400Y24244800D03*
%TO.P,U1,938*%
%TO.N,Net-(U1-Pad938)*%
X5260400Y21704800D03*
%TO.P,U1,935*%
%TO.N,Net-(U1-Pad935)*%
X2720400Y24244800D03*
%TO.P,U1,937*%
%TO.N,Net-(U1-Pad937)*%
X2720400Y21704800D03*
%TO.P,U1,903*%
%TO.N,+3.3V*%
X2720400Y64884800D03*
%TO.P,U1,905*%
%TO.N,Net-(U1-Pad905)*%
X2720400Y62344800D03*
%TO.P,U1,907*%
%TO.N,Net-(U1-Pad907)*%
X2720400Y59804800D03*
%TO.P,U1,909*%
%TO.N,Net-(U1-Pad909)*%
X2720400Y57264800D03*
%TO.P,U1,939*%
%TO.N,Net-(U1-Pad939)*%
X2720400Y19164800D03*
%TO.P,U1,940*%
%TO.N,Net-(U1-Pad940)*%
X5260400Y19164800D03*
%TO.P,U1,930*%
%TO.N,Net-(U1-Pad930)*%
X5260400Y31864800D03*
%TO.P,U1,941*%
%TO.N,Net-(U1-Pad941)*%
X2720400Y16624800D03*
%TO.P,U1,942*%
%TO.N,Net-(U1-Pad942)*%
X5260400Y16624800D03*
%TO.P,U1,943*%
%TO.N,GND*%
X2720400Y14084800D03*
%TO.P,U1,944*%
X5260400Y14084800D03*
%TO.P,U1,945*%
X2720400Y11544800D03*
%TO.P,U1,946*%
X5260400Y11544800D03*
D10*
%TO.P,U1,901*%
X2720400Y67424800D03*
%TD*%
D12*
%TO.P,P1,1*%
%TO.N,/IN1*%
X44810000Y14320000D03*
D13*
%TO.P,P1,2*%
%TO.N,GND*%
X44810000Y11780000D03*
%TO.P,P1,3*%
%TO.N,/IN2*%
X42270000Y14320000D03*
%TO.P,P1,4*%
%TO.N,GND*%
X42270000Y11780000D03*
%TO.P,P1,5*%
%TO.N,/IN3*%
X39730000Y14320000D03*
%TO.P,P1,6*%
%TO.N,GND*%
X39730000Y11780000D03*
%TO.P,P1,7*%
%TO.N,/IN4*%
X37190000Y14320000D03*
%TO.P,P1,8*%
%TO.N,GND*%
X37190000Y11780000D03*
%TO.P,P1,9*%
%TO.N,/IN5*%
X34650000Y14320000D03*
%TO.P,P1,10*%
%TO.N,GND*%
X34650000Y11780000D03*
%TO.P,P1,11*%
%TO.N,/IN6*%
X32110000Y14320000D03*
%TO.P,P1,12*%
%TO.N,GND*%
X32110000Y11780000D03*
%TO.P,P1,13*%
%TO.N,/IN7*%
X29570000Y14320000D03*
%TO.P,P1,14*%
%TO.N,GND*%
X29570000Y11780000D03*
%TO.P,P1,15*%
%TO.N,/IN8*%
X27030000Y14320000D03*
%TO.P,P1,16*%
%TO.N,GND*%
X27030000Y11780000D03*
%TO.P,P1,17*%
%TO.N,/IN9*%
X24490000Y14320000D03*
%TO.P,P1,18*%
%TO.N,GND*%
X24490000Y11780000D03*
%TO.P,P1,19*%
%TO.N,/IN10*%
X21950000Y14320000D03*
%TO.P,P1,20*%
%TO.N,GND*%
X21950000Y11780000D03*
%TO.P,P1,21*%
%TO.N,/IN11*%
X19410000Y14320000D03*
%TO.P,P1,22*%
%TO.N,GND*%
X19410000Y11780000D03*
%TO.P,P1,23*%
%TO.N,/IN12*%
X16870000Y14320000D03*
%TO.P,P1,24*%
%TO.N,GND*%
X16870000Y11780000D03*
%TO.P,P1,25*%
%TO.N,/IN13*%
X14330000Y14320000D03*
%TO.P,P1,26*%
%TO.N,GND*%
X14330000Y11780000D03*
%TO.P,P1,27*%
%TO.N,/IN14*%
X11790000Y14320000D03*
%TO.P,P1,28*%
%TO.N,GND*%
X11790000Y11780000D03*
%TD*%
D14*
%TO.P,Q1,3*%
%TO.N,Net-(Q1-Pad3)*%
X25819380Y25504400D03*
%TO.P,Q1,2*%
%TO.N,GND*%
X28019020Y24551900D03*
%TO.P,Q1,1*%
%TO.N,Net-(Q1-Pad1)*%
X28019020Y26456900D03*
%TD*%
%TA.AperFunction,SMDPad,CuDef*%
D15*
%TO.P,U2,1*%
%TO.N,+3.3V*%
G36*
X36988577Y32221830D02*
G01*
X37190102Y32020305D01*
X36482995Y31313198D01*
X36281470Y31514723D01*
X36988577Y32221830D01*
G37*
%TD.AperFunction*%
%TA.AperFunction,SMDPad,CuDef*%
%TO.P,U2,2*%
%TO.N,Net-(U2-Pad2)*%
G36*
X37342131Y31868277D02*
G01*
X37543656Y31666752D01*
X36836549Y30959645D01*
X36635024Y31161170D01*
X37342131Y31868277D01*
G37*
%TD.AperFunction*%
%TA.AperFunction,SMDPad,CuDef*%
%TO.P,U2,3*%
%TO.N,Net-(U2-Pad3)*%
G36*
X37695684Y31514724D02*
G01*
X37897209Y31313199D01*
X37190102Y30606092D01*
X36988577Y30807617D01*
X37695684Y31514724D01*
G37*
%TD.AperFunction*%
%TA.AperFunction,SMDPad,CuDef*%
%TO.P,U2,4*%
%TO.N,GND*%
G36*
X38049238Y31161170D02*
G01*
X38250763Y30959645D01*
X37543656Y30252538D01*
X37342131Y30454063D01*
X38049238Y31161170D01*
G37*
%TD.AperFunction*%
%TA.AperFunction,SMDPad,CuDef*%
%TO.P,U2,5*%
%TO.N,Net-(R8-Pad1)*%
G36*
X38402791Y30807617D02*
G01*
X38604316Y30606092D01*
X37897209Y29898985D01*
X37695684Y30100510D01*
X38402791Y30807617D01*
G37*
%TD.AperFunction*%
%TA.AperFunction,SMDPad,CuDef*%
%TO.P,U2,6*%
%TO.N,Net-(R9-Pad1)*%
G36*
X38756344Y30454063D02*
G01*
X38957869Y30252538D01*
X38250762Y29545431D01*
X38049237Y29746956D01*
X38756344Y30454063D01*
G37*
%TD.AperFunction*%
%TA.AperFunction,SMDPad,CuDef*%
%TO.P,U2,7*%
%TO.N,+3.3V*%
G36*
X39109898Y30100510D02*
G01*
X39311423Y29898985D01*
X38604316Y29191878D01*
X38402791Y29393403D01*
X39109898Y30100510D01*
G37*
%TD.AperFunction*%
%TA.AperFunction,SMDPad,CuDef*%
%TO.P,U2,8*%
%TO.N,/CH11*%
G36*
X39463451Y29746957D02*
G01*
X39664976Y29545432D01*
X38957869Y28838325D01*
X38756344Y29039850D01*
X39463451Y29746957D01*
G37*
%TD.AperFunction*%
%TA.AperFunction,SMDPad,CuDef*%
%TO.P,U2,9*%
%TO.N,/CH10*%
G36*
X39817005Y29393403D02*
G01*
X40018530Y29191878D01*
X39311423Y28484771D01*
X39109898Y28686296D01*
X39817005Y29393403D01*
G37*
%TD.AperFunction*%
%TA.AperFunction,SMDPad,CuDef*%
%TO.P,U2,10*%
%TO.N,GND*%
G36*
X40170558Y29039850D02*
G01*
X40372083Y28838325D01*
X39664976Y28131218D01*
X39463451Y28332743D01*
X40170558Y29039850D01*
G37*
%TD.AperFunction*%
%TA.AperFunction,SMDPad,CuDef*%
%TO.P,U2,11*%
%TO.N,/CH9*%
G36*
X40524111Y28686297D02*
G01*
X40725636Y28484772D01*
X40018529Y27777665D01*
X39817004Y27979190D01*
X40524111Y28686297D01*
G37*
%TD.AperFunction*%
%TA.AperFunction,SMDPad,CuDef*%
%TO.P,U2,12*%
%TO.N,/CH12*%
G36*
X40877665Y28332743D02*
G01*
X41079190Y28131218D01*
X40372083Y27424111D01*
X40170558Y27625636D01*
X40877665Y28332743D01*
G37*
%TD.AperFunction*%
%TA.AperFunction,SMDPad,CuDef*%
%TO.P,U2,13*%
%TO.N,/CH8*%
G36*
X41231218Y27979190D02*
G01*
X41432743Y27777665D01*
X40725636Y27070558D01*
X40524111Y27272083D01*
X41231218Y27979190D01*
G37*
%TD.AperFunction*%
%TA.AperFunction,SMDPad,CuDef*%
%TO.P,U2,14*%
%TO.N,/CH7*%
G36*
X41584772Y27625636D02*
G01*
X41786297Y27424111D01*
X41079190Y26717004D01*
X40877665Y26918529D01*
X41584772Y27625636D01*
G37*
%TD.AperFunction*%
%TA.AperFunction,SMDPad,CuDef*%
%TO.P,U2,15*%
%TO.N,GND*%
G36*
X41938325Y27272083D02*
G01*
X42139850Y27070558D01*
X41432743Y26363451D01*
X41231218Y26564976D01*
X41938325Y27272083D01*
G37*
%TD.AperFunction*%
%TA.AperFunction,SMDPad,CuDef*%
%TO.P,U2,16*%
%TO.N,/CH6*%
G36*
X42291878Y26918530D02*
G01*
X42493403Y26717005D01*
X41786296Y26009898D01*
X41584771Y26211423D01*
X42291878Y26918530D01*
G37*
%TD.AperFunction*%
%TA.AperFunction,SMDPad,CuDef*%
%TO.P,U2,17*%
%TO.N,/CH5*%
G36*
X42645432Y26564976D02*
G01*
X42846957Y26363451D01*
X42139850Y25656344D01*
X41938325Y25857869D01*
X42645432Y26564976D01*
G37*
%TD.AperFunction*%
%TA.AperFunction,SMDPad,CuDef*%
%TO.P,U2,18*%
%TO.N,+3.3V*%
G36*
X42998985Y26211423D02*
G01*
X43200510Y26009898D01*
X42493403Y25302791D01*
X42291878Y25504316D01*
X42998985Y26211423D01*
G37*
%TD.AperFunction*%
%TA.AperFunction,SMDPad,CuDef*%
%TO.P,U2,19*%
%TO.N,/CH4*%
G36*
X43352538Y25857869D02*
G01*
X43554063Y25656344D01*
X42846956Y24949237D01*
X42645431Y25150762D01*
X43352538Y25857869D01*
G37*
%TD.AperFunction*%
%TA.AperFunction,SMDPad,CuDef*%
%TO.P,U2,20*%
%TO.N,/CH3*%
G36*
X43706092Y25504316D02*
G01*
X43907617Y25302791D01*
X43200510Y24595684D01*
X42998985Y24797209D01*
X43706092Y25504316D01*
G37*
%TD.AperFunction*%
%TA.AperFunction,SMDPad,CuDef*%
%TO.P,U2,21*%
%TO.N,GND*%
G36*
X44059645Y25150763D02*
G01*
X44261170Y24949238D01*
X43554063Y24242131D01*
X43352538Y24443656D01*
X44059645Y25150763D01*
G37*
%TD.AperFunction*%
%TA.AperFunction,SMDPad,CuDef*%
%TO.P,U2,22*%
%TO.N,/CH2*%
G36*
X44413199Y24797209D02*
G01*
X44614724Y24595684D01*
X43907617Y23888577D01*
X43706092Y24090102D01*
X44413199Y24797209D01*
G37*
%TD.AperFunction*%
%TA.AperFunction,SMDPad,CuDef*%
%TO.P,U2,23*%
%TO.N,/CH1*%
G36*
X44766752Y24443656D02*
G01*
X44968277Y24242131D01*
X44261170Y23535024D01*
X44059645Y23736549D01*
X44766752Y24443656D01*
G37*
%TD.AperFunction*%
%TA.AperFunction,SMDPad,CuDef*%
%TO.P,U2,24*%
%TO.N,+3.3V*%
G36*
X45120305Y24090102D02*
G01*
X45321830Y23888577D01*
X44614723Y23181470D01*
X44413198Y23382995D01*
X45120305Y24090102D01*
G37*
%TD.AperFunction*%
%TA.AperFunction,SMDPad,CuDef*%
%TO.P,U2,25*%
%TO.N,Net-(Q1-Pad3)*%
G36*
X39817005Y18786802D02*
G01*
X40018530Y18585277D01*
X39311423Y17878170D01*
X39109898Y18079695D01*
X39817005Y18786802D01*
G37*
%TD.AperFunction*%
%TA.AperFunction,SMDPad,CuDef*%
%TO.P,U2,26*%
%TO.N,/IN1*%
G36*
X39463451Y19140355D02*
G01*
X39664976Y18938830D01*
X38957869Y18231723D01*
X38756344Y18433248D01*
X39463451Y19140355D01*
G37*
%TD.AperFunction*%
%TA.AperFunction,SMDPad,CuDef*%
%TO.P,U2,27*%
%TO.N,/IN2*%
G36*
X39109898Y19493908D02*
G01*
X39311423Y19292383D01*
X38604316Y18585276D01*
X38402791Y18786801D01*
X39109898Y19493908D01*
G37*
%TD.AperFunction*%
%TA.AperFunction,SMDPad,CuDef*%
%TO.P,U2,28*%
%TO.N,GND*%
G36*
X38756344Y19847462D02*
G01*
X38957869Y19645937D01*
X38250762Y18938830D01*
X38049237Y19140355D01*
X38756344Y19847462D01*
G37*
%TD.AperFunction*%
%TA.AperFunction,SMDPad,CuDef*%
%TO.P,U2,29*%
%TO.N,/IN3*%
G36*
X38402791Y20201015D02*
G01*
X38604316Y19999490D01*
X37897209Y19292383D01*
X37695684Y19493908D01*
X38402791Y20201015D01*
G37*
%TD.AperFunction*%
%TA.AperFunction,SMDPad,CuDef*%
%TO.P,U2,30*%
%TO.N,/IN4*%
G36*
X38049238Y20554569D02*
G01*
X38250763Y20353044D01*
X37543656Y19645937D01*
X37342131Y19847462D01*
X38049238Y20554569D01*
G37*
%TD.AperFunction*%
%TA.AperFunction,SMDPad,CuDef*%
%TO.P,U2,31*%
%TO.N,Net-(C2-Pad1)*%
G36*
X37695684Y20908122D02*
G01*
X37897209Y20706597D01*
X37190102Y19999490D01*
X36988577Y20201015D01*
X37695684Y20908122D01*
G37*
%TD.AperFunction*%
%TA.AperFunction,SMDPad,CuDef*%
%TO.P,U2,32*%
%TO.N,/IN5*%
G36*
X37342131Y21261675D02*
G01*
X37543656Y21060150D01*
X36836549Y20353043D01*
X36635024Y20554568D01*
X37342131Y21261675D01*
G37*
%TD.AperFunction*%
%TA.AperFunction,SMDPad,CuDef*%
%TO.P,U2,33*%
%TO.N,/IN6*%
G36*
X36988577Y21615229D02*
G01*
X37190102Y21413704D01*
X36482995Y20706597D01*
X36281470Y20908122D01*
X36988577Y21615229D01*
G37*
%TD.AperFunction*%
%TA.AperFunction,SMDPad,CuDef*%
%TO.P,U2,34*%
%TO.N,GND*%
G36*
X36635024Y21968782D02*
G01*
X36836549Y21767257D01*
X36129442Y21060150D01*
X35927917Y21261675D01*
X36635024Y21968782D01*
G37*
%TD.AperFunction*%
%TA.AperFunction,SMDPad,CuDef*%
%TO.P,U2,35*%
%TO.N,/IN7*%
G36*
X36281471Y22322335D02*
G01*
X36482996Y22120810D01*
X35775889Y21413703D01*
X35574364Y21615228D01*
X36281471Y22322335D01*
G37*
%TD.AperFunction*%
%TA.AperFunction,SMDPad,CuDef*%
%TO.P,U2,36*%
%TO.N,/IN8*%
G36*
X35927917Y22675889D02*
G01*
X36129442Y22474364D01*
X35422335Y21767257D01*
X35220810Y21968782D01*
X35927917Y22675889D01*
G37*
%TD.AperFunction*%
%TA.AperFunction,SMDPad,CuDef*%
%TO.P,U2,37*%
%TO.N,/IN12*%
G36*
X35574364Y23029442D02*
G01*
X35775889Y22827917D01*
X35068782Y22120810D01*
X34867257Y22322335D01*
X35574364Y23029442D01*
G37*
%TD.AperFunction*%
%TA.AperFunction,SMDPad,CuDef*%
%TO.P,U2,38*%
%TO.N,/IN9*%
G36*
X35220810Y23382996D02*
G01*
X35422335Y23181471D01*
X34715228Y22474364D01*
X34513703Y22675889D01*
X35220810Y23382996D01*
G37*
%TD.AperFunction*%
%TA.AperFunction,SMDPad,CuDef*%
%TO.P,U2,39*%
%TO.N,GND*%
G36*
X34867257Y23736549D02*
G01*
X35068782Y23535024D01*
X34361675Y22827917D01*
X34160150Y23029442D01*
X34867257Y23736549D01*
G37*
%TD.AperFunction*%
%TA.AperFunction,SMDPad,CuDef*%
%TO.P,U2,40*%
%TO.N,/IN10*%
G36*
X34513704Y24090102D02*
G01*
X34715229Y23888577D01*
X34008122Y23181470D01*
X33806597Y23382995D01*
X34513704Y24090102D01*
G37*
%TD.AperFunction*%
%TA.AperFunction,SMDPad,CuDef*%
%TO.P,U2,41*%
%TO.N,/IN11*%
G36*
X34160150Y24443656D02*
G01*
X34361675Y24242131D01*
X33654568Y23535024D01*
X33453043Y23736549D01*
X34160150Y24443656D01*
G37*
%TD.AperFunction*%
%TA.AperFunction,SMDPad,CuDef*%
%TO.P,U2,42*%
%TO.N,Net-(C2-Pad1)*%
G36*
X33806597Y24797209D02*
G01*
X34008122Y24595684D01*
X33301015Y23888577D01*
X33099490Y24090102D01*
X33806597Y24797209D01*
G37*
%TD.AperFunction*%
%TA.AperFunction,SMDPad,CuDef*%
%TO.P,U2,43*%
%TO.N,/IN13*%
G36*
X33453044Y25150763D02*
G01*
X33654569Y24949238D01*
X32947462Y24242131D01*
X32745937Y24443656D01*
X33453044Y25150763D01*
G37*
%TD.AperFunction*%
%TA.AperFunction,SMDPad,CuDef*%
%TO.P,U2,44*%
%TO.N,/IN14*%
G36*
X33099490Y25504316D02*
G01*
X33301015Y25302791D01*
X32593908Y24595684D01*
X32392383Y24797209D01*
X33099490Y25504316D01*
G37*
%TD.AperFunction*%
%TA.AperFunction,SMDPad,CuDef*%
%TO.P,U2,45*%
%TO.N,GND*%
G36*
X32745937Y25857869D02*
G01*
X32947462Y25656344D01*
X32240355Y24949237D01*
X32038830Y25150762D01*
X32745937Y25857869D01*
G37*
%TD.AperFunction*%
%TA.AperFunction,SMDPad,CuDef*%
%TO.P,U2,46*%
%TO.N,Net-(U2-Pad46)*%
G36*
X32392383Y26211423D02*
G01*
X32593908Y26009898D01*
X31886801Y25302791D01*
X31685276Y25504316D01*
X32392383Y26211423D01*
G37*
%TD.AperFunction*%
%TA.AperFunction,SMDPad,CuDef*%
%TO.P,U2,47*%
%TO.N,Net-(U2-Pad47)*%
G36*
X32038830Y26564976D02*
G01*
X32240355Y26363451D01*
X31533248Y25656344D01*
X31331723Y25857869D01*
X32038830Y26564976D01*
G37*
%TD.AperFunction*%
%TA.AperFunction,SMDPad,CuDef*%
%TO.P,U2,48*%
%TO.N,Net-(Q1-Pad3)*%
G36*
X31685277Y26918530D02*
G01*
X31886802Y26717005D01*
X31179695Y26009898D01*
X30978170Y26211423D01*
X31685277Y26918530D01*
G37*
%TD.AperFunction*%
%TD*%
D16*
%TO.P,U3,1*%
%TO.N,Net-(R13-Pad2)*%
X13355600Y42159200D03*
%TO.P,U3,2*%
%TO.N,Net-(R12-Pad2)*%
X12085600Y42159200D03*
%TO.P,U3,3*%
%TO.N,Net-(R5-Pad1)*%
X10815600Y42159200D03*
%TO.P,U3,4*%
%TO.N,GND*%
X9545600Y42159200D03*
%TO.P,U3,5*%
%TO.N,/EP_SDA*%
X9545600Y47559200D03*
%TO.P,U3,6*%
%TO.N,/EP_SCL*%
X10815600Y47559200D03*
%TO.P,U3,7*%
%TO.N,Net-(R10-Pad2)*%
X12085600Y47559200D03*
%TO.P,U3,8*%
%TO.N,+3.3V*%
X13355600Y47559200D03*
%TD*%
D17*
%TO.P,R1,1*%
%TO.N,+3.3V*%
X29535400Y29556400D03*
%TO.P,R1,2*%
%TO.N,Net-(Q1-Pad3)*%
X29535400Y28056400D03*
%TD*%
%TO.P,R2,1*%
%TO.N,/EP_SCL*%
X10790200Y49544800D03*
%TO.P,R2,2*%
%TO.N,+3.3V*%
X10790200Y51044800D03*
%TD*%
%TO.P,R3,1*%
%TO.N,/EP_SDA*%
X9063000Y49519400D03*
%TO.P,R3,2*%
%TO.N,+3.3V*%
X9063000Y51019400D03*
%TD*%
%TO.P,R4,1*%
%TO.N,Net-(R10-Pad2)*%
X12517400Y49519400D03*
%TO.P,R4,2*%
%TO.N,+3.3V*%
X12517400Y51019400D03*
%TD*%
D18*
%TO.P,R5,1*%
%TO.N,Net-(R5-Pad1)*%
X15425000Y44706800D03*
%TO.P,R5,2*%
%TO.N,+3.3V*%
X16925000Y44706800D03*
%TD*%
%TO.P,R6,1*%
%TO.N,Net-(R12-Pad2)*%
X15425000Y43081200D03*
%TO.P,R6,2*%
%TO.N,+3.3V*%
X16925000Y43081200D03*
%TD*%
%TO.P,R7,1*%
%TO.N,Net-(R13-Pad2)*%
X15450400Y41328600D03*
%TO.P,R7,2*%
%TO.N,+3.3V*%
X16950400Y41328600D03*
%TD*%
%TO.P,R8,1*%
%TO.N,Net-(R8-Pad1)*%
X46800000Y42500000D03*
%TO.P,R8,2*%
%TO.N,/CH14*%
X48300000Y42500000D03*
%TD*%
%TO.P,R9,1*%
%TO.N,Net-(R9-Pad1)*%
X46800000Y40600000D03*
%TO.P,R9,2*%
%TO.N,/CH13*%
X48300000Y40600000D03*
%TD*%
%TO.P,R10,1*%
%TO.N,GND*%
X16823400Y49456600D03*
%TO.P,R10,2*%
%TO.N,Net-(R10-Pad2)*%
X15323400Y49456600D03*
%TD*%
D17*
%TO.P,R12,1*%
%TO.N,GND*%
X11044200Y38013200D03*
%TO.P,R12,2*%
%TO.N,Net-(R12-Pad2)*%
X11044200Y39513200D03*
%TD*%
%TO.P,R13,1*%
%TO.N,GND*%
X12974600Y38013200D03*
%TO.P,R13,2*%
%TO.N,Net-(R13-Pad2)*%
X12974600Y39513200D03*
%TD*%
%TO.P,R14,1*%
%TO.N,Net-(Q1-Pad1)*%
X27625000Y28050000D03*
%TO.P,R14,2*%
%TO.N,/SYS_RESETn*%
X27625000Y29550000D03*
%TD*%
%TA.AperFunction,SMDPad,CuDef*%
D15*
%TO.P,C1,1*%
%TO.N,GND*%
G36*
X32661091Y29749695D02*
G01*
X32024695Y30386091D01*
X32378249Y30739645D01*
X33014645Y30103249D01*
X32661091Y29749695D01*
G37*
%TD.AperFunction*%
%TA.AperFunction,SMDPad,CuDef*%
%TO.P,C1,2*%
%TO.N,+3.3V*%
G36*
X33721751Y30810355D02*
G01*
X33085355Y31446751D01*
X33438909Y31800305D01*
X34075305Y31163909D01*
X33721751Y30810355D01*
G37*
%TD.AperFunction*%
%TD*%
%TA.AperFunction,SMDPad,CuDef*%
%TO.P,C2,1*%
%TO.N,Net-(C2-Pad1)*%
G36*
X42811091Y18074695D02*
G01*
X42174695Y18711091D01*
X42528249Y19064645D01*
X43164645Y18428249D01*
X42811091Y18074695D01*
G37*
%TD.AperFunction*%
%TA.AperFunction,SMDPad,CuDef*%
%TO.P,C2,2*%
%TO.N,GND*%
G36*
X43871751Y19135355D02*
G01*
X43235355Y19771751D01*
X43588909Y20125305D01*
X44225305Y19488909D01*
X43871751Y19135355D01*
G37*
%TD.AperFunction*%
%TD*%
%TA.AperFunction,SMDPad,CuDef*%
%TO.P,R15,1*%
%TO.N,Net-(C2-Pad1)*%
G36*
X32146751Y29127513D02*
G01*
X31722487Y28703249D01*
X31439645Y28986091D01*
X31863909Y29410355D01*
X32146751Y29127513D01*
G37*
%TD.AperFunction*%
%TA.AperFunction,SMDPad,CuDef*%
%TO.P,R15,2*%
%TO.N,+3.3V*%
G36*
X31510355Y29763909D02*
G01*
X31086091Y29339645D01*
X30803249Y29622487D01*
X31227513Y30046751D01*
X31510355Y29763909D01*
G37*
%TD.AperFunction*%
%TD*%
D19*
%TO.N,GND*%
X30500000Y35000000D03*
X42710407Y23600000D03*
X39800000Y20675000D03*
X33828000Y26672800D03*
X38882600Y27561800D03*
X36792397Y29702804D03*
X40559000Y25682200D03*
X37663400Y22812000D03*
X35885400Y24513800D03*
X16784600Y50980600D03*
%TO.N,Net-(Q1-Pad3)*%
X40200000Y17675000D03*
X30850000Y27050000D03*
%TD*%
D20*
%TO.N,GND*%
X2720400Y67424800D02*
X5260400Y67424800D01*
X5260400Y67424800D02*
X5270800Y67414400D01*
D21*
X37796447Y30706854D02*
X38800000Y31710407D01*
X36500000Y35000000D02*
X30500000Y35000000D01*
X38800000Y32700000D02*
X36500000Y35000000D01*
X38800000Y31710407D02*
X38800000Y32700000D01*
X43806854Y24696447D02*
X42710407Y23600000D01*
X38503553Y19393146D02*
X39785407Y20675000D01*
X39785407Y20675000D02*
X39800000Y20675000D01*
D20*
X39800000Y20675000D02*
X39785407Y20675000D01*
D22*
X32493146Y25403553D02*
X33762393Y26672800D01*
D20*
X33762393Y26672800D02*
X33828000Y26672800D01*
X28019020Y24551900D02*
X26717120Y23250000D01*
X12974600Y33530800D02*
X12974600Y38001200D01*
X12974600Y33530800D02*
X23255400Y23250000D01*
X26717120Y23250000D02*
X23255400Y23250000D01*
D22*
X39917767Y28585534D02*
X38894033Y27561800D01*
D20*
X38894033Y27561800D02*
X38882600Y27561800D01*
D22*
X37796447Y30706854D02*
X36792397Y29702804D01*
D20*
X40559000Y25691233D02*
X40559000Y25682200D01*
D22*
X41685534Y26817767D02*
X40559000Y25691233D01*
X30830800Y15963033D02*
X30830800Y11966200D01*
X36382233Y21514466D02*
X30830800Y15963033D01*
D20*
X37663400Y22795633D02*
X37663400Y22812000D01*
D22*
X36382233Y21514466D02*
X37663400Y22795633D01*
X35846033Y24513800D02*
X34614466Y23282233D01*
D20*
X35846033Y24513800D02*
X35885400Y24513800D01*
D22*
X32493146Y25403553D02*
X31616093Y24526500D01*
D20*
X30830800Y11966200D02*
X30644600Y11780000D01*
X5260400Y14084800D02*
X5260400Y11544800D01*
X2720400Y14084800D02*
X5260400Y14084800D01*
X2720400Y11544800D02*
X2720400Y14084800D01*
X11554800Y11544800D02*
X2720400Y11544800D01*
X11790000Y11780000D02*
X11554800Y11544800D01*
X14330000Y11780000D02*
X11790000Y11780000D01*
X16870000Y11780000D02*
X14330000Y11780000D01*
X19410000Y11780000D02*
X16870000Y11780000D01*
X21950000Y11780000D02*
X19410000Y11780000D01*
X24490000Y11780000D02*
X21950000Y11780000D01*
X27030000Y11780000D02*
X24490000Y11780000D01*
X29570000Y11780000D02*
X27030000Y11780000D01*
X30644600Y11780000D02*
X29570000Y11780000D01*
X32110000Y11780000D02*
X30644600Y11780000D01*
X34650000Y11780000D02*
X32110000Y11780000D01*
X37190000Y11780000D02*
X34650000Y11780000D01*
X39730000Y11780000D02*
X37190000Y11780000D01*
X42270000Y11780000D02*
X39730000Y11780000D01*
X44810000Y11780000D02*
X42270000Y11780000D01*
D22*
X31616093Y24526500D02*
X28019020Y24551900D01*
D20*
X12974600Y38001200D02*
X11044200Y38001200D01*
X9545600Y39499800D02*
X11044200Y38001200D01*
X16835400Y46510200D02*
X16073400Y45748200D01*
X16835400Y49456600D02*
X16835400Y46510200D01*
X16835400Y49456600D02*
X16835400Y50929800D01*
X16835400Y50929800D02*
X16784600Y50980600D01*
D22*
X11323600Y45748200D02*
X16073400Y45748200D01*
D20*
X9545600Y43970200D02*
X11323600Y45748200D01*
X9545600Y42159200D02*
X9545600Y39499800D01*
X9545600Y42159200D02*
X9545600Y43970200D01*
X45080200Y18297430D02*
X45080200Y16458500D01*
X45986200Y11780000D02*
X44810000Y11780000D01*
X46340000Y12133800D02*
X45986200Y11780000D01*
X45080200Y16458500D02*
X46340000Y15198700D01*
X46340000Y15198700D02*
X46340000Y12133800D01*
X44638815Y18738815D02*
X45080200Y18297430D01*
X43738815Y19638815D02*
X44638815Y18738815D01*
D21*
X33115990Y30244670D02*
X43730330Y19630330D01*
X32519670Y30244670D02*
X33115990Y30244670D01*
X39800000Y20100000D02*
X42600000Y17300000D01*
X42600000Y17300000D02*
X43200000Y17300000D01*
X43200000Y17300000D02*
X44638815Y18738815D01*
X39800000Y20675000D02*
X39800000Y20100000D01*
D20*
%TO.N,+3.3V*%
X2720400Y64884800D02*
X3975000Y64884800D01*
X8475000Y61670200D02*
X5260400Y64884800D01*
X3975000Y51275000D02*
X3975000Y64884800D01*
X3975000Y64884800D02*
X5260400Y64884800D01*
D21*
X42746194Y25757107D02*
X40914214Y23925127D01*
X40914214Y23925127D02*
X40914214Y23925126D01*
X44867514Y23635786D02*
X43131728Y21900000D01*
X42939340Y21900000D02*
X40914214Y23925126D01*
X40914214Y23925126D02*
X36989340Y27850000D01*
X43131728Y21900000D02*
X42939340Y21900000D01*
X36735786Y31767514D02*
X34903806Y29935534D01*
X34800000Y30000000D02*
X34800000Y30039340D01*
X34864466Y29935534D02*
X34800000Y30000000D01*
X34903806Y29935534D02*
X34864466Y29935534D01*
X31156802Y29693198D02*
X30975000Y29875000D01*
D20*
X31430330Y31305330D02*
X33580330Y31305330D01*
X30975000Y30850000D02*
X31430330Y31305330D01*
X30975000Y29875000D02*
X30975000Y30850000D01*
D21*
X29535400Y29556400D02*
X29672198Y29693198D01*
D20*
X29672198Y29693198D02*
X31156802Y29693198D01*
D21*
X36989340Y27850000D02*
X34800000Y30039340D01*
X34800000Y30039340D02*
X33544670Y31294670D01*
D20*
X29535400Y29556400D02*
X29535400Y45214600D01*
X8475000Y58375000D02*
X8475000Y61670200D01*
X12475000Y54375000D02*
X8475000Y58375000D01*
X20375000Y54375000D02*
X12475000Y54375000D01*
X29535400Y45214600D02*
X20375000Y54375000D01*
X9063000Y51019400D02*
X8094400Y51019400D01*
X4350000Y50900000D02*
X3975000Y51275000D01*
X7975000Y50900000D02*
X4350000Y50900000D01*
D21*
X8094400Y51019400D02*
X7975000Y50900000D01*
X38857107Y29646194D02*
X37060913Y27850000D01*
X37060913Y27850000D02*
X36989340Y27850000D01*
D20*
X13736600Y47940200D02*
X13355600Y47559200D01*
X13736600Y50421800D02*
X13736600Y47940200D01*
X13101600Y51056800D02*
X13736600Y50421800D01*
X10790200Y51056800D02*
X10764800Y51031400D01*
X10764800Y51031400D02*
X9063000Y51031400D01*
X12492000Y51056800D02*
X13101600Y51056800D01*
X9088400Y51056800D02*
X12492000Y51056800D01*
X9063000Y51031400D02*
X9088400Y51056800D01*
X18994400Y46764200D02*
X18994400Y51996600D01*
X18994400Y51996600D02*
X18562600Y52428400D01*
X18562600Y52428400D02*
X13914400Y52428400D01*
X13914400Y52428400D02*
X12517400Y51031400D01*
X16987800Y44757600D02*
X18994400Y46764200D01*
X16987800Y43132000D02*
X16962400Y43106600D01*
X16987800Y44757600D02*
X16987800Y43132000D01*
X16937000Y41354000D02*
X16962400Y41328600D01*
X16937000Y43081200D02*
X16937000Y41354000D01*
D21*
%TO.N,Net-(Q1-Pad3)*%
X31432486Y26464214D02*
X31432486Y26467514D01*
X31432486Y26467514D02*
X30850000Y27050000D01*
X40200000Y17675000D02*
X39564214Y18310786D01*
X39564214Y18310786D02*
X39564214Y18332486D01*
X29789420Y25482611D02*
X30447272Y25479000D01*
X29767631Y25504400D02*
X29789420Y25482611D01*
X25819380Y25504400D02*
X29767631Y25504400D01*
X29281400Y27968200D02*
X29293500Y27968200D01*
X29789420Y27790380D02*
X29789420Y25482611D01*
X29535400Y28044400D02*
X29789420Y27790380D01*
X30447272Y25479000D02*
X31432486Y26464214D01*
X39564214Y18294986D02*
X39564214Y18332486D01*
%TO.N,Net-(Q1-Pad1)*%
X27625000Y28050000D02*
X27625000Y26850920D01*
X27625000Y26850920D02*
X28019020Y26456900D01*
X28019020Y26456900D02*
X28019020Y26690580D01*
%TO.N,Net-(R8-Pad1)*%
X38150000Y30353301D02*
X42413200Y34616501D01*
X42413200Y34616501D02*
X42413200Y38125200D01*
X42413200Y38125200D02*
X46788000Y42500000D01*
%TO.N,Net-(R9-Pad1)*%
X38503553Y29999747D02*
X46788000Y38284194D01*
X46788000Y38284194D02*
X46788000Y40600000D01*
%TO.N,/CH2*%
X46636875Y24700000D02*
X46636875Y16675625D01*
X46636875Y16675625D02*
X50500625Y12811875D01*
X50500625Y12811875D02*
X52253325Y12811875D01*
X53520400Y11544800D02*
X52253325Y12811875D01*
X46636875Y24700000D02*
X45761250Y25575625D01*
X45392856Y25575625D02*
X44337396Y24520165D01*
X45761250Y25575625D02*
X45392856Y25575625D01*
%TO.N,/CH1*%
X50980400Y11544800D02*
X50931450Y11544800D01*
X50931450Y11544800D02*
X46137873Y16338377D01*
X46137873Y24503125D02*
X46137873Y16338377D01*
X44691219Y24166343D02*
X45434876Y24910000D01*
X45730998Y24910000D02*
X46137873Y24503125D01*
X45434876Y24910000D02*
X45730998Y24910000D01*
%TO.N,/CH4*%
X46165625Y26710000D02*
X44406194Y26710000D01*
X43099747Y25403553D02*
X44406194Y26710000D01*
X47638125Y25237500D02*
X46165625Y26710000D01*
X50250000Y15360000D02*
X47638125Y17971875D01*
X52245200Y15360000D02*
X50250000Y15360000D01*
X47638125Y17971875D02*
X47638125Y25237500D01*
X52245200Y15360000D02*
X53520400Y14084800D01*
%TO.N,/CH3*%
X43629752Y25227809D02*
X44622941Y26220998D01*
X45945877Y26220998D02*
X47134375Y25032500D01*
X44622941Y26220998D02*
X45945877Y26220998D01*
X47134375Y25032500D02*
X47134375Y17658750D01*
X47134375Y17658750D02*
X50708325Y14084800D01*
X50708325Y14084800D02*
X50980400Y14084800D01*
%TO.N,/CH6*%
X43574873Y28000000D02*
X42039087Y26464214D01*
X48633750Y25670625D02*
X46304375Y28000000D01*
X46304375Y28000000D02*
X43574873Y28000000D01*
X48633750Y19816250D02*
X48633750Y25670625D01*
X52255200Y17890000D02*
X50560000Y17890000D01*
X50560000Y17890000D02*
X48633750Y19816250D01*
X53520400Y16624800D02*
X52255200Y17890000D01*
%TO.N,/CH5*%
X42392641Y26110660D02*
X43781981Y27500000D01*
X48143750Y25429375D02*
X46073125Y27500000D01*
X46073125Y27500000D02*
X43781981Y27500000D01*
X48143750Y25429375D02*
X48143750Y19461450D01*
X48143750Y19461450D02*
X50980400Y16624800D01*
%TO.N,/CH12*%
X40624874Y27878427D02*
X43356247Y30609800D01*
X43356247Y30609800D02*
X52265400Y30609800D01*
X52265400Y30609800D02*
X53520400Y31864800D01*
%TO.N,/CH8*%
X40978427Y27524874D02*
X42703553Y29250000D01*
X49684375Y26106250D02*
X46540625Y29250000D01*
X46540625Y29250000D02*
X42703553Y29250000D01*
X49684375Y20965625D02*
X49684375Y26106250D01*
X50210000Y20440000D02*
X49684375Y20965625D01*
X52245200Y20440000D02*
X50210000Y20440000D01*
X52245200Y20440000D02*
X53520400Y19164800D01*
%TO.N,/CH7*%
X42760661Y28600000D02*
X41331981Y27171320D01*
X49134375Y25913125D02*
X46447500Y28600000D01*
X46447500Y28600000D02*
X42760661Y28600000D01*
X49134375Y20665625D02*
X49134375Y25913125D01*
X50980400Y19164800D02*
X50395200Y19750000D01*
X50050000Y19750000D02*
X49134375Y20665625D01*
X50395200Y19750000D02*
X50050000Y19750000D01*
%TO.N,/CH11*%
X39210660Y29292641D02*
X48122419Y38204400D01*
X48122419Y38204400D02*
X51430200Y38204400D01*
X53520400Y34996600D02*
X53520400Y34404800D01*
X51430200Y38204400D02*
X52268400Y37366200D01*
X52268400Y37366200D02*
X52268400Y35656800D01*
X52268400Y35656800D02*
X53520400Y34404800D01*
%TO.N,/CH10*%
X39564214Y28939087D02*
X46314927Y35689800D01*
X46314927Y35689800D02*
X51404800Y35689800D01*
X51404800Y35689800D02*
X52243000Y34851600D01*
X52243000Y34851600D02*
X52243000Y33127400D01*
X52243000Y33127400D02*
X50980400Y31864800D01*
%TO.N,/CH14*%
X49096400Y43284400D02*
X52240000Y43284400D01*
X48312000Y42500000D02*
X49096400Y43284400D01*
X52240000Y43284400D02*
X53520400Y44564800D01*
%TO.N,/CH9*%
X40271320Y28231981D02*
X46444139Y34404800D01*
X46444139Y34404800D02*
X50980400Y34404800D01*
%TO.N,/CH13*%
X49736800Y42024800D02*
X48312000Y40600000D01*
X50980400Y42024800D02*
X49736800Y42024800D01*
%TO.N,/IN1*%
X42830000Y16300000D02*
X44810000Y14320000D01*
X39210660Y18686039D02*
X38390152Y17865531D01*
X39509779Y16300000D02*
X42830000Y16300000D01*
X38390152Y17419627D02*
X39509779Y16300000D01*
X38390152Y17865531D02*
X38390152Y17419627D01*
%TO.N,/IN2*%
X37860000Y16990000D02*
X37860000Y18042485D01*
X39129223Y15720777D02*
X37860000Y16990000D01*
X40869223Y15720777D02*
X39129223Y15720777D01*
X42270000Y14320000D02*
X40869223Y15720777D01*
X37860000Y18042485D02*
X38857107Y19039592D01*
%TO.N,/IN3*%
X39730000Y14320000D02*
X37109002Y16940998D01*
X37109002Y16940998D02*
X37109002Y18705701D01*
X37109002Y18705701D02*
X38150000Y19746699D01*
%TO.N,/IN4*%
X36530000Y14980000D02*
X37190000Y14320000D01*
X36530000Y18833806D02*
X36530000Y14980000D01*
X37796447Y20100253D02*
X36530000Y18833806D01*
%TO.N,/IN5*%
X34650000Y18368019D02*
X34650000Y14320000D01*
X37089340Y20807359D02*
X34650000Y18368019D01*
%TO.N,/IN6*%
X32110000Y16535127D02*
X32110000Y14320000D01*
X36735786Y21160913D02*
X32110000Y16535127D01*
%TO.N,/IN7*%
X29570000Y15409339D02*
X29570000Y14320000D01*
X36028680Y21868019D02*
X29570000Y15409339D01*
%TO.N,/IN8*%
X29110000Y16400000D02*
X27030000Y14320000D01*
X29853553Y16400000D02*
X29110000Y16400000D01*
X35675126Y22221573D02*
X29853553Y16400000D01*
%TO.N,/IN9*%
X28316200Y18671800D02*
X30711139Y18671800D01*
X24490000Y14845600D02*
X28316200Y18671800D01*
X24490000Y14320000D02*
X24490000Y14845600D01*
X30711139Y18671800D02*
X34968019Y22928680D01*
%TO.N,/IN10*%
X27267000Y19637000D02*
X30262127Y19637000D01*
X21950000Y14320000D02*
X27267000Y19637000D01*
X30262127Y19637000D02*
X34260913Y23635786D01*
%TO.N,/IN11*%
X25311200Y20221200D02*
X30139219Y20221200D01*
X19410000Y14320000D02*
X25311200Y20221200D01*
X30139219Y20221200D02*
X33907359Y23989340D01*
%TO.N,/IN12*%
X18131600Y13058400D02*
X25166600Y13058400D01*
X16870000Y14320000D02*
X18131600Y13058400D01*
X25166600Y13058400D02*
X25800800Y13692600D01*
X25800800Y13692600D02*
X25800800Y15267400D01*
X25800800Y15267400D02*
X28671800Y18138400D01*
X28671800Y18138400D02*
X30884847Y18138400D01*
X30884847Y18138400D02*
X35321573Y22575126D01*
%TO.N,/IN13*%
X21272600Y21262600D02*
X14330000Y14320000D01*
X29766406Y21262600D02*
X21272600Y21262600D01*
X33200253Y24696447D02*
X29766406Y21262600D01*
%TO.N,/IN14*%
X19494600Y22024600D02*
X11790000Y14320000D01*
X29821299Y22024600D02*
X19494600Y22024600D01*
X32846699Y25050000D02*
X29821299Y22024600D01*
D22*
%TO.N,/EP_SDA*%
X9545600Y49024800D02*
X9545600Y47559200D01*
X9545600Y45951400D02*
X9545600Y47559200D01*
X9063000Y49507400D02*
X9545600Y49024800D01*
X8159000Y44564800D02*
X9545600Y45951400D01*
X5260400Y44564800D02*
X8159000Y44564800D01*
%TO.N,/EP_SCL*%
X10790200Y47584600D02*
X10815600Y47559200D01*
X10815600Y46103800D02*
X7996200Y43284400D01*
X10815600Y47559200D02*
X10815600Y46103800D01*
X10790200Y49532800D02*
X10790200Y47584600D01*
X7996200Y43284400D02*
X4000800Y43284400D01*
X4000800Y43284400D02*
X2720400Y44564800D01*
D20*
%TO.N,/SYS_RESETn*%
X27625000Y29550000D02*
X27625000Y30000000D01*
X27625000Y30000000D02*
X28675000Y31050000D01*
X28675000Y31050000D02*
X28675000Y45050000D01*
X28675000Y45050000D02*
X20350000Y53375000D01*
X20350000Y53375000D02*
X11700000Y53375000D01*
X11700000Y53375000D02*
X7810200Y57264800D01*
X7810200Y57264800D02*
X5260400Y57264800D01*
%TO.N,Net-(C2-Pad1)*%
X31793198Y29056802D02*
X32525000Y28325000D01*
X32525000Y28325000D02*
X33624999Y28325000D01*
X33624999Y28325000D02*
X35580456Y26369543D01*
D21*
X33553806Y24342893D02*
X35580456Y26369543D01*
X35580456Y26369543D02*
X35580457Y26369543D01*
D20*
X35580457Y26369543D02*
X39469544Y22480456D01*
D21*
X37442893Y20453806D02*
X39469543Y22480456D01*
X39469543Y22480456D02*
X39469544Y22480456D01*
D20*
X42669670Y18569670D02*
X42669670Y19280330D01*
X42669670Y19280330D02*
X39469544Y22480456D01*
D21*
%TO.N,Net-(R10-Pad2)*%
X12085600Y49075600D02*
X12085600Y47559200D01*
X12085600Y46256200D02*
X15184400Y46256200D01*
X15184400Y46256200D02*
X15311400Y46383200D01*
X12085600Y47559200D02*
X12085600Y46256200D01*
X12517400Y49507400D02*
X12085600Y49075600D01*
X15311400Y46383200D02*
X15311400Y49456600D01*
%TO.N,Net-(R5-Pad1)*%
X11399800Y44757600D02*
X10815600Y44173400D01*
X15463800Y44757600D02*
X11399800Y44757600D01*
X10815600Y44173400D02*
X10815600Y42159200D01*
%TO.N,Net-(R12-Pad2)*%
X12085600Y40566600D02*
X11044200Y39525200D01*
X12085600Y42159200D02*
X12085600Y40566600D01*
X12085600Y43462200D02*
X12568200Y43944800D01*
X12085600Y42159200D02*
X12085600Y43462200D01*
X14549400Y43944800D02*
X15413000Y43081200D01*
X12568200Y43944800D02*
X14549400Y43944800D01*
%TO.N,Net-(R13-Pad2)*%
X15235200Y41328600D02*
X14404600Y42159200D01*
X15438400Y41328600D02*
X15235200Y41328600D01*
X13355600Y39906200D02*
X12974600Y39525200D01*
X13475000Y42039800D02*
X13355600Y42159200D01*
X14404600Y42159200D02*
X13355600Y42159200D01*
X13355600Y42159200D02*
X13355600Y39906200D01*
%TD*%
%TO.N,GND*%
X27865001Y44714486D02*
X27865000Y31385513D01*
X27080383Y30600895D01*
X27049473Y30575528D01*
X26948251Y30452189D01*
X26908314Y30377472D01*
X26820506Y30330537D01*
X26723815Y30251185D01*
X26644463Y30154494D01*
X26585498Y30044180D01*
X26549188Y29924482D01*
X26536928Y29800000D01*
X26536928Y29300000D01*
X26549188Y29175518D01*
X26585498Y29055820D01*
X26644463Y28945506D01*
X26723815Y28848815D01*
X26783296Y28800000D01*
X26723815Y28751185D01*
X26644463Y28654494D01*
X26585498Y28544180D01*
X26549188Y28424482D01*
X26536928Y28300000D01*
X26536928Y27800000D01*
X26549188Y27675518D01*
X26585498Y27555820D01*
X26644463Y27445506D01*
X26723815Y27348815D01*
X26820506Y27269463D01*
X26863001Y27246749D01*
X26863001Y26888353D01*
X26859314Y26850920D01*
X26874027Y26701542D01*
X26880568Y26679979D01*
X26880568Y26266400D01*
X26844178Y26266400D01*
X26770945Y26355635D01*
X26674254Y26434987D01*
X26563940Y26493952D01*
X26444242Y26530262D01*
X26319760Y26542522D01*
X25319000Y26542522D01*
X25194518Y26530262D01*
X25074820Y26493952D01*
X24964506Y26434987D01*
X24867815Y26355635D01*
X24788463Y26258944D01*
X24729498Y26148630D01*
X24693188Y26028932D01*
X24680928Y25904450D01*
X24680928Y25104350D01*
X24693188Y24979868D01*
X24729498Y24860170D01*
X24788463Y24749856D01*
X24867815Y24653165D01*
X24964506Y24573813D01*
X25074820Y24514848D01*
X25194518Y24478538D01*
X25319000Y24466278D01*
X26319760Y24466278D01*
X26444242Y24478538D01*
X26563940Y24514848D01*
X26674254Y24573813D01*
X26770945Y24653165D01*
X26844178Y24742400D01*
X26978890Y24742400D01*
X27042390Y24678900D01*
X27892020Y24678900D01*
X27892020Y24698900D01*
X28146020Y24698900D01*
X28146020Y24678900D01*
X28995650Y24678900D01*
X29059150Y24742400D01*
X29603821Y24742400D01*
X29635923Y24732469D01*
X29638019Y24732251D01*
X29640043Y24731637D01*
X29712699Y24724481D01*
X29747812Y24720828D01*
X29749908Y24720816D01*
X29774707Y24718374D01*
X29789419Y24716925D01*
X29789420Y24716925D01*
X29824761Y24720406D01*
X30407754Y24717206D01*
X30447272Y24713314D01*
X30519950Y24720472D01*
X30592525Y24727218D01*
X30594550Y24727820D01*
X30596650Y24728027D01*
X30666445Y24749199D01*
X30736399Y24770001D01*
X30738267Y24770986D01*
X30740287Y24771599D01*
X30804661Y24806007D01*
X30869163Y24840030D01*
X30870801Y24841359D01*
X30872664Y24842355D01*
X30929062Y24888640D01*
X30985714Y24934615D01*
X31011070Y24965168D01*
X31173213Y25127311D01*
X31234091Y25053131D01*
X31435616Y24851606D01*
X31509797Y24790728D01*
X29505669Y22786600D01*
X19532023Y22786600D01*
X19494600Y22790286D01*
X19457177Y22786600D01*
X19457174Y22786600D01*
X19345222Y22775574D01*
X19201585Y22732002D01*
X19176407Y22718544D01*
X19069207Y22661245D01*
X19042398Y22639243D01*
X18953178Y22566022D01*
X18929321Y22536952D01*
X12165615Y15773245D01*
X11937599Y15818600D01*
X11642401Y15818600D01*
X11352875Y15761010D01*
X11080147Y15648042D01*
X10834698Y15484039D01*
X10625961Y15275302D01*
X10461958Y15029853D01*
X10348990Y14757125D01*
X10291400Y14467599D01*
X10291400Y14172401D01*
X10348990Y13882875D01*
X10461958Y13610147D01*
X10625961Y13364698D01*
X10834698Y13155961D01*
X11000103Y13045441D01*
X10901512Y12986817D01*
X10683146Y12790293D01*
X10507316Y12554944D01*
X10380778Y12289814D01*
X10335042Y12139026D01*
X10456183Y11907000D01*
X11663000Y11907000D01*
X11663000Y11927000D01*
X11917000Y11927000D01*
X11917000Y11907000D01*
X14203000Y11907000D01*
X14203000Y11927000D01*
X14457000Y11927000D01*
X14457000Y11907000D01*
X16743000Y11907000D01*
X16743000Y11927000D01*
X16997000Y11927000D01*
X16997000Y11907000D01*
X19283000Y11907000D01*
X19283000Y11927000D01*
X19537000Y11927000D01*
X19537000Y11907000D01*
X21823000Y11907000D01*
X21823000Y11927000D01*
X22077000Y11927000D01*
X22077000Y11907000D01*
X24363000Y11907000D01*
X24363000Y11927000D01*
X24617000Y11927000D01*
X24617000Y11907000D01*
X26903000Y11907000D01*
X26903000Y11927000D01*
X27157000Y11927000D01*
X27157000Y11907000D01*
X29443000Y11907000D01*
X29443000Y11927000D01*
X29697000Y11927000D01*
X29697000Y11907000D01*
X31983000Y11907000D01*
X31983000Y11927000D01*
X32237000Y11927000D01*
X32237000Y11907000D01*
X34523000Y11907000D01*
X34523000Y11927000D01*
X34777000Y11927000D01*
X34777000Y11907000D01*
X37063000Y11907000D01*
X37063000Y11927000D01*
X37317000Y11927000D01*
X37317000Y11907000D01*
X39603000Y11907000D01*
X39603000Y11927000D01*
X39857000Y11927000D01*
X39857000Y11907000D01*
X42143000Y11907000D01*
X42143000Y11927000D01*
X42397000Y11927000D01*
X42397000Y11907000D01*
X44683000Y11907000D01*
X44683000Y11927000D01*
X44937000Y11927000D01*
X44937000Y11907000D01*
X46143817Y11907000D01*
X46264958Y12139026D01*
X46219222Y12289814D01*
X46092684Y12554944D01*
X45916854Y12790293D01*
X45853426Y12847376D01*
X45917780Y12866898D01*
X46028094Y12925863D01*
X46124785Y13005215D01*
X46204137Y13101906D01*
X46263102Y13212220D01*
X46299412Y13331918D01*
X46311672Y13456400D01*
X46311672Y15086948D01*
X49605438Y11793182D01*
X49583400Y11682392D01*
X49583400Y11407208D01*
X49637086Y11137310D01*
X49742395Y10883073D01*
X49895280Y10654265D01*
X50089865Y10459680D01*
X50318673Y10306795D01*
X50572910Y10201486D01*
X50842808Y10147800D01*
X51117992Y10147800D01*
X51387890Y10201486D01*
X51642127Y10306795D01*
X51870935Y10459680D01*
X52065520Y10654265D01*
X52218405Y10883073D01*
X52250400Y10960315D01*
X52282395Y10883073D01*
X52435280Y10654265D01*
X52629865Y10459680D01*
X52858673Y10306795D01*
X53112910Y10201486D01*
X53382808Y10147800D01*
X53657992Y10147800D01*
X53927890Y10201486D01*
X54182127Y10306795D01*
X54410935Y10459680D01*
X54575987Y10624732D01*
X54418796Y9709936D01*
X54053478Y8456586D01*
X53548620Y7252637D01*
X52910722Y6113587D01*
X52147980Y5054072D01*
X51270195Y4087707D01*
X50288660Y3226923D01*
X49215993Y2482789D01*
X48065981Y1864864D01*
X46853414Y1381099D01*
X45593880Y1037711D01*
X44300590Y838654D01*
X43183561Y785000D01*
X13818834Y785000D01*
X12448736Y860402D01*
X11113792Y1082597D01*
X9811291Y1449940D01*
X8556965Y1957994D01*
X7365975Y2600618D01*
X6252682Y3370062D01*
X5230554Y4257020D01*
X4311925Y5250788D01*
X3507901Y6339349D01*
X2828177Y7509581D01*
X2280977Y8747323D01*
X1872903Y10037641D01*
X1780953Y10499901D01*
X1818031Y10462823D01*
X1934441Y10579233D01*
X2001420Y10339144D01*
X2250448Y10222044D01*
X2517535Y10155777D01*
X2792417Y10142890D01*
X3064533Y10183878D01*
X3323423Y10277164D01*
X3439380Y10339144D01*
X3506360Y10579235D01*
X4474440Y10579235D01*
X4541420Y10339144D01*
X4790448Y10222044D01*
X5057535Y10155777D01*
X5332417Y10142890D01*
X5604533Y10183878D01*
X5863423Y10277164D01*
X5979380Y10339144D01*
X6046360Y10579235D01*
X5260400Y11365195D01*
X4474440Y10579235D01*
X3506360Y10579235D01*
X2720400Y11365195D01*
X2706258Y11351052D01*
X2526653Y11530657D01*
X2540795Y11544800D01*
X2900005Y11544800D01*
X3685965Y10758840D01*
X3926056Y10825820D01*
X3987479Y10956444D01*
X3992764Y10941777D01*
X4054744Y10825820D01*
X4294835Y10758840D01*
X5080795Y11544800D01*
X5440005Y11544800D01*
X6225965Y10758840D01*
X6466056Y10825820D01*
X6583156Y11074848D01*
X6649423Y11341935D01*
X6653128Y11420974D01*
X10335042Y11420974D01*
X10380778Y11270186D01*
X10507316Y11005056D01*
X10683146Y10769707D01*
X10901512Y10573183D01*
X11154022Y10423036D01*
X11430973Y10325037D01*
X11663000Y10445536D01*
X11663000Y11653000D01*
X11917000Y11653000D01*
X11917000Y10445536D01*
X12149027Y10325037D01*
X12425978Y10423036D01*
X12678488Y10573183D01*
X12896854Y10769707D01*
X13060000Y10988078D01*
X13223146Y10769707D01*
X13441512Y10573183D01*
X13694022Y10423036D01*
X13970973Y10325037D01*
X14203000Y10445536D01*
X14203000Y11653000D01*
X14457000Y11653000D01*
X14457000Y10445536D01*
X14689027Y10325037D01*
X14965978Y10423036D01*
X15218488Y10573183D01*
X15436854Y10769707D01*
X15600000Y10988078D01*
X15763146Y10769707D01*
X15981512Y10573183D01*
X16234022Y10423036D01*
X16510973Y10325037D01*
X16743000Y10445536D01*
X16743000Y11653000D01*
X16997000Y11653000D01*
X16997000Y10445536D01*
X17229027Y10325037D01*
X17505978Y10423036D01*
X17758488Y10573183D01*
X17976854Y10769707D01*
X18140000Y10988078D01*
X18303146Y10769707D01*
X18521512Y10573183D01*
X18774022Y10423036D01*
X19050973Y10325037D01*
X19283000Y10445536D01*
X19283000Y11653000D01*
X19537000Y11653000D01*
X19537000Y10445536D01*
X19769027Y10325037D01*
X20045978Y10423036D01*
X20298488Y10573183D01*
X20516854Y10769707D01*
X20680000Y10988078D01*
X20843146Y10769707D01*
X21061512Y10573183D01*
X21314022Y10423036D01*
X21590973Y10325037D01*
X21823000Y10445536D01*
X21823000Y11653000D01*
X22077000Y11653000D01*
X22077000Y10445536D01*
X22309027Y10325037D01*
X22585978Y10423036D01*
X22838488Y10573183D01*
X23056854Y10769707D01*
X23220000Y10988078D01*
X23383146Y10769707D01*
X23601512Y10573183D01*
X23854022Y10423036D01*
X24130973Y10325037D01*
X24363000Y10445536D01*
X24363000Y11653000D01*
X24617000Y11653000D01*
X24617000Y10445536D01*
X24849027Y10325037D01*
X25125978Y10423036D01*
X25378488Y10573183D01*
X25596854Y10769707D01*
X25760000Y10988078D01*
X25923146Y10769707D01*
X26141512Y10573183D01*
X26394022Y10423036D01*
X26670973Y10325037D01*
X26903000Y10445536D01*
X26903000Y11653000D01*
X27157000Y11653000D01*
X27157000Y10445536D01*
X27389027Y10325037D01*
X27665978Y10423036D01*
X27918488Y10573183D01*
X28136854Y10769707D01*
X28300000Y10988078D01*
X28463146Y10769707D01*
X28681512Y10573183D01*
X28934022Y10423036D01*
X29210973Y10325037D01*
X29443000Y10445536D01*
X29443000Y11653000D01*
X29697000Y11653000D01*
X29697000Y10445536D01*
X29929027Y10325037D01*
X30205978Y10423036D01*
X30458488Y10573183D01*
X30676854Y10769707D01*
X30840000Y10988078D01*
X31003146Y10769707D01*
X31221512Y10573183D01*
X31474022Y10423036D01*
X31750973Y10325037D01*
X31983000Y10445536D01*
X31983000Y11653000D01*
X32237000Y11653000D01*
X32237000Y10445536D01*
X32469027Y10325037D01*
X32745978Y10423036D01*
X32998488Y10573183D01*
X33216854Y10769707D01*
X33380000Y10988078D01*
X33543146Y10769707D01*
X33761512Y10573183D01*
X34014022Y10423036D01*
X34290973Y10325037D01*
X34523000Y10445536D01*
X34523000Y11653000D01*
X34777000Y11653000D01*
X34777000Y10445536D01*
X35009027Y10325037D01*
X35285978Y10423036D01*
X35538488Y10573183D01*
X35756854Y10769707D01*
X35920000Y10988078D01*
X36083146Y10769707D01*
X36301512Y10573183D01*
X36554022Y10423036D01*
X36830973Y10325037D01*
X37063000Y10445536D01*
X37063000Y11653000D01*
X37317000Y11653000D01*
X37317000Y10445536D01*
X37549027Y10325037D01*
X37825978Y10423036D01*
X38078488Y10573183D01*
X38296854Y10769707D01*
X38460000Y10988078D01*
X38623146Y10769707D01*
X38841512Y10573183D01*
X39094022Y10423036D01*
X39370973Y10325037D01*
X39603000Y10445536D01*
X39603000Y11653000D01*
X39857000Y11653000D01*
X39857000Y10445536D01*
X40089027Y10325037D01*
X40365978Y10423036D01*
X40618488Y10573183D01*
X40836854Y10769707D01*
X41000000Y10988078D01*
X41163146Y10769707D01*
X41381512Y10573183D01*
X41634022Y10423036D01*
X41910973Y10325037D01*
X42143000Y10445536D01*
X42143000Y11653000D01*
X42397000Y11653000D01*
X42397000Y10445536D01*
X42629027Y10325037D01*
X42905978Y10423036D01*
X43158488Y10573183D01*
X43376854Y10769707D01*
X43540000Y10988078D01*
X43703146Y10769707D01*
X43921512Y10573183D01*
X44174022Y10423036D01*
X44450973Y10325037D01*
X44683000Y10445536D01*
X44683000Y11653000D01*
X44937000Y11653000D01*
X44937000Y10445536D01*
X45169027Y10325037D01*
X45445978Y10423036D01*
X45698488Y10573183D01*
X45916854Y10769707D01*
X46092684Y11005056D01*
X46219222Y11270186D01*
X46264958Y11420974D01*
X46143817Y11653000D01*
X44937000Y11653000D01*
X44683000Y11653000D01*
X42397000Y11653000D01*
X42143000Y11653000D01*
X39857000Y11653000D01*
X39603000Y11653000D01*
X37317000Y11653000D01*
X37063000Y11653000D01*
X34777000Y11653000D01*
X34523000Y11653000D01*
X32237000Y11653000D01*
X31983000Y11653000D01*
X29697000Y11653000D01*
X29443000Y11653000D01*
X27157000Y11653000D01*
X26903000Y11653000D01*
X24617000Y11653000D01*
X24363000Y11653000D01*
X22077000Y11653000D01*
X21823000Y11653000D01*
X19537000Y11653000D01*
X19283000Y11653000D01*
X16997000Y11653000D01*
X16743000Y11653000D01*
X14457000Y11653000D01*
X14203000Y11653000D01*
X11917000Y11653000D01*
X11663000Y11653000D01*
X10456183Y11653000D01*
X10335042Y11420974D01*
X6653128Y11420974D01*
X6662310Y11616817D01*
X6621322Y11888933D01*
X6528036Y12147823D01*
X6466056Y12263780D01*
X6225965Y12330760D01*
X5440005Y11544800D01*
X5080795Y11544800D01*
X4294835Y12330760D01*
X4054744Y12263780D01*
X3993321Y12133156D01*
X3988036Y12147823D01*
X3926056Y12263780D01*
X3685965Y12330760D01*
X2900005Y11544800D01*
X2540795Y11544800D01*
X1754835Y12330760D01*
X1530653Y12268218D01*
X1490950Y12726640D01*
X1485000Y13105349D01*
X1485000Y13119235D01*
X1934440Y13119235D01*
X2001420Y12879144D01*
X2132044Y12817721D01*
X2117377Y12812436D01*
X2001420Y12750456D01*
X1934440Y12510365D01*
X2720400Y11724405D01*
X3506360Y12510365D01*
X3439380Y12750456D01*
X3308756Y12811879D01*
X3323423Y12817164D01*
X3439380Y12879144D01*
X3506360Y13119235D01*
X4474440Y13119235D01*
X4541420Y12879144D01*
X4672044Y12817721D01*
X4657377Y12812436D01*
X4541420Y12750456D01*
X4474440Y12510365D01*
X5260400Y11724405D01*
X6046360Y12510365D01*
X5979380Y12750456D01*
X5848756Y12811879D01*
X5863423Y12817164D01*
X5979380Y12879144D01*
X6046360Y13119235D01*
X5260400Y13905195D01*
X4474440Y13119235D01*
X3506360Y13119235D01*
X2720400Y13905195D01*
X1934440Y13119235D01*
X1485000Y13119235D01*
X1485000Y13421467D01*
X1514744Y13365820D01*
X1754835Y13298840D01*
X2540795Y14084800D01*
X2900005Y14084800D01*
X3685965Y13298840D01*
X3926056Y13365820D01*
X3987479Y13496444D01*
X3992764Y13481777D01*
X4054744Y13365820D01*
X4294835Y13298840D01*
X5080795Y14084800D01*
X5440005Y14084800D01*
X6225965Y13298840D01*
X6466056Y13365820D01*
X6583156Y13614848D01*
X6649423Y13881935D01*
X6662310Y14156817D01*
X6621322Y14428933D01*
X6528036Y14687823D01*
X6466056Y14803780D01*
X6225965Y14870760D01*
X5440005Y14084800D01*
X5080795Y14084800D01*
X4294835Y14870760D01*
X4054744Y14803780D01*
X3993321Y14673156D01*
X3988036Y14687823D01*
X3926056Y14803780D01*
X3685965Y14870760D01*
X2900005Y14084800D01*
X2540795Y14084800D01*
X1754835Y14870760D01*
X1514744Y14803780D01*
X1485000Y14740526D01*
X1485000Y15959174D01*
X1635280Y15734265D01*
X1829865Y15539680D01*
X2058673Y15386795D01*
X2130343Y15357108D01*
X2117377Y15352436D01*
X2001420Y15290456D01*
X1934440Y15050365D01*
X2720400Y14264405D01*
X3506360Y15050365D01*
X3439380Y15290456D01*
X3303640Y15354285D01*
X3382127Y15386795D01*
X3610935Y15539680D01*
X3805520Y15734265D01*
X3958405Y15963073D01*
X3990400Y16040315D01*
X4022395Y15963073D01*
X4175280Y15734265D01*
X4369865Y15539680D01*
X4598673Y15386795D01*
X4670343Y15357108D01*
X4657377Y15352436D01*
X4541420Y15290456D01*
X4474440Y15050365D01*
X5260400Y14264405D01*
X6046360Y15050365D01*
X5979380Y15290456D01*
X5843640Y15354285D01*
X5922127Y15386795D01*
X6150935Y15539680D01*
X6345520Y15734265D01*
X6498405Y15963073D01*
X6603714Y16217310D01*
X6657400Y16487208D01*
X6657400Y16762392D01*
X6603714Y17032290D01*
X6498405Y17286527D01*
X6345520Y17515335D01*
X6150935Y17709920D01*
X5922127Y17862805D01*
X5844885Y17894800D01*
X5922127Y17926795D01*
X6150935Y18079680D01*
X6345520Y18274265D01*
X6498405Y18503073D01*
X6603714Y18757310D01*
X6657400Y19027208D01*
X6657400Y19302392D01*
X6603714Y19572290D01*
X6498405Y19826527D01*
X6345520Y20055335D01*
X6150935Y20249920D01*
X5922127Y20402805D01*
X5844885Y20434800D01*
X5922127Y20466795D01*
X6150935Y20619680D01*
X6345520Y20814265D01*
X6498405Y21043073D01*
X6603714Y21297310D01*
X6657400Y21567208D01*
X6657400Y21842392D01*
X6603714Y22112290D01*
X6498405Y22366527D01*
X6345520Y22595335D01*
X6150935Y22789920D01*
X5922127Y22942805D01*
X5844885Y22974800D01*
X5922127Y23006795D01*
X6150935Y23159680D01*
X6345520Y23354265D01*
X6498405Y23583073D01*
X6603714Y23837310D01*
X6657400Y24107208D01*
X6657400Y24151850D01*
X26880568Y24151850D01*
X26892828Y24027368D01*
X26929138Y23907670D01*
X26988103Y23797356D01*
X27067455Y23700665D01*
X27164146Y23621313D01*
X27274460Y23562348D01*
X27394158Y23526038D01*
X27518640Y23513778D01*
X27733270Y23516850D01*
X27892020Y23675600D01*
X27892020Y24424900D01*
X28146020Y24424900D01*
X28146020Y23675600D01*
X28304770Y23516850D01*
X28519400Y23513778D01*
X28643882Y23526038D01*
X28763580Y23562348D01*
X28873894Y23621313D01*
X28970585Y23700665D01*
X29049937Y23797356D01*
X29108902Y23907670D01*
X29145212Y24027368D01*
X29157472Y24151850D01*
X29154400Y24266150D01*
X28995650Y24424900D01*
X28146020Y24424900D01*
X27892020Y24424900D01*
X27042390Y24424900D01*
X26883640Y24266150D01*
X26880568Y24151850D01*
X6657400Y24151850D01*
X6657400Y24382392D01*
X6603714Y24652290D01*
X6498405Y24906527D01*
X6345520Y25135335D01*
X6150935Y25329920D01*
X5922127Y25482805D01*
X5844885Y25514800D01*
X5922127Y25546795D01*
X6150935Y25699680D01*
X6345520Y25894265D01*
X6498405Y26123073D01*
X6603714Y26377310D01*
X6657400Y26647208D01*
X6657400Y26922392D01*
X6603714Y27192290D01*
X6498405Y27446527D01*
X6345520Y27675335D01*
X6150935Y27869920D01*
X5922127Y28022805D01*
X5844885Y28054800D01*
X5922127Y28086795D01*
X6150935Y28239680D01*
X6345520Y28434265D01*
X6498405Y28663073D01*
X6603714Y28917310D01*
X6657400Y29187208D01*
X6657400Y29462392D01*
X6603714Y29732290D01*
X6498405Y29986527D01*
X6345520Y30215335D01*
X6150935Y30409920D01*
X5922127Y30562805D01*
X5844885Y30594800D01*
X5922127Y30626795D01*
X6150935Y30779680D01*
X6345520Y30974265D01*
X6498405Y31203073D01*
X6603714Y31457310D01*
X6657400Y31727208D01*
X6657400Y32002392D01*
X6603714Y32272290D01*
X6498405Y32526527D01*
X6345520Y32755335D01*
X6150935Y32949920D01*
X5922127Y33102805D01*
X5844885Y33134800D01*
X5922127Y33166795D01*
X6150935Y33319680D01*
X6345520Y33514265D01*
X6498405Y33743073D01*
X6603714Y33997310D01*
X6657400Y34267208D01*
X6657400Y34542392D01*
X6603714Y34812290D01*
X6498405Y35066527D01*
X6345520Y35295335D01*
X6150935Y35489920D01*
X5922127Y35642805D01*
X5844885Y35674800D01*
X5922127Y35706795D01*
X6150935Y35859680D01*
X6345520Y36054265D01*
X6498405Y36283073D01*
X6603714Y36537310D01*
X6657400Y36807208D01*
X6657400Y37082392D01*
X6603714Y37352290D01*
X6498405Y37606527D01*
X6414934Y37731450D01*
X9959200Y37731450D01*
X9971096Y37625803D01*
X10009874Y37506882D01*
X10071107Y37397811D01*
X10152442Y37302781D01*
X10250753Y37225445D01*
X10362263Y37168775D01*
X10482686Y37134948D01*
X10607395Y37125264D01*
X10758450Y37128200D01*
X10917200Y37286950D01*
X10917200Y37890200D01*
X11171200Y37890200D01*
X11171200Y37286950D01*
X11329950Y37128200D01*
X11481005Y37125264D01*
X11605714Y37134948D01*
X11726137Y37168775D01*
X11837647Y37225445D01*
X11935958Y37302781D01*
X12009400Y37388589D01*
X12082842Y37302781D01*
X12181153Y37225445D01*
X12292663Y37168775D01*
X12413086Y37134948D01*
X12537795Y37125264D01*
X12688850Y37128200D01*
X12847600Y37286950D01*
X12847600Y37890200D01*
X13101600Y37890200D01*
X13101600Y37286950D01*
X13260350Y37128200D01*
X13411405Y37125264D01*
X13536114Y37134948D01*
X13656537Y37168775D01*
X13768047Y37225445D01*
X13866358Y37302781D01*
X13947693Y37397811D01*
X14008926Y37506882D01*
X14047704Y37625803D01*
X14059600Y37731450D01*
X13900850Y37890200D01*
X13101600Y37890200D01*
X12847600Y37890200D01*
X12048350Y37890200D01*
X12009400Y37851250D01*
X11970450Y37890200D01*
X11171200Y37890200D01*
X10917200Y37890200D01*
X10117950Y37890200D01*
X9959200Y37731450D01*
X6414934Y37731450D01*
X6345520Y37835335D01*
X6150935Y38029920D01*
X5922127Y38182805D01*
X5844885Y38214800D01*
X5922127Y38246795D01*
X6150935Y38399680D01*
X6345520Y38594265D01*
X6498405Y38823073D01*
X6603714Y39077310D01*
X6657400Y39347208D01*
X6657400Y39622392D01*
X6603714Y39892290D01*
X6498405Y40146527D01*
X6345520Y40375335D01*
X6150935Y40569920D01*
X5922127Y40722805D01*
X5844885Y40754800D01*
X5922127Y40786795D01*
X6150935Y40939680D01*
X6345520Y41134265D01*
X6498405Y41363073D01*
X6507156Y41384200D01*
X8607528Y41384200D01*
X8619788Y41259718D01*
X8656098Y41140020D01*
X8715063Y41029706D01*
X8794415Y40933015D01*
X8891106Y40853663D01*
X9001420Y40794698D01*
X9121118Y40758388D01*
X9245600Y40746128D01*
X9259850Y40749200D01*
X9418600Y40907950D01*
X9418600Y42032200D01*
X8769350Y42032200D01*
X8610600Y41873450D01*
X8607528Y41384200D01*
X6507156Y41384200D01*
X6603714Y41617310D01*
X6657400Y41887208D01*
X6657400Y42162392D01*
X6603714Y42432290D01*
X6573638Y42504900D01*
X7957922Y42504900D01*
X7996200Y42501130D01*
X8034478Y42504900D01*
X8034489Y42504900D01*
X8149009Y42516179D01*
X8295945Y42560752D01*
X8431362Y42633134D01*
X8550056Y42730544D01*
X8574463Y42760284D01*
X8608407Y42794228D01*
X8610600Y42444950D01*
X8769350Y42286200D01*
X9418600Y42286200D01*
X9418600Y43410450D01*
X9321615Y43507435D01*
X10056724Y44242544D01*
X10053600Y44210826D01*
X10049914Y44173400D01*
X10053600Y44135976D01*
X10053600Y43534677D01*
X9970082Y43560012D01*
X9845600Y43572272D01*
X9831350Y43569200D01*
X9672600Y43410450D01*
X9672600Y42286200D01*
X9692600Y42286200D01*
X9692600Y42032200D01*
X9672600Y42032200D01*
X9672600Y40907950D01*
X9831350Y40749200D01*
X9845600Y40746128D01*
X9970082Y40758388D01*
X10089780Y40794698D01*
X10180600Y40843243D01*
X10271420Y40794698D01*
X10391118Y40758388D01*
X10515600Y40746128D01*
X11115600Y40746128D01*
X11195352Y40753983D01*
X10842642Y40401272D01*
X10594200Y40401272D01*
X10469718Y40389012D01*
X10350020Y40352702D01*
X10239706Y40293737D01*
X10143015Y40214385D01*
X10063663Y40117694D01*
X10004698Y40007380D01*
X9968388Y39887682D01*
X9956128Y39763200D01*
X9956128Y39263200D01*
X9968388Y39138718D01*
X10004698Y39019020D01*
X10063663Y38908706D01*
X10143015Y38812015D01*
X10202625Y38763095D01*
X10152442Y38723619D01*
X10071107Y38628589D01*
X10009874Y38519518D01*
X9971096Y38400597D01*
X9959200Y38294950D01*
X10117950Y38136200D01*
X10917200Y38136200D01*
X10917200Y38160200D01*
X11171200Y38160200D01*
X11171200Y38136200D01*
X11970450Y38136200D01*
X12009400Y38175150D01*
X12048350Y38136200D01*
X12847600Y38136200D01*
X12847600Y38160200D01*
X13101600Y38160200D01*
X13101600Y38136200D01*
X13900850Y38136200D01*
X14059600Y38294950D01*
X14047704Y38400597D01*
X14008926Y38519518D01*
X13947693Y38628589D01*
X13866358Y38723619D01*
X13816175Y38763095D01*
X13875785Y38812015D01*
X13955137Y38908706D01*
X14014102Y39019020D01*
X14050412Y39138718D01*
X14062672Y39263200D01*
X14062672Y39612568D01*
X14063002Y39613185D01*
X14106574Y39756822D01*
X14117600Y39868774D01*
X14117600Y39868776D01*
X14121286Y39906199D01*
X14117600Y39943622D01*
X14117600Y40946193D01*
X14186137Y41029706D01*
X14245102Y41140020D01*
X14268620Y41217549D01*
X14562328Y40923841D01*
X14562328Y40878600D01*
X14574588Y40754118D01*
X14610898Y40634420D01*
X14669863Y40524106D01*
X14749215Y40427415D01*
X14845906Y40348063D01*
X14956220Y40289098D01*
X15075918Y40252788D01*
X15200400Y40240528D01*
X15700400Y40240528D01*
X15824882Y40252788D01*
X15944580Y40289098D01*
X16054894Y40348063D01*
X16151585Y40427415D01*
X16200400Y40486896D01*
X16249215Y40427415D01*
X16345906Y40348063D01*
X16456220Y40289098D01*
X16575918Y40252788D01*
X16700400Y40240528D01*
X17200400Y40240528D01*
X17324882Y40252788D01*
X17444580Y40289098D01*
X17554894Y40348063D01*
X17651585Y40427415D01*
X17730937Y40524106D01*
X17789902Y40634420D01*
X17826212Y40754118D01*
X17838472Y40878600D01*
X17838472Y41778600D01*
X17826212Y41903082D01*
X17789902Y42022780D01*
X17747000Y42103043D01*
X17747000Y42354277D01*
X17764502Y42387020D01*
X17800812Y42506718D01*
X17813072Y42631200D01*
X17813072Y43531200D01*
X17800812Y43655682D01*
X17797800Y43665611D01*
X17797800Y44122389D01*
X17800812Y44132318D01*
X17813072Y44256800D01*
X17813072Y44437360D01*
X19539019Y46163306D01*
X19569928Y46188672D01*
X19623264Y46253663D01*
X19671149Y46312010D01*
X19734058Y46429706D01*
X19746363Y46452727D01*
X19792680Y46605412D01*
X19804400Y46724409D01*
X19804400Y46724412D01*
X19808319Y46764200D01*
X19804400Y46803988D01*
X19804400Y51956813D01*
X19808319Y51996601D01*
X19804400Y52036391D01*
X19792680Y52155388D01*
X19746363Y52308073D01*
X19671149Y52448789D01*
X19575778Y52565000D01*
X20014488Y52565000D01*
X27865001Y44714486D01*
%TA.AperFunction,Conductor*%
D23*
G36*
X27865001Y44714486D02*
G01*
X27865000Y31385513D01*
X27080383Y30600895D01*
X27049473Y30575528D01*
X26948251Y30452189D01*
X26908314Y30377472D01*
X26820506Y30330537D01*
X26723815Y30251185D01*
X26644463Y30154494D01*
X26585498Y30044180D01*
X26549188Y29924482D01*
X26536928Y29800000D01*
X26536928Y29300000D01*
X26549188Y29175518D01*
X26585498Y29055820D01*
X26644463Y28945506D01*
X26723815Y28848815D01*
X26783296Y28800000D01*
X26723815Y28751185D01*
X26644463Y28654494D01*
X26585498Y28544180D01*
X26549188Y28424482D01*
X26536928Y28300000D01*
X26536928Y27800000D01*
X26549188Y27675518D01*
X26585498Y27555820D01*
X26644463Y27445506D01*
X26723815Y27348815D01*
X26820506Y27269463D01*
X26863001Y27246749D01*
X26863001Y26888353D01*
X26859314Y26850920D01*
X26874027Y26701542D01*
X26880568Y26679979D01*
X26880568Y26266400D01*
X26844178Y26266400D01*
X26770945Y26355635D01*
X26674254Y26434987D01*
X26563940Y26493952D01*
X26444242Y26530262D01*
X26319760Y26542522D01*
X25319000Y26542522D01*
X25194518Y26530262D01*
X25074820Y26493952D01*
X24964506Y26434987D01*
X24867815Y26355635D01*
X24788463Y26258944D01*
X24729498Y26148630D01*
X24693188Y26028932D01*
X24680928Y25904450D01*
X24680928Y25104350D01*
X24693188Y24979868D01*
X24729498Y24860170D01*
X24788463Y24749856D01*
X24867815Y24653165D01*
X24964506Y24573813D01*
X25074820Y24514848D01*
X25194518Y24478538D01*
X25319000Y24466278D01*
X26319760Y24466278D01*
X26444242Y24478538D01*
X26563940Y24514848D01*
X26674254Y24573813D01*
X26770945Y24653165D01*
X26844178Y24742400D01*
X26978890Y24742400D01*
X27042390Y24678900D01*
X27892020Y24678900D01*
X27892020Y24698900D01*
X28146020Y24698900D01*
X28146020Y24678900D01*
X28995650Y24678900D01*
X29059150Y24742400D01*
X29603821Y24742400D01*
X29635923Y24732469D01*
X29638019Y24732251D01*
X29640043Y24731637D01*
X29712699Y24724481D01*
X29747812Y24720828D01*
X29749908Y24720816D01*
X29774707Y24718374D01*
X29789419Y24716925D01*
X29789420Y24716925D01*
X29824761Y24720406D01*
X30407754Y24717206D01*
X30447272Y24713314D01*
X30519950Y24720472D01*
X30592525Y24727218D01*
X30594550Y24727820D01*
X30596650Y24728027D01*
X30666445Y24749199D01*
X30736399Y24770001D01*
X30738267Y24770986D01*
X30740287Y24771599D01*
X30804661Y24806007D01*
X30869163Y24840030D01*
X30870801Y24841359D01*
X30872664Y24842355D01*
X30929062Y24888640D01*
X30985714Y24934615D01*
X31011070Y24965168D01*
X31173213Y25127311D01*
X31234091Y25053131D01*
X31435616Y24851606D01*
X31509797Y24790728D01*
X29505669Y22786600D01*
X19532023Y22786600D01*
X19494600Y22790286D01*
X19457177Y22786600D01*
X19457174Y22786600D01*
X19345222Y22775574D01*
X19201585Y22732002D01*
X19176407Y22718544D01*
X19069207Y22661245D01*
X19042398Y22639243D01*
X18953178Y22566022D01*
X18929321Y22536952D01*
X12165615Y15773245D01*
X11937599Y15818600D01*
X11642401Y15818600D01*
X11352875Y15761010D01*
X11080147Y15648042D01*
X10834698Y15484039D01*
X10625961Y15275302D01*
X10461958Y15029853D01*
X10348990Y14757125D01*
X10291400Y14467599D01*
X10291400Y14172401D01*
X10348990Y13882875D01*
X10461958Y13610147D01*
X10625961Y13364698D01*
X10834698Y13155961D01*
X11000103Y13045441D01*
X10901512Y12986817D01*
X10683146Y12790293D01*
X10507316Y12554944D01*
X10380778Y12289814D01*
X10335042Y12139026D01*
X10456183Y11907000D01*
X11663000Y11907000D01*
X11663000Y11927000D01*
X11917000Y11927000D01*
X11917000Y11907000D01*
X14203000Y11907000D01*
X14203000Y11927000D01*
X14457000Y11927000D01*
X14457000Y11907000D01*
X16743000Y11907000D01*
X16743000Y11927000D01*
X16997000Y11927000D01*
X16997000Y11907000D01*
X19283000Y11907000D01*
X19283000Y11927000D01*
X19537000Y11927000D01*
X19537000Y11907000D01*
X21823000Y11907000D01*
X21823000Y11927000D01*
X22077000Y11927000D01*
X22077000Y11907000D01*
X24363000Y11907000D01*
X24363000Y11927000D01*
X24617000Y11927000D01*
X24617000Y11907000D01*
X26903000Y11907000D01*
X26903000Y11927000D01*
X27157000Y11927000D01*
X27157000Y11907000D01*
X29443000Y11907000D01*
X29443000Y11927000D01*
X29697000Y11927000D01*
X29697000Y11907000D01*
X31983000Y11907000D01*
X31983000Y11927000D01*
X32237000Y11927000D01*
X32237000Y11907000D01*
X34523000Y11907000D01*
X34523000Y11927000D01*
X34777000Y11927000D01*
X34777000Y11907000D01*
X37063000Y11907000D01*
X37063000Y11927000D01*
X37317000Y11927000D01*
X37317000Y11907000D01*
X39603000Y11907000D01*
X39603000Y11927000D01*
X39857000Y11927000D01*
X39857000Y11907000D01*
X42143000Y11907000D01*
X42143000Y11927000D01*
X42397000Y11927000D01*
X42397000Y11907000D01*
X44683000Y11907000D01*
X44683000Y11927000D01*
X44937000Y11927000D01*
X44937000Y11907000D01*
X46143817Y11907000D01*
X46264958Y12139026D01*
X46219222Y12289814D01*
X46092684Y12554944D01*
X45916854Y12790293D01*
X45853426Y12847376D01*
X45917780Y12866898D01*
X46028094Y12925863D01*
X46124785Y13005215D01*
X46204137Y13101906D01*
X46263102Y13212220D01*
X46299412Y13331918D01*
X46311672Y13456400D01*
X46311672Y15086948D01*
X49605438Y11793182D01*
X49583400Y11682392D01*
X49583400Y11407208D01*
X49637086Y11137310D01*
X49742395Y10883073D01*
X49895280Y10654265D01*
X50089865Y10459680D01*
X50318673Y10306795D01*
X50572910Y10201486D01*
X50842808Y10147800D01*
X51117992Y10147800D01*
X51387890Y10201486D01*
X51642127Y10306795D01*
X51870935Y10459680D01*
X52065520Y10654265D01*
X52218405Y10883073D01*
X52250400Y10960315D01*
X52282395Y10883073D01*
X52435280Y10654265D01*
X52629865Y10459680D01*
X52858673Y10306795D01*
X53112910Y10201486D01*
X53382808Y10147800D01*
X53657992Y10147800D01*
X53927890Y10201486D01*
X54182127Y10306795D01*
X54410935Y10459680D01*
X54575987Y10624732D01*
X54418796Y9709936D01*
X54053478Y8456586D01*
X53548620Y7252637D01*
X52910722Y6113587D01*
X52147980Y5054072D01*
X51270195Y4087707D01*
X50288660Y3226923D01*
X49215993Y2482789D01*
X48065981Y1864864D01*
X46853414Y1381099D01*
X45593880Y1037711D01*
X44300590Y838654D01*
X43183561Y785000D01*
X13818834Y785000D01*
X12448736Y860402D01*
X11113792Y1082597D01*
X9811291Y1449940D01*
X8556965Y1957994D01*
X7365975Y2600618D01*
X6252682Y3370062D01*
X5230554Y4257020D01*
X4311925Y5250788D01*
X3507901Y6339349D01*
X2828177Y7509581D01*
X2280977Y8747323D01*
X1872903Y10037641D01*
X1780953Y10499901D01*
X1818031Y10462823D01*
X1934441Y10579233D01*
X2001420Y10339144D01*
X2250448Y10222044D01*
X2517535Y10155777D01*
X2792417Y10142890D01*
X3064533Y10183878D01*
X3323423Y10277164D01*
X3439380Y10339144D01*
X3506360Y10579235D01*
X4474440Y10579235D01*
X4541420Y10339144D01*
X4790448Y10222044D01*
X5057535Y10155777D01*
X5332417Y10142890D01*
X5604533Y10183878D01*
X5863423Y10277164D01*
X5979380Y10339144D01*
X6046360Y10579235D01*
X5260400Y11365195D01*
X4474440Y10579235D01*
X3506360Y10579235D01*
X2720400Y11365195D01*
X2706258Y11351052D01*
X2526653Y11530657D01*
X2540795Y11544800D01*
X2900005Y11544800D01*
X3685965Y10758840D01*
X3926056Y10825820D01*
X3987479Y10956444D01*
X3992764Y10941777D01*
X4054744Y10825820D01*
X4294835Y10758840D01*
X5080795Y11544800D01*
X5440005Y11544800D01*
X6225965Y10758840D01*
X6466056Y10825820D01*
X6583156Y11074848D01*
X6649423Y11341935D01*
X6653128Y11420974D01*
X10335042Y11420974D01*
X10380778Y11270186D01*
X10507316Y11005056D01*
X10683146Y10769707D01*
X10901512Y10573183D01*
X11154022Y10423036D01*
X11430973Y10325037D01*
X11663000Y10445536D01*
X11663000Y11653000D01*
X11917000Y11653000D01*
X11917000Y10445536D01*
X12149027Y10325037D01*
X12425978Y10423036D01*
X12678488Y10573183D01*
X12896854Y10769707D01*
X13060000Y10988078D01*
X13223146Y10769707D01*
X13441512Y10573183D01*
X13694022Y10423036D01*
X13970973Y10325037D01*
X14203000Y10445536D01*
X14203000Y11653000D01*
X14457000Y11653000D01*
X14457000Y10445536D01*
X14689027Y10325037D01*
X14965978Y10423036D01*
X15218488Y10573183D01*
X15436854Y10769707D01*
X15600000Y10988078D01*
X15763146Y10769707D01*
X15981512Y10573183D01*
X16234022Y10423036D01*
X16510973Y10325037D01*
X16743000Y10445536D01*
X16743000Y11653000D01*
X16997000Y11653000D01*
X16997000Y10445536D01*
X17229027Y10325037D01*
X17505978Y10423036D01*
X17758488Y10573183D01*
X17976854Y10769707D01*
X18140000Y10988078D01*
X18303146Y10769707D01*
X18521512Y10573183D01*
X18774022Y10423036D01*
X19050973Y10325037D01*
X19283000Y10445536D01*
X19283000Y11653000D01*
X19537000Y11653000D01*
X19537000Y10445536D01*
X19769027Y10325037D01*
X20045978Y10423036D01*
X20298488Y10573183D01*
X20516854Y10769707D01*
X20680000Y10988078D01*
X20843146Y10769707D01*
X21061512Y10573183D01*
X21314022Y10423036D01*
X21590973Y10325037D01*
X21823000Y10445536D01*
X21823000Y11653000D01*
X22077000Y11653000D01*
X22077000Y10445536D01*
X22309027Y10325037D01*
X22585978Y10423036D01*
X22838488Y10573183D01*
X23056854Y10769707D01*
X23220000Y10988078D01*
X23383146Y10769707D01*
X23601512Y10573183D01*
X23854022Y10423036D01*
X24130973Y10325037D01*
X24363000Y10445536D01*
X24363000Y11653000D01*
X24617000Y11653000D01*
X24617000Y10445536D01*
X24849027Y10325037D01*
X25125978Y10423036D01*
X25378488Y10573183D01*
X25596854Y10769707D01*
X25760000Y10988078D01*
X25923146Y10769707D01*
X26141512Y10573183D01*
X26394022Y10423036D01*
X26670973Y10325037D01*
X26903000Y10445536D01*
X26903000Y11653000D01*
X27157000Y11653000D01*
X27157000Y10445536D01*
X27389027Y10325037D01*
X27665978Y10423036D01*
X27918488Y10573183D01*
X28136854Y10769707D01*
X28300000Y10988078D01*
X28463146Y10769707D01*
X28681512Y10573183D01*
X28934022Y10423036D01*
X29210973Y10325037D01*
X29443000Y10445536D01*
X29443000Y11653000D01*
X29697000Y11653000D01*
X29697000Y10445536D01*
X29929027Y10325037D01*
X30205978Y10423036D01*
X30458488Y10573183D01*
X30676854Y10769707D01*
X30840000Y10988078D01*
X31003146Y10769707D01*
X31221512Y10573183D01*
X31474022Y10423036D01*
X31750973Y10325037D01*
X31983000Y10445536D01*
X31983000Y11653000D01*
X32237000Y11653000D01*
X32237000Y10445536D01*
X32469027Y10325037D01*
X32745978Y10423036D01*
X32998488Y10573183D01*
X33216854Y10769707D01*
X33380000Y10988078D01*
X33543146Y10769707D01*
X33761512Y10573183D01*
X34014022Y10423036D01*
X34290973Y10325037D01*
X34523000Y10445536D01*
X34523000Y11653000D01*
X34777000Y11653000D01*
X34777000Y10445536D01*
X35009027Y10325037D01*
X35285978Y10423036D01*
X35538488Y10573183D01*
X35756854Y10769707D01*
X35920000Y10988078D01*
X36083146Y10769707D01*
X36301512Y10573183D01*
X36554022Y10423036D01*
X36830973Y10325037D01*
X37063000Y10445536D01*
X37063000Y11653000D01*
X37317000Y11653000D01*
X37317000Y10445536D01*
X37549027Y10325037D01*
X37825978Y10423036D01*
X38078488Y10573183D01*
X38296854Y10769707D01*
X38460000Y10988078D01*
X38623146Y10769707D01*
X38841512Y10573183D01*
X39094022Y10423036D01*
X39370973Y10325037D01*
X39603000Y10445536D01*
X39603000Y11653000D01*
X39857000Y11653000D01*
X39857000Y10445536D01*
X40089027Y10325037D01*
X40365978Y10423036D01*
X40618488Y10573183D01*
X40836854Y10769707D01*
X41000000Y10988078D01*
X41163146Y10769707D01*
X41381512Y10573183D01*
X41634022Y10423036D01*
X41910973Y10325037D01*
X42143000Y10445536D01*
X42143000Y11653000D01*
X42397000Y11653000D01*
X42397000Y10445536D01*
X42629027Y10325037D01*
X42905978Y10423036D01*
X43158488Y10573183D01*
X43376854Y10769707D01*
X43540000Y10988078D01*
X43703146Y10769707D01*
X43921512Y10573183D01*
X44174022Y10423036D01*
X44450973Y10325037D01*
X44683000Y10445536D01*
X44683000Y11653000D01*
X44937000Y11653000D01*
X44937000Y10445536D01*
X45169027Y10325037D01*
X45445978Y10423036D01*
X45698488Y10573183D01*
X45916854Y10769707D01*
X46092684Y11005056D01*
X46219222Y11270186D01*
X46264958Y11420974D01*
X46143817Y11653000D01*
X44937000Y11653000D01*
X44683000Y11653000D01*
X42397000Y11653000D01*
X42143000Y11653000D01*
X39857000Y11653000D01*
X39603000Y11653000D01*
X37317000Y11653000D01*
X37063000Y11653000D01*
X34777000Y11653000D01*
X34523000Y11653000D01*
X32237000Y11653000D01*
X31983000Y11653000D01*
X29697000Y11653000D01*
X29443000Y11653000D01*
X27157000Y11653000D01*
X26903000Y11653000D01*
X24617000Y11653000D01*
X24363000Y11653000D01*
X22077000Y11653000D01*
X21823000Y11653000D01*
X19537000Y11653000D01*
X19283000Y11653000D01*
X16997000Y11653000D01*
X16743000Y11653000D01*
X14457000Y11653000D01*
X14203000Y11653000D01*
X11917000Y11653000D01*
X11663000Y11653000D01*
X10456183Y11653000D01*
X10335042Y11420974D01*
X6653128Y11420974D01*
X6662310Y11616817D01*
X6621322Y11888933D01*
X6528036Y12147823D01*
X6466056Y12263780D01*
X6225965Y12330760D01*
X5440005Y11544800D01*
X5080795Y11544800D01*
X4294835Y12330760D01*
X4054744Y12263780D01*
X3993321Y12133156D01*
X3988036Y12147823D01*
X3926056Y12263780D01*
X3685965Y12330760D01*
X2900005Y11544800D01*
X2540795Y11544800D01*
X1754835Y12330760D01*
X1530653Y12268218D01*
X1490950Y12726640D01*
X1485000Y13105349D01*
X1485000Y13119235D01*
X1934440Y13119235D01*
X2001420Y12879144D01*
X2132044Y12817721D01*
X2117377Y12812436D01*
X2001420Y12750456D01*
X1934440Y12510365D01*
X2720400Y11724405D01*
X3506360Y12510365D01*
X3439380Y12750456D01*
X3308756Y12811879D01*
X3323423Y12817164D01*
X3439380Y12879144D01*
X3506360Y13119235D01*
X4474440Y13119235D01*
X4541420Y12879144D01*
X4672044Y12817721D01*
X4657377Y12812436D01*
X4541420Y12750456D01*
X4474440Y12510365D01*
X5260400Y11724405D01*
X6046360Y12510365D01*
X5979380Y12750456D01*
X5848756Y12811879D01*
X5863423Y12817164D01*
X5979380Y12879144D01*
X6046360Y13119235D01*
X5260400Y13905195D01*
X4474440Y13119235D01*
X3506360Y13119235D01*
X2720400Y13905195D01*
X1934440Y13119235D01*
X1485000Y13119235D01*
X1485000Y13421467D01*
X1514744Y13365820D01*
X1754835Y13298840D01*
X2540795Y14084800D01*
X2900005Y14084800D01*
X3685965Y13298840D01*
X3926056Y13365820D01*
X3987479Y13496444D01*
X3992764Y13481777D01*
X4054744Y13365820D01*
X4294835Y13298840D01*
X5080795Y14084800D01*
X5440005Y14084800D01*
X6225965Y13298840D01*
X6466056Y13365820D01*
X6583156Y13614848D01*
X6649423Y13881935D01*
X6662310Y14156817D01*
X6621322Y14428933D01*
X6528036Y14687823D01*
X6466056Y14803780D01*
X6225965Y14870760D01*
X5440005Y14084800D01*
X5080795Y14084800D01*
X4294835Y14870760D01*
X4054744Y14803780D01*
X3993321Y14673156D01*
X3988036Y14687823D01*
X3926056Y14803780D01*
X3685965Y14870760D01*
X2900005Y14084800D01*
X2540795Y14084800D01*
X1754835Y14870760D01*
X1514744Y14803780D01*
X1485000Y14740526D01*
X1485000Y15959174D01*
X1635280Y15734265D01*
X1829865Y15539680D01*
X2058673Y15386795D01*
X2130343Y15357108D01*
X2117377Y15352436D01*
X2001420Y15290456D01*
X1934440Y15050365D01*
X2720400Y14264405D01*
X3506360Y15050365D01*
X3439380Y15290456D01*
X3303640Y15354285D01*
X3382127Y15386795D01*
X3610935Y15539680D01*
X3805520Y15734265D01*
X3958405Y15963073D01*
X3990400Y16040315D01*
X4022395Y15963073D01*
X4175280Y15734265D01*
X4369865Y15539680D01*
X4598673Y15386795D01*
X4670343Y15357108D01*
X4657377Y15352436D01*
X4541420Y15290456D01*
X4474440Y15050365D01*
X5260400Y14264405D01*
X6046360Y15050365D01*
X5979380Y15290456D01*
X5843640Y15354285D01*
X5922127Y15386795D01*
X6150935Y15539680D01*
X6345520Y15734265D01*
X6498405Y15963073D01*
X6603714Y16217310D01*
X6657400Y16487208D01*
X6657400Y16762392D01*
X6603714Y17032290D01*
X6498405Y17286527D01*
X6345520Y17515335D01*
X6150935Y17709920D01*
X5922127Y17862805D01*
X5844885Y17894800D01*
X5922127Y17926795D01*
X6150935Y18079680D01*
X6345520Y18274265D01*
X6498405Y18503073D01*
X6603714Y18757310D01*
X6657400Y19027208D01*
X6657400Y19302392D01*
X6603714Y19572290D01*
X6498405Y19826527D01*
X6345520Y20055335D01*
X6150935Y20249920D01*
X5922127Y20402805D01*
X5844885Y20434800D01*
X5922127Y20466795D01*
X6150935Y20619680D01*
X6345520Y20814265D01*
X6498405Y21043073D01*
X6603714Y21297310D01*
X6657400Y21567208D01*
X6657400Y21842392D01*
X6603714Y22112290D01*
X6498405Y22366527D01*
X6345520Y22595335D01*
X6150935Y22789920D01*
X5922127Y22942805D01*
X5844885Y22974800D01*
X5922127Y23006795D01*
X6150935Y23159680D01*
X6345520Y23354265D01*
X6498405Y23583073D01*
X6603714Y23837310D01*
X6657400Y24107208D01*
X6657400Y24151850D01*
X26880568Y24151850D01*
X26892828Y24027368D01*
X26929138Y23907670D01*
X26988103Y23797356D01*
X27067455Y23700665D01*
X27164146Y23621313D01*
X27274460Y23562348D01*
X27394158Y23526038D01*
X27518640Y23513778D01*
X27733270Y23516850D01*
X27892020Y23675600D01*
X27892020Y24424900D01*
X28146020Y24424900D01*
X28146020Y23675600D01*
X28304770Y23516850D01*
X28519400Y23513778D01*
X28643882Y23526038D01*
X28763580Y23562348D01*
X28873894Y23621313D01*
X28970585Y23700665D01*
X29049937Y23797356D01*
X29108902Y23907670D01*
X29145212Y24027368D01*
X29157472Y24151850D01*
X29154400Y24266150D01*
X28995650Y24424900D01*
X28146020Y24424900D01*
X27892020Y24424900D01*
X27042390Y24424900D01*
X26883640Y24266150D01*
X26880568Y24151850D01*
X6657400Y24151850D01*
X6657400Y24382392D01*
X6603714Y24652290D01*
X6498405Y24906527D01*
X6345520Y25135335D01*
X6150935Y25329920D01*
X5922127Y25482805D01*
X5844885Y25514800D01*
X5922127Y25546795D01*
X6150935Y25699680D01*
X6345520Y25894265D01*
X6498405Y26123073D01*
X6603714Y26377310D01*
X6657400Y26647208D01*
X6657400Y26922392D01*
X6603714Y27192290D01*
X6498405Y27446527D01*
X6345520Y27675335D01*
X6150935Y27869920D01*
X5922127Y28022805D01*
X5844885Y28054800D01*
X5922127Y28086795D01*
X6150935Y28239680D01*
X6345520Y28434265D01*
X6498405Y28663073D01*
X6603714Y28917310D01*
X6657400Y29187208D01*
X6657400Y29462392D01*
X6603714Y29732290D01*
X6498405Y29986527D01*
X6345520Y30215335D01*
X6150935Y30409920D01*
X5922127Y30562805D01*
X5844885Y30594800D01*
X5922127Y30626795D01*
X6150935Y30779680D01*
X6345520Y30974265D01*
X6498405Y31203073D01*
X6603714Y31457310D01*
X6657400Y31727208D01*
X6657400Y32002392D01*
X6603714Y32272290D01*
X6498405Y32526527D01*
X6345520Y32755335D01*
X6150935Y32949920D01*
X5922127Y33102805D01*
X5844885Y33134800D01*
X5922127Y33166795D01*
X6150935Y33319680D01*
X6345520Y33514265D01*
X6498405Y33743073D01*
X6603714Y33997310D01*
X6657400Y34267208D01*
X6657400Y34542392D01*
X6603714Y34812290D01*
X6498405Y35066527D01*
X6345520Y35295335D01*
X6150935Y35489920D01*
X5922127Y35642805D01*
X5844885Y35674800D01*
X5922127Y35706795D01*
X6150935Y35859680D01*
X6345520Y36054265D01*
X6498405Y36283073D01*
X6603714Y36537310D01*
X6657400Y36807208D01*
X6657400Y37082392D01*
X6603714Y37352290D01*
X6498405Y37606527D01*
X6414934Y37731450D01*
X9959200Y37731450D01*
X9971096Y37625803D01*
X10009874Y37506882D01*
X10071107Y37397811D01*
X10152442Y37302781D01*
X10250753Y37225445D01*
X10362263Y37168775D01*
X10482686Y37134948D01*
X10607395Y37125264D01*
X10758450Y37128200D01*
X10917200Y37286950D01*
X10917200Y37890200D01*
X11171200Y37890200D01*
X11171200Y37286950D01*
X11329950Y37128200D01*
X11481005Y37125264D01*
X11605714Y37134948D01*
X11726137Y37168775D01*
X11837647Y37225445D01*
X11935958Y37302781D01*
X12009400Y37388589D01*
X12082842Y37302781D01*
X12181153Y37225445D01*
X12292663Y37168775D01*
X12413086Y37134948D01*
X12537795Y37125264D01*
X12688850Y37128200D01*
X12847600Y37286950D01*
X12847600Y37890200D01*
X13101600Y37890200D01*
X13101600Y37286950D01*
X13260350Y37128200D01*
X13411405Y37125264D01*
X13536114Y37134948D01*
X13656537Y37168775D01*
X13768047Y37225445D01*
X13866358Y37302781D01*
X13947693Y37397811D01*
X14008926Y37506882D01*
X14047704Y37625803D01*
X14059600Y37731450D01*
X13900850Y37890200D01*
X13101600Y37890200D01*
X12847600Y37890200D01*
X12048350Y37890200D01*
X12009400Y37851250D01*
X11970450Y37890200D01*
X11171200Y37890200D01*
X10917200Y37890200D01*
X10117950Y37890200D01*
X9959200Y37731450D01*
X6414934Y37731450D01*
X6345520Y37835335D01*
X6150935Y38029920D01*
X5922127Y38182805D01*
X5844885Y38214800D01*
X5922127Y38246795D01*
X6150935Y38399680D01*
X6345520Y38594265D01*
X6498405Y38823073D01*
X6603714Y39077310D01*
X6657400Y39347208D01*
X6657400Y39622392D01*
X6603714Y39892290D01*
X6498405Y40146527D01*
X6345520Y40375335D01*
X6150935Y40569920D01*
X5922127Y40722805D01*
X5844885Y40754800D01*
X5922127Y40786795D01*
X6150935Y40939680D01*
X6345520Y41134265D01*
X6498405Y41363073D01*
X6507156Y41384200D01*
X8607528Y41384200D01*
X8619788Y41259718D01*
X8656098Y41140020D01*
X8715063Y41029706D01*
X8794415Y40933015D01*
X8891106Y40853663D01*
X9001420Y40794698D01*
X9121118Y40758388D01*
X9245600Y40746128D01*
X9259850Y40749200D01*
X9418600Y40907950D01*
X9418600Y42032200D01*
X8769350Y42032200D01*
X8610600Y41873450D01*
X8607528Y41384200D01*
X6507156Y41384200D01*
X6603714Y41617310D01*
X6657400Y41887208D01*
X6657400Y42162392D01*
X6603714Y42432290D01*
X6573638Y42504900D01*
X7957922Y42504900D01*
X7996200Y42501130D01*
X8034478Y42504900D01*
X8034489Y42504900D01*
X8149009Y42516179D01*
X8295945Y42560752D01*
X8431362Y42633134D01*
X8550056Y42730544D01*
X8574463Y42760284D01*
X8608407Y42794228D01*
X8610600Y42444950D01*
X8769350Y42286200D01*
X9418600Y42286200D01*
X9418600Y43410450D01*
X9321615Y43507435D01*
X10056724Y44242544D01*
X10053600Y44210826D01*
X10049914Y44173400D01*
X10053600Y44135976D01*
X10053600Y43534677D01*
X9970082Y43560012D01*
X9845600Y43572272D01*
X9831350Y43569200D01*
X9672600Y43410450D01*
X9672600Y42286200D01*
X9692600Y42286200D01*
X9692600Y42032200D01*
X9672600Y42032200D01*
X9672600Y40907950D01*
X9831350Y40749200D01*
X9845600Y40746128D01*
X9970082Y40758388D01*
X10089780Y40794698D01*
X10180600Y40843243D01*
X10271420Y40794698D01*
X10391118Y40758388D01*
X10515600Y40746128D01*
X11115600Y40746128D01*
X11195352Y40753983D01*
X10842642Y40401272D01*
X10594200Y40401272D01*
X10469718Y40389012D01*
X10350020Y40352702D01*
X10239706Y40293737D01*
X10143015Y40214385D01*
X10063663Y40117694D01*
X10004698Y40007380D01*
X9968388Y39887682D01*
X9956128Y39763200D01*
X9956128Y39263200D01*
X9968388Y39138718D01*
X10004698Y39019020D01*
X10063663Y38908706D01*
X10143015Y38812015D01*
X10202625Y38763095D01*
X10152442Y38723619D01*
X10071107Y38628589D01*
X10009874Y38519518D01*
X9971096Y38400597D01*
X9959200Y38294950D01*
X10117950Y38136200D01*
X10917200Y38136200D01*
X10917200Y38160200D01*
X11171200Y38160200D01*
X11171200Y38136200D01*
X11970450Y38136200D01*
X12009400Y38175150D01*
X12048350Y38136200D01*
X12847600Y38136200D01*
X12847600Y38160200D01*
X13101600Y38160200D01*
X13101600Y38136200D01*
X13900850Y38136200D01*
X14059600Y38294950D01*
X14047704Y38400597D01*
X14008926Y38519518D01*
X13947693Y38628589D01*
X13866358Y38723619D01*
X13816175Y38763095D01*
X13875785Y38812015D01*
X13955137Y38908706D01*
X14014102Y39019020D01*
X14050412Y39138718D01*
X14062672Y39263200D01*
X14062672Y39612568D01*
X14063002Y39613185D01*
X14106574Y39756822D01*
X14117600Y39868774D01*
X14117600Y39868776D01*
X14121286Y39906199D01*
X14117600Y39943622D01*
X14117600Y40946193D01*
X14186137Y41029706D01*
X14245102Y41140020D01*
X14268620Y41217549D01*
X14562328Y40923841D01*
X14562328Y40878600D01*
X14574588Y40754118D01*
X14610898Y40634420D01*
X14669863Y40524106D01*
X14749215Y40427415D01*
X14845906Y40348063D01*
X14956220Y40289098D01*
X15075918Y40252788D01*
X15200400Y40240528D01*
X15700400Y40240528D01*
X15824882Y40252788D01*
X15944580Y40289098D01*
X16054894Y40348063D01*
X16151585Y40427415D01*
X16200400Y40486896D01*
X16249215Y40427415D01*
X16345906Y40348063D01*
X16456220Y40289098D01*
X16575918Y40252788D01*
X16700400Y40240528D01*
X17200400Y40240528D01*
X17324882Y40252788D01*
X17444580Y40289098D01*
X17554894Y40348063D01*
X17651585Y40427415D01*
X17730937Y40524106D01*
X17789902Y40634420D01*
X17826212Y40754118D01*
X17838472Y40878600D01*
X17838472Y41778600D01*
X17826212Y41903082D01*
X17789902Y42022780D01*
X17747000Y42103043D01*
X17747000Y42354277D01*
X17764502Y42387020D01*
X17800812Y42506718D01*
X17813072Y42631200D01*
X17813072Y43531200D01*
X17800812Y43655682D01*
X17797800Y43665611D01*
X17797800Y44122389D01*
X17800812Y44132318D01*
X17813072Y44256800D01*
X17813072Y44437360D01*
X19539019Y46163306D01*
X19569928Y46188672D01*
X19623264Y46253663D01*
X19671149Y46312010D01*
X19734058Y46429706D01*
X19746363Y46452727D01*
X19792680Y46605412D01*
X19804400Y46724409D01*
X19804400Y46724412D01*
X19808319Y46764200D01*
X19804400Y46803988D01*
X19804400Y51956813D01*
X19808319Y51996601D01*
X19804400Y52036391D01*
X19792680Y52155388D01*
X19746363Y52308073D01*
X19671149Y52448789D01*
X19575778Y52565000D01*
X20014488Y52565000D01*
X27865001Y44714486D01*
G37*
%TD.AperFunction*%
D21*
X32713418Y30258812D02*
X32696447Y30241842D01*
X33261602Y29676686D01*
X33486108Y29676686D01*
X33552400Y29759802D01*
X33609070Y29871312D01*
X33642896Y29991735D01*
X33652053Y30109657D01*
X34136088Y29625622D01*
X34163355Y29574608D01*
X34189282Y29543016D01*
X34258578Y29458578D01*
X34287656Y29434714D01*
X34299180Y29423191D01*
X34323044Y29394112D01*
X34439074Y29298889D01*
X34490089Y29271621D01*
X36424060Y27337649D01*
X36447918Y27308578D01*
X36476994Y27284716D01*
X40348934Y23412775D01*
X40372792Y23383704D01*
X40401861Y23359848D01*
X40401862Y23359847D01*
X40401868Y23359842D01*
X42374056Y21387654D01*
X42397918Y21358578D01*
X42464020Y21304330D01*
X42513947Y21263355D01*
X42584704Y21225535D01*
X42646325Y21192598D01*
X42789962Y21149026D01*
X42901914Y21138000D01*
X42901917Y21138000D01*
X42939340Y21134314D01*
X42976763Y21138000D01*
X43094305Y21138000D01*
X43131728Y21134314D01*
X43169151Y21138000D01*
X43169154Y21138000D01*
X43281106Y21149026D01*
X43424743Y21192598D01*
X43557120Y21263355D01*
X43673150Y21358578D01*
X43697012Y21387654D01*
X44950043Y22640684D01*
X44969217Y22650933D01*
X45065908Y22730285D01*
X45375873Y23040250D01*
X45375874Y16375810D01*
X45372187Y16338377D01*
X45386900Y16188999D01*
X45430472Y16045362D01*
X45501228Y15912985D01*
X45565450Y15834731D01*
X45576167Y15821672D01*
X44385959Y15821672D01*
X43395284Y16812346D01*
X43371422Y16841422D01*
X43255392Y16936645D01*
X43123015Y17007402D01*
X42979378Y17050974D01*
X42867426Y17062000D01*
X42867423Y17062000D01*
X42830000Y17065686D01*
X42792577Y17062000D01*
X41042888Y17062000D01*
X41122877Y17181712D01*
X41201380Y17371235D01*
X41241400Y17572431D01*
X41241400Y17777569D01*
X41201380Y17978765D01*
X41122877Y18168288D01*
X41008908Y18338854D01*
X40863854Y18483908D01*
X40693288Y18597877D01*
X40653748Y18614255D01*
X40644342Y18709759D01*
X40608032Y18829457D01*
X40549067Y18939771D01*
X40469715Y19036462D01*
X40268190Y19237987D01*
X40184686Y19306517D01*
X40116161Y19390015D01*
X39914636Y19591540D01*
X39831135Y19660067D01*
X39762608Y19743568D01*
X39561083Y19945093D01*
X39474064Y20016508D01*
X39429333Y20072499D01*
X39374491Y20072499D01*
X39354078Y20083410D01*
X39234380Y20119720D01*
X39230509Y20120101D01*
X39230128Y20123972D01*
X39193818Y20243670D01*
X39182906Y20264085D01*
X39182906Y20318926D01*
X39126915Y20363656D01*
X39055501Y20450675D01*
X38853976Y20652200D01*
X38779796Y20713078D01*
X39435603Y21368885D01*
X41686864Y19117623D01*
X41644158Y19065585D01*
X41585193Y18955271D01*
X41548883Y18835573D01*
X41536623Y18711091D01*
X41548883Y18586609D01*
X41585193Y18466911D01*
X41644158Y18356597D01*
X41723510Y18259906D01*
X42359906Y17623510D01*
X42456597Y17544158D01*
X42566911Y17485193D01*
X42686609Y17448883D01*
X42811091Y17436623D01*
X42935573Y17448883D01*
X43055271Y17485193D01*
X43165585Y17544158D01*
X43262276Y17623510D01*
X43615830Y17977064D01*
X43695182Y18073755D01*
X43754147Y18184069D01*
X43790457Y18303767D01*
X43802717Y18428249D01*
X43795159Y18504990D01*
X43858556Y18497420D01*
X43983265Y18507104D01*
X44103688Y18540930D01*
X44215198Y18597600D01*
X44298314Y18663892D01*
X44298314Y18888398D01*
X43733158Y19453553D01*
X43716188Y19436582D01*
X43536583Y19616187D01*
X43547897Y19627502D01*
X43907107Y19627502D01*
X44472262Y19062346D01*
X44696768Y19062346D01*
X44763060Y19145462D01*
X44819730Y19256972D01*
X44853556Y19377395D01*
X44863240Y19502104D01*
X44848409Y19626305D01*
X44809631Y19745226D01*
X44748398Y19854298D01*
X44667063Y19949328D01*
X44558175Y20054064D01*
X44333669Y20054064D01*
X43907107Y19627502D01*
X43547897Y19627502D01*
X43553553Y19633158D01*
X42988398Y20198314D01*
X42897199Y20198314D01*
X42498745Y20596768D01*
X43162346Y20596768D01*
X43162346Y20372262D01*
X43727502Y19807107D01*
X44154064Y20233669D01*
X44154064Y20458175D01*
X44049328Y20567063D01*
X43954298Y20648398D01*
X43845226Y20709631D01*
X43726305Y20748409D01*
X43602104Y20763240D01*
X43477395Y20753556D01*
X43356972Y20719730D01*
X43245462Y20663060D01*
X43162346Y20596768D01*
X42498745Y20596768D01*
X40070441Y23025071D01*
X40070437Y23025076D01*
X36125077Y26970435D01*
X34225898Y28869613D01*
X34200527Y28900528D01*
X34077188Y29001749D01*
X33936472Y29076963D01*
X33783787Y29123280D01*
X33664790Y29135000D01*
X33664787Y29135000D01*
X33624999Y29138919D01*
X33585211Y29135000D01*
X32860513Y29135000D01*
X32851818Y29143694D01*
X32893028Y29155270D01*
X33004538Y29211940D01*
X33087654Y29278232D01*
X33087654Y29502738D01*
X32522498Y30067893D01*
X32505528Y30050922D01*
X32325923Y30230527D01*
X32342893Y30247498D01*
X32328751Y30261640D01*
X32502700Y30435589D01*
X32516842Y30421447D01*
X32533813Y30438417D01*
X32713418Y30258812D01*
%TA.AperFunction,Conductor*%
D23*
G36*
X32713418Y30258812D02*
G01*
X32696447Y30241842D01*
X33261602Y29676686D01*
X33486108Y29676686D01*
X33552400Y29759802D01*
X33609070Y29871312D01*
X33642896Y29991735D01*
X33652053Y30109657D01*
X34136088Y29625622D01*
X34163355Y29574608D01*
X34189282Y29543016D01*
X34258578Y29458578D01*
X34287656Y29434714D01*
X34299180Y29423191D01*
X34323044Y29394112D01*
X34439074Y29298889D01*
X34490089Y29271621D01*
X36424060Y27337649D01*
X36447918Y27308578D01*
X36476994Y27284716D01*
X40348934Y23412775D01*
X40372792Y23383704D01*
X40401861Y23359848D01*
X40401862Y23359847D01*
X40401868Y23359842D01*
X42374056Y21387654D01*
X42397918Y21358578D01*
X42464020Y21304330D01*
X42513947Y21263355D01*
X42584704Y21225535D01*
X42646325Y21192598D01*
X42789962Y21149026D01*
X42901914Y21138000D01*
X42901917Y21138000D01*
X42939340Y21134314D01*
X42976763Y21138000D01*
X43094305Y21138000D01*
X43131728Y21134314D01*
X43169151Y21138000D01*
X43169154Y21138000D01*
X43281106Y21149026D01*
X43424743Y21192598D01*
X43557120Y21263355D01*
X43673150Y21358578D01*
X43697012Y21387654D01*
X44950043Y22640684D01*
X44969217Y22650933D01*
X45065908Y22730285D01*
X45375873Y23040250D01*
X45375874Y16375810D01*
X45372187Y16338377D01*
X45386900Y16188999D01*
X45430472Y16045362D01*
X45501228Y15912985D01*
X45565450Y15834731D01*
X45576167Y15821672D01*
X44385959Y15821672D01*
X43395284Y16812346D01*
X43371422Y16841422D01*
X43255392Y16936645D01*
X43123015Y17007402D01*
X42979378Y17050974D01*
X42867426Y17062000D01*
X42867423Y17062000D01*
X42830000Y17065686D01*
X42792577Y17062000D01*
X41042888Y17062000D01*
X41122877Y17181712D01*
X41201380Y17371235D01*
X41241400Y17572431D01*
X41241400Y17777569D01*
X41201380Y17978765D01*
X41122877Y18168288D01*
X41008908Y18338854D01*
X40863854Y18483908D01*
X40693288Y18597877D01*
X40653748Y18614255D01*
X40644342Y18709759D01*
X40608032Y18829457D01*
X40549067Y18939771D01*
X40469715Y19036462D01*
X40268190Y19237987D01*
X40184686Y19306517D01*
X40116161Y19390015D01*
X39914636Y19591540D01*
X39831135Y19660067D01*
X39762608Y19743568D01*
X39561083Y19945093D01*
X39474064Y20016508D01*
X39429333Y20072499D01*
X39374491Y20072499D01*
X39354078Y20083410D01*
X39234380Y20119720D01*
X39230509Y20120101D01*
X39230128Y20123972D01*
X39193818Y20243670D01*
X39182906Y20264085D01*
X39182906Y20318926D01*
X39126915Y20363656D01*
X39055501Y20450675D01*
X38853976Y20652200D01*
X38779796Y20713078D01*
X39435603Y21368885D01*
X41686864Y19117623D01*
X41644158Y19065585D01*
X41585193Y18955271D01*
X41548883Y18835573D01*
X41536623Y18711091D01*
X41548883Y18586609D01*
X41585193Y18466911D01*
X41644158Y18356597D01*
X41723510Y18259906D01*
X42359906Y17623510D01*
X42456597Y17544158D01*
X42566911Y17485193D01*
X42686609Y17448883D01*
X42811091Y17436623D01*
X42935573Y17448883D01*
X43055271Y17485193D01*
X43165585Y17544158D01*
X43262276Y17623510D01*
X43615830Y17977064D01*
X43695182Y18073755D01*
X43754147Y18184069D01*
X43790457Y18303767D01*
X43802717Y18428249D01*
X43795159Y18504990D01*
X43858556Y18497420D01*
X43983265Y18507104D01*
X44103688Y18540930D01*
X44215198Y18597600D01*
X44298314Y18663892D01*
X44298314Y18888398D01*
X43733158Y19453553D01*
X43716188Y19436582D01*
X43536583Y19616187D01*
X43547897Y19627502D01*
X43907107Y19627502D01*
X44472262Y19062346D01*
X44696768Y19062346D01*
X44763060Y19145462D01*
X44819730Y19256972D01*
X44853556Y19377395D01*
X44863240Y19502104D01*
X44848409Y19626305D01*
X44809631Y19745226D01*
X44748398Y19854298D01*
X44667063Y19949328D01*
X44558175Y20054064D01*
X44333669Y20054064D01*
X43907107Y19627502D01*
X43547897Y19627502D01*
X43553553Y19633158D01*
X42988398Y20198314D01*
X42897199Y20198314D01*
X42498745Y20596768D01*
X43162346Y20596768D01*
X43162346Y20372262D01*
X43727502Y19807107D01*
X44154064Y20233669D01*
X44154064Y20458175D01*
X44049328Y20567063D01*
X43954298Y20648398D01*
X43845226Y20709631D01*
X43726305Y20748409D01*
X43602104Y20763240D01*
X43477395Y20753556D01*
X43356972Y20719730D01*
X43245462Y20663060D01*
X43162346Y20596768D01*
X42498745Y20596768D01*
X40070441Y23025071D01*
X40070437Y23025076D01*
X36125077Y26970435D01*
X34225898Y28869613D01*
X34200527Y28900528D01*
X34077188Y29001749D01*
X33936472Y29076963D01*
X33783787Y29123280D01*
X33664790Y29135000D01*
X33664787Y29135000D01*
X33624999Y29138919D01*
X33585211Y29135000D01*
X32860513Y29135000D01*
X32851818Y29143694D01*
X32893028Y29155270D01*
X33004538Y29211940D01*
X33087654Y29278232D01*
X33087654Y29502738D01*
X32522498Y30067893D01*
X32505528Y30050922D01*
X32325923Y30230527D01*
X32342893Y30247498D01*
X32328751Y30261640D01*
X32502700Y30435589D01*
X32516842Y30421447D01*
X32533813Y30438417D01*
X32713418Y30258812D01*
G37*
%TD.AperFunction*%
D21*
X38357972Y22446515D02*
X37702165Y21790709D01*
X37641287Y21864889D01*
X37439762Y22066414D01*
X37352743Y22137828D01*
X37308013Y22193819D01*
X37253172Y22193819D01*
X37232757Y22204731D01*
X37113059Y22241041D01*
X37109189Y22241422D01*
X37108808Y22245292D01*
X37072498Y22364990D01*
X37061586Y22385405D01*
X37061586Y22440246D01*
X37005595Y22484976D01*
X36934181Y22571995D01*
X36732656Y22773520D01*
X36649155Y22842048D01*
X36580627Y22925549D01*
X36379102Y23127074D01*
X36295601Y23195601D01*
X36227074Y23279102D01*
X36025549Y23480627D01*
X35942048Y23549155D01*
X35873520Y23632656D01*
X35671995Y23834181D01*
X35584976Y23905595D01*
X35540246Y23961586D01*
X35485405Y23961586D01*
X35464990Y23972498D01*
X35345292Y24008808D01*
X35341422Y24009189D01*
X35341041Y24013059D01*
X35304731Y24132757D01*
X35293819Y24153172D01*
X35293819Y24208013D01*
X35237828Y24252743D01*
X35166414Y24339762D01*
X34964889Y24541287D01*
X34890709Y24602165D01*
X35546516Y25257972D01*
X38357972Y22446515D01*
%TA.AperFunction,Conductor*%
D23*
G36*
X38357972Y22446515D02*
G01*
X37702165Y21790709D01*
X37641287Y21864889D01*
X37439762Y22066414D01*
X37352743Y22137828D01*
X37308013Y22193819D01*
X37253172Y22193819D01*
X37232757Y22204731D01*
X37113059Y22241041D01*
X37109189Y22241422D01*
X37108808Y22245292D01*
X37072498Y22364990D01*
X37061586Y22385405D01*
X37061586Y22440246D01*
X37005595Y22484976D01*
X36934181Y22571995D01*
X36732656Y22773520D01*
X36649155Y22842048D01*
X36580627Y22925549D01*
X36379102Y23127074D01*
X36295601Y23195601D01*
X36227074Y23279102D01*
X36025549Y23480627D01*
X35942048Y23549155D01*
X35873520Y23632656D01*
X35671995Y23834181D01*
X35584976Y23905595D01*
X35540246Y23961586D01*
X35485405Y23961586D01*
X35464990Y23972498D01*
X35345292Y24008808D01*
X35341422Y24009189D01*
X35341041Y24013059D01*
X35304731Y24132757D01*
X35293819Y24153172D01*
X35293819Y24208013D01*
X35237828Y24252743D01*
X35166414Y24339762D01*
X34964889Y24541287D01*
X34890709Y24602165D01*
X35546516Y25257972D01*
X38357972Y22446515D01*
G37*
%TD.AperFunction*%
D21*
X42547800Y24346024D02*
X42749325Y24144499D01*
X42836344Y24073085D01*
X42881074Y24017094D01*
X42935915Y24017094D01*
X42956330Y24006182D01*
X43076028Y23969872D01*
X43079899Y23969491D01*
X43080280Y23965620D01*
X43116590Y23845922D01*
X43127501Y23825509D01*
X43127501Y23770667D01*
X43183492Y23725936D01*
X43254907Y23638917D01*
X43456432Y23437392D01*
X43530612Y23376514D01*
X43035534Y22881436D01*
X41991844Y23925126D01*
X42486922Y24420204D01*
X42547800Y24346024D01*
%TA.AperFunction,Conductor*%
D23*
G36*
X42547800Y24346024D02*
G01*
X42749325Y24144499D01*
X42836344Y24073085D01*
X42881074Y24017094D01*
X42935915Y24017094D01*
X42956330Y24006182D01*
X43076028Y23969872D01*
X43079899Y23969491D01*
X43080280Y23965620D01*
X43116590Y23845922D01*
X43127501Y23825509D01*
X43127501Y23770667D01*
X43183492Y23725936D01*
X43254907Y23638917D01*
X43456432Y23437392D01*
X43530612Y23376514D01*
X43035534Y22881436D01*
X41991844Y23925126D01*
X42486922Y24420204D01*
X42547800Y24346024D01*
G37*
%TD.AperFunction*%
D21*
X38658713Y28235111D02*
X38860238Y28033586D01*
X38947257Y27962172D01*
X38991987Y27906181D01*
X39046828Y27906181D01*
X39067243Y27895269D01*
X39186941Y27858959D01*
X39190811Y27858578D01*
X39191192Y27854708D01*
X39227502Y27735010D01*
X39238414Y27714595D01*
X39238414Y27659754D01*
X39294405Y27615024D01*
X39365819Y27528005D01*
X39567344Y27326480D01*
X39650845Y27257952D01*
X39719373Y27174451D01*
X39920898Y26972926D01*
X40004399Y26904399D01*
X40072926Y26820898D01*
X40274451Y26619373D01*
X40357952Y26550845D01*
X40426480Y26467344D01*
X40628005Y26265819D01*
X40715024Y26194405D01*
X40759754Y26138414D01*
X40814595Y26138414D01*
X40835010Y26127502D01*
X40954708Y26091192D01*
X40958578Y26090811D01*
X40958959Y26086941D01*
X40995269Y25967243D01*
X41006181Y25946828D01*
X41006181Y25891987D01*
X41062172Y25847257D01*
X41133586Y25760238D01*
X41335111Y25558713D01*
X41409291Y25497835D01*
X40914214Y25002757D01*
X38102757Y27814213D01*
X38597835Y28309291D01*
X38658713Y28235111D01*
%TA.AperFunction,Conductor*%
D23*
G36*
X38658713Y28235111D02*
G01*
X38860238Y28033586D01*
X38947257Y27962172D01*
X38991987Y27906181D01*
X39046828Y27906181D01*
X39067243Y27895269D01*
X39186941Y27858959D01*
X39190811Y27858578D01*
X39191192Y27854708D01*
X39227502Y27735010D01*
X39238414Y27714595D01*
X39238414Y27659754D01*
X39294405Y27615024D01*
X39365819Y27528005D01*
X39567344Y27326480D01*
X39650845Y27257952D01*
X39719373Y27174451D01*
X39920898Y26972926D01*
X40004399Y26904399D01*
X40072926Y26820898D01*
X40274451Y26619373D01*
X40357952Y26550845D01*
X40426480Y26467344D01*
X40628005Y26265819D01*
X40715024Y26194405D01*
X40759754Y26138414D01*
X40814595Y26138414D01*
X40835010Y26127502D01*
X40954708Y26091192D01*
X40958578Y26090811D01*
X40958959Y26086941D01*
X40995269Y25967243D01*
X41006181Y25946828D01*
X41006181Y25891987D01*
X41062172Y25847257D01*
X41133586Y25760238D01*
X41335111Y25558713D01*
X41409291Y25497835D01*
X40914214Y25002757D01*
X38102757Y27814213D01*
X38597835Y28309291D01*
X38658713Y28235111D01*
G37*
%TD.AperFunction*%
D21*
X30731597Y28809108D02*
X30841911Y28750143D01*
X30848227Y28748227D01*
X30850143Y28741911D01*
X30909108Y28631597D01*
X30988460Y28534906D01*
X31271302Y28252064D01*
X31367993Y28172712D01*
X31478307Y28113747D01*
X31598005Y28077437D01*
X31630224Y28074264D01*
X31924105Y27780382D01*
X31949472Y27749472D01*
X32008996Y27700622D01*
X32072810Y27648251D01*
X32116879Y27624696D01*
X32213527Y27573037D01*
X32366212Y27526720D01*
X32485209Y27515000D01*
X32485211Y27515000D01*
X32524999Y27511081D01*
X32564787Y27515000D01*
X33289487Y27515000D01*
X34468884Y26335602D01*
X33813078Y25679796D01*
X33752200Y25753976D01*
X33550675Y25955501D01*
X33463656Y26026915D01*
X33418926Y26082906D01*
X33364085Y26082906D01*
X33343670Y26093818D01*
X33223972Y26130128D01*
X33220101Y26130509D01*
X33219720Y26134380D01*
X33183410Y26254078D01*
X33172499Y26274491D01*
X33172499Y26329333D01*
X33116508Y26374064D01*
X33045093Y26461083D01*
X32843568Y26662608D01*
X32760067Y26731135D01*
X32691540Y26814636D01*
X32490015Y27016161D01*
X32406517Y27084686D01*
X32337987Y27168190D01*
X32136462Y27369715D01*
X32039771Y27449067D01*
X31929457Y27508032D01*
X31809759Y27544342D01*
X31769525Y27548305D01*
X31658908Y27713854D01*
X31513854Y27858908D01*
X31343288Y27972877D01*
X31153765Y28051380D01*
X30952569Y28091400D01*
X30747431Y28091400D01*
X30623472Y28066743D01*
X30623472Y28306400D01*
X30611212Y28430882D01*
X30574902Y28550580D01*
X30515937Y28660894D01*
X30436585Y28757585D01*
X30377104Y28806400D01*
X30436585Y28855215D01*
X30459550Y28883198D01*
X30641318Y28883198D01*
X30731597Y28809108D01*
%TA.AperFunction,Conductor*%
D23*
G36*
X30731597Y28809108D02*
G01*
X30841911Y28750143D01*
X30848227Y28748227D01*
X30850143Y28741911D01*
X30909108Y28631597D01*
X30988460Y28534906D01*
X31271302Y28252064D01*
X31367993Y28172712D01*
X31478307Y28113747D01*
X31598005Y28077437D01*
X31630224Y28074264D01*
X31924105Y27780382D01*
X31949472Y27749472D01*
X32008996Y27700622D01*
X32072810Y27648251D01*
X32116879Y27624696D01*
X32213527Y27573037D01*
X32366212Y27526720D01*
X32485209Y27515000D01*
X32485211Y27515000D01*
X32524999Y27511081D01*
X32564787Y27515000D01*
X33289487Y27515000D01*
X34468884Y26335602D01*
X33813078Y25679796D01*
X33752200Y25753976D01*
X33550675Y25955501D01*
X33463656Y26026915D01*
X33418926Y26082906D01*
X33364085Y26082906D01*
X33343670Y26093818D01*
X33223972Y26130128D01*
X33220101Y26130509D01*
X33219720Y26134380D01*
X33183410Y26254078D01*
X33172499Y26274491D01*
X33172499Y26329333D01*
X33116508Y26374064D01*
X33045093Y26461083D01*
X32843568Y26662608D01*
X32760067Y26731135D01*
X32691540Y26814636D01*
X32490015Y27016161D01*
X32406517Y27084686D01*
X32337987Y27168190D01*
X32136462Y27369715D01*
X32039771Y27449067D01*
X31929457Y27508032D01*
X31809759Y27544342D01*
X31769525Y27548305D01*
X31658908Y27713854D01*
X31513854Y27858908D01*
X31343288Y27972877D01*
X31153765Y28051380D01*
X30952569Y28091400D01*
X30747431Y28091400D01*
X30623472Y28066743D01*
X30623472Y28306400D01*
X30611212Y28430882D01*
X30574902Y28550580D01*
X30515937Y28660894D01*
X30436585Y28757585D01*
X30377104Y28806400D01*
X30436585Y28855215D01*
X30459550Y28883198D01*
X30641318Y28883198D01*
X30731597Y28809108D01*
G37*
%TD.AperFunction*%
D21*
X36537392Y30356432D02*
X36738917Y30154907D01*
X36825936Y30083492D01*
X36870667Y30027501D01*
X36925509Y30027501D01*
X36945922Y30016590D01*
X37065620Y29980280D01*
X37069491Y29979899D01*
X37069872Y29976028D01*
X37106182Y29856330D01*
X37117094Y29835915D01*
X37117094Y29781074D01*
X37173085Y29736344D01*
X37244499Y29649325D01*
X37446024Y29447800D01*
X37520204Y29386922D01*
X37025127Y28891844D01*
X35981436Y29935534D01*
X36476514Y30430612D01*
X36537392Y30356432D01*
%TA.AperFunction,Conductor*%
D23*
G36*
X36537392Y30356432D02*
G01*
X36738917Y30154907D01*
X36825936Y30083492D01*
X36870667Y30027501D01*
X36925509Y30027501D01*
X36945922Y30016590D01*
X37065620Y29980280D01*
X37069491Y29979899D01*
X37069872Y29976028D01*
X37106182Y29856330D01*
X37117094Y29835915D01*
X37117094Y29781074D01*
X37173085Y29736344D01*
X37244499Y29649325D01*
X37446024Y29447800D01*
X37520204Y29386922D01*
X37025127Y28891844D01*
X35981436Y29935534D01*
X36476514Y30430612D01*
X36537392Y30356432D01*
G37*
%TD.AperFunction*%
D21*
X16083648Y65649096D02*
X16095815Y65627375D01*
X16111985Y65608445D01*
X16131538Y65593033D01*
X16153721Y65581732D01*
X16177683Y65574976D01*
X16200000Y65573000D01*
X16419908Y65573000D01*
X16436594Y65564081D01*
X16443112Y65562104D01*
X16449179Y65559013D01*
X16507606Y65542540D01*
X16565717Y65524912D01*
X16572496Y65524244D01*
X16579048Y65522397D01*
X16639555Y65517639D01*
X16666353Y65515000D01*
X16673124Y65515000D01*
X16713567Y65511820D01*
X16740417Y65515000D01*
X39459592Y65515000D01*
X39486434Y65511821D01*
X39526868Y65515000D01*
X39533647Y65515000D01*
X39560468Y65517642D01*
X39620951Y65522397D01*
X39627502Y65524244D01*
X39634283Y65524912D01*
X39692433Y65542552D01*
X39750820Y65559014D01*
X39756881Y65562102D01*
X39763406Y65564081D01*
X39780093Y65573000D01*
X40000000Y65573000D01*
X40024776Y65575440D01*
X40048601Y65582667D01*
X40070557Y65594403D01*
X40089803Y65610197D01*
X40105597Y65629443D01*
X40116352Y65649096D01*
X42157685Y70315000D01*
X54715000Y70315000D01*
X54715000Y68151487D01*
X54605520Y68315335D01*
X54410935Y68509920D01*
X54182127Y68662805D01*
X53927890Y68768114D01*
X53657992Y68821800D01*
X53382808Y68821800D01*
X53112910Y68768114D01*
X52858673Y68662805D01*
X52629865Y68509920D01*
X52435280Y68315335D01*
X52282395Y68086527D01*
X52243906Y67993606D01*
X52207771Y68080843D01*
X52056199Y68307686D01*
X51863286Y68500599D01*
X51636443Y68652171D01*
X51384389Y68756575D01*
X51116811Y68809800D01*
X50843989Y68809800D01*
X50576411Y68756575D01*
X50324357Y68652171D01*
X50097514Y68500599D01*
X49904601Y68307686D01*
X49753029Y68080843D01*
X49648625Y67828789D01*
X49595400Y67561211D01*
X49595400Y67288389D01*
X49648625Y67020811D01*
X49753029Y66768757D01*
X49904601Y66541914D01*
X50097514Y66349001D01*
X50324357Y66197429D01*
X50411594Y66161294D01*
X50318673Y66122805D01*
X50089865Y65969920D01*
X49895280Y65775335D01*
X49742395Y65546527D01*
X49637086Y65292290D01*
X49583400Y65022392D01*
X49583400Y64747208D01*
X49637086Y64477310D01*
X49742395Y64223073D01*
X49895280Y63994265D01*
X50089865Y63799680D01*
X50318673Y63646795D01*
X50395915Y63614800D01*
X50318673Y63582805D01*
X50089865Y63429920D01*
X49895280Y63235335D01*
X49742395Y63006527D01*
X49637086Y62752290D01*
X49583400Y62482392D01*
X49583400Y62207208D01*
X49637086Y61937310D01*
X49742395Y61683073D01*
X49895280Y61454265D01*
X50089865Y61259680D01*
X50318673Y61106795D01*
X50395915Y61074800D01*
X50318673Y61042805D01*
X50089865Y60889920D01*
X49895280Y60695335D01*
X49742395Y60466527D01*
X49637086Y60212290D01*
X49583400Y59942392D01*
X49583400Y59667208D01*
X49637086Y59397310D01*
X49742395Y59143073D01*
X49895280Y58914265D01*
X50089865Y58719680D01*
X50318673Y58566795D01*
X50395915Y58534800D01*
X50318673Y58502805D01*
X50089865Y58349920D01*
X49895280Y58155335D01*
X49742395Y57926527D01*
X49637086Y57672290D01*
X49583400Y57402392D01*
X49583400Y57127208D01*
X49637086Y56857310D01*
X49742395Y56603073D01*
X49895280Y56374265D01*
X50089865Y56179680D01*
X50318673Y56026795D01*
X50395915Y55994800D01*
X50318673Y55962805D01*
X50089865Y55809920D01*
X49895280Y55615335D01*
X49742395Y55386527D01*
X49637086Y55132290D01*
X49583400Y54862392D01*
X49583400Y54587208D01*
X49637086Y54317310D01*
X49742395Y54063073D01*
X49895280Y53834265D01*
X50089865Y53639680D01*
X50318673Y53486795D01*
X50395915Y53454800D01*
X50318673Y53422805D01*
X50089865Y53269920D01*
X49895280Y53075335D01*
X49742395Y52846527D01*
X49637086Y52592290D01*
X49583400Y52322392D01*
X49583400Y52047208D01*
X49637086Y51777310D01*
X49742395Y51523073D01*
X49895280Y51294265D01*
X50089865Y51099680D01*
X50318673Y50946795D01*
X50395915Y50914800D01*
X50318673Y50882805D01*
X50089865Y50729920D01*
X49895280Y50535335D01*
X49742395Y50306527D01*
X49637086Y50052290D01*
X49583400Y49782392D01*
X49583400Y49507208D01*
X49637086Y49237310D01*
X49742395Y48983073D01*
X49895280Y48754265D01*
X50089865Y48559680D01*
X50318673Y48406795D01*
X50395915Y48374800D01*
X50318673Y48342805D01*
X50089865Y48189920D01*
X49895280Y47995335D01*
X49742395Y47766527D01*
X49637086Y47512290D01*
X49583400Y47242392D01*
X49583400Y46967208D01*
X49637086Y46697310D01*
X49742395Y46443073D01*
X49895280Y46214265D01*
X50089865Y46019680D01*
X50318673Y45866795D01*
X50395915Y45834800D01*
X50318673Y45802805D01*
X50089865Y45649920D01*
X49895280Y45455335D01*
X49742395Y45226527D01*
X49637086Y44972290D01*
X49583400Y44702392D01*
X49583400Y44427208D01*
X49637086Y44157310D01*
X49683027Y44046400D01*
X49133822Y44046400D01*
X49096399Y44050086D01*
X49058976Y44046400D01*
X49058974Y44046400D01*
X48947022Y44035374D01*
X48803385Y43991802D01*
X48671008Y43921045D01*
X48554978Y43825822D01*
X48531120Y43796751D01*
X48322441Y43588072D01*
X48050000Y43588072D01*
X47925518Y43575812D01*
X47805820Y43539502D01*
X47695506Y43480537D01*
X47598815Y43401185D01*
X47550000Y43341704D01*
X47501185Y43401185D01*
X47404494Y43480537D01*
X47294180Y43539502D01*
X47174482Y43575812D01*
X47050000Y43588072D01*
X46550000Y43588072D01*
X46425518Y43575812D01*
X46305820Y43539502D01*
X46195506Y43480537D01*
X46098815Y43401185D01*
X46019463Y43304494D01*
X45960498Y43194180D01*
X45924188Y43074482D01*
X45911928Y42950000D01*
X45911928Y42701559D01*
X41900849Y38690479D01*
X41871779Y38666622D01*
X41847922Y38637552D01*
X41847921Y38637551D01*
X41776555Y38550592D01*
X41705799Y38418215D01*
X41662227Y38274578D01*
X41647514Y38125200D01*
X41651201Y38087767D01*
X41651200Y34932132D01*
X38409272Y31690203D01*
X38348394Y31764384D01*
X38146869Y31965909D01*
X38063368Y32034436D01*
X37994841Y32117937D01*
X37793316Y32319462D01*
X37709812Y32387992D01*
X37641287Y32471490D01*
X37439762Y32673015D01*
X37343071Y32752367D01*
X37232757Y32811332D01*
X37113059Y32847642D01*
X36988577Y32859902D01*
X36864095Y32847642D01*
X36744397Y32811332D01*
X36634083Y32752367D01*
X36537392Y32673015D01*
X35830285Y31965908D01*
X35750933Y31869217D01*
X35740684Y31850043D01*
X34903806Y31013164D01*
X34709042Y31207928D01*
X34701117Y31288391D01*
X34664807Y31408089D01*
X34605842Y31518403D01*
X34526490Y31615094D01*
X33890094Y32251490D01*
X33793403Y32330842D01*
X33683089Y32389807D01*
X33563391Y32426117D01*
X33438909Y32438377D01*
X33314427Y32426117D01*
X33194729Y32389807D01*
X33084415Y32330842D01*
X32987724Y32251490D01*
X32851564Y32115330D01*
X31470118Y32115330D01*
X31430330Y32119249D01*
X31390542Y32115330D01*
X31390539Y32115330D01*
X31271542Y32103610D01*
X31118857Y32057293D01*
X31096347Y32045261D01*
X30978140Y31982079D01*
X30958436Y31965908D01*
X30854802Y31880858D01*
X30829430Y31849942D01*
X30430383Y31450895D01*
X30399473Y31425528D01*
X30364085Y31382407D01*
X30345400Y31359640D01*
X30345400Y45174812D01*
X30349319Y45214600D01*
X30343646Y45272201D01*
X30333680Y45373388D01*
X30287363Y45526073D01*
X30237396Y45619555D01*
X30212149Y45666790D01*
X30136293Y45759220D01*
X30110928Y45790128D01*
X30080018Y45815495D01*
X20975900Y54919612D01*
X20950528Y54950528D01*
X20827189Y55051749D01*
X20686473Y55126963D01*
X20533788Y55173280D01*
X20414791Y55185000D01*
X20414788Y55185000D01*
X20375000Y55188919D01*
X20335212Y55185000D01*
X12810513Y55185000D01*
X9285000Y58710512D01*
X9285000Y61630412D01*
X9288919Y61670200D01*
X9285000Y61709991D01*
X9273280Y61828988D01*
X9226963Y61981673D01*
X9191951Y62047176D01*
X9151749Y62122390D01*
X9075893Y62214820D01*
X9050528Y62245728D01*
X9019618Y62271095D01*
X6638503Y64652209D01*
X6657400Y64747208D01*
X6657400Y65022392D01*
X6603714Y65292290D01*
X6498405Y65546527D01*
X6345520Y65775335D01*
X6150935Y65969920D01*
X5922127Y66122805D01*
X5850457Y66152492D01*
X5863423Y66157164D01*
X5979380Y66219144D01*
X6046360Y66459235D01*
X5260400Y67245195D01*
X4474440Y66459235D01*
X4541420Y66219144D01*
X4677160Y66155315D01*
X4598673Y66122805D01*
X4369865Y65969920D01*
X4175280Y65775335D01*
X4121468Y65694800D01*
X4014791Y65694800D01*
X3975000Y65698719D01*
X3935209Y65694800D01*
X3859332Y65694800D01*
X3805520Y65775335D01*
X3610935Y65969920D01*
X3382127Y66122805D01*
X3293871Y66159362D01*
X3319232Y66168523D01*
X3432263Y66228940D01*
X3497788Y66467807D01*
X2720400Y67245195D01*
X1943012Y66467807D01*
X2008537Y66228940D01*
X2152175Y66161535D01*
X2058673Y66122805D01*
X1829865Y65969920D01*
X1635280Y65775335D01*
X1485000Y65550426D01*
X1485000Y66786910D01*
X1524540Y66712937D01*
X1763407Y66647412D01*
X2540795Y67424800D01*
X2900005Y67424800D01*
X3677393Y66647412D01*
X3916260Y66712937D01*
X3981719Y66852429D01*
X3992764Y66821777D01*
X4054744Y66705820D01*
X4294835Y66638840D01*
X5080795Y67424800D01*
X5440005Y67424800D01*
X6225965Y66638840D01*
X6466056Y66705820D01*
X6583156Y66954848D01*
X6649423Y67221935D01*
X6662310Y67496817D01*
X6621322Y67768933D01*
X6528036Y68027823D01*
X6466056Y68143780D01*
X6225965Y68210760D01*
X5440005Y67424800D01*
X5080795Y67424800D01*
X4294835Y68210760D01*
X4054744Y68143780D01*
X3986048Y67997689D01*
X3976677Y68023632D01*
X3916260Y68136663D01*
X3677393Y68202188D01*
X2900005Y67424800D01*
X2540795Y67424800D01*
X1763407Y68202188D01*
X1524540Y68136663D01*
X1485000Y68052405D01*
X1485000Y68381793D01*
X1943012Y68381793D01*
X2720400Y67604405D01*
X3497788Y68381793D01*
X3495437Y68390365D01*
X4474440Y68390365D01*
X5260400Y67604405D01*
X6046360Y68390365D01*
X5979380Y68630456D01*
X5730352Y68747556D01*
X5463265Y68813823D01*
X5188383Y68826710D01*
X4916267Y68785722D01*
X4657377Y68692436D01*
X4541420Y68630456D01*
X4474440Y68390365D01*
X3495437Y68390365D01*
X3432263Y68620660D01*
X3185284Y68736560D01*
X2920440Y68802050D01*
X2647908Y68814612D01*
X2378162Y68773765D01*
X2121568Y68681077D01*
X2008537Y68620660D01*
X1943012Y68381793D01*
X1485000Y68381793D01*
X1485000Y70315000D01*
X14042315Y70315000D01*
X16083648Y65649096D01*
%TA.AperFunction,Conductor*%
D23*
G36*
X16083648Y65649096D02*
G01*
X16095815Y65627375D01*
X16111985Y65608445D01*
X16131538Y65593033D01*
X16153721Y65581732D01*
X16177683Y65574976D01*
X16200000Y65573000D01*
X16419908Y65573000D01*
X16436594Y65564081D01*
X16443112Y65562104D01*
X16449179Y65559013D01*
X16507606Y65542540D01*
X16565717Y65524912D01*
X16572496Y65524244D01*
X16579048Y65522397D01*
X16639555Y65517639D01*
X16666353Y65515000D01*
X16673124Y65515000D01*
X16713567Y65511820D01*
X16740417Y65515000D01*
X39459592Y65515000D01*
X39486434Y65511821D01*
X39526868Y65515000D01*
X39533647Y65515000D01*
X39560468Y65517642D01*
X39620951Y65522397D01*
X39627502Y65524244D01*
X39634283Y65524912D01*
X39692433Y65542552D01*
X39750820Y65559014D01*
X39756881Y65562102D01*
X39763406Y65564081D01*
X39780093Y65573000D01*
X40000000Y65573000D01*
X40024776Y65575440D01*
X40048601Y65582667D01*
X40070557Y65594403D01*
X40089803Y65610197D01*
X40105597Y65629443D01*
X40116352Y65649096D01*
X42157685Y70315000D01*
X54715000Y70315000D01*
X54715000Y68151487D01*
X54605520Y68315335D01*
X54410935Y68509920D01*
X54182127Y68662805D01*
X53927890Y68768114D01*
X53657992Y68821800D01*
X53382808Y68821800D01*
X53112910Y68768114D01*
X52858673Y68662805D01*
X52629865Y68509920D01*
X52435280Y68315335D01*
X52282395Y68086527D01*
X52243906Y67993606D01*
X52207771Y68080843D01*
X52056199Y68307686D01*
X51863286Y68500599D01*
X51636443Y68652171D01*
X51384389Y68756575D01*
X51116811Y68809800D01*
X50843989Y68809800D01*
X50576411Y68756575D01*
X50324357Y68652171D01*
X50097514Y68500599D01*
X49904601Y68307686D01*
X49753029Y68080843D01*
X49648625Y67828789D01*
X49595400Y67561211D01*
X49595400Y67288389D01*
X49648625Y67020811D01*
X49753029Y66768757D01*
X49904601Y66541914D01*
X50097514Y66349001D01*
X50324357Y66197429D01*
X50411594Y66161294D01*
X50318673Y66122805D01*
X50089865Y65969920D01*
X49895280Y65775335D01*
X49742395Y65546527D01*
X49637086Y65292290D01*
X49583400Y65022392D01*
X49583400Y64747208D01*
X49637086Y64477310D01*
X49742395Y64223073D01*
X49895280Y63994265D01*
X50089865Y63799680D01*
X50318673Y63646795D01*
X50395915Y63614800D01*
X50318673Y63582805D01*
X50089865Y63429920D01*
X49895280Y63235335D01*
X49742395Y63006527D01*
X49637086Y62752290D01*
X49583400Y62482392D01*
X49583400Y62207208D01*
X49637086Y61937310D01*
X49742395Y61683073D01*
X49895280Y61454265D01*
X50089865Y61259680D01*
X50318673Y61106795D01*
X50395915Y61074800D01*
X50318673Y61042805D01*
X50089865Y60889920D01*
X49895280Y60695335D01*
X49742395Y60466527D01*
X49637086Y60212290D01*
X49583400Y59942392D01*
X49583400Y59667208D01*
X49637086Y59397310D01*
X49742395Y59143073D01*
X49895280Y58914265D01*
X50089865Y58719680D01*
X50318673Y58566795D01*
X50395915Y58534800D01*
X50318673Y58502805D01*
X50089865Y58349920D01*
X49895280Y58155335D01*
X49742395Y57926527D01*
X49637086Y57672290D01*
X49583400Y57402392D01*
X49583400Y57127208D01*
X49637086Y56857310D01*
X49742395Y56603073D01*
X49895280Y56374265D01*
X50089865Y56179680D01*
X50318673Y56026795D01*
X50395915Y55994800D01*
X50318673Y55962805D01*
X50089865Y55809920D01*
X49895280Y55615335D01*
X49742395Y55386527D01*
X49637086Y55132290D01*
X49583400Y54862392D01*
X49583400Y54587208D01*
X49637086Y54317310D01*
X49742395Y54063073D01*
X49895280Y53834265D01*
X50089865Y53639680D01*
X50318673Y53486795D01*
X50395915Y53454800D01*
X50318673Y53422805D01*
X50089865Y53269920D01*
X49895280Y53075335D01*
X49742395Y52846527D01*
X49637086Y52592290D01*
X49583400Y52322392D01*
X49583400Y52047208D01*
X49637086Y51777310D01*
X49742395Y51523073D01*
X49895280Y51294265D01*
X50089865Y51099680D01*
X50318673Y50946795D01*
X50395915Y50914800D01*
X50318673Y50882805D01*
X50089865Y50729920D01*
X49895280Y50535335D01*
X49742395Y50306527D01*
X49637086Y50052290D01*
X49583400Y49782392D01*
X49583400Y49507208D01*
X49637086Y49237310D01*
X49742395Y48983073D01*
X49895280Y48754265D01*
X50089865Y48559680D01*
X50318673Y48406795D01*
X50395915Y48374800D01*
X50318673Y48342805D01*
X50089865Y48189920D01*
X49895280Y47995335D01*
X49742395Y47766527D01*
X49637086Y47512290D01*
X49583400Y47242392D01*
X49583400Y46967208D01*
X49637086Y46697310D01*
X49742395Y46443073D01*
X49895280Y46214265D01*
X50089865Y46019680D01*
X50318673Y45866795D01*
X50395915Y45834800D01*
X50318673Y45802805D01*
X50089865Y45649920D01*
X49895280Y45455335D01*
X49742395Y45226527D01*
X49637086Y44972290D01*
X49583400Y44702392D01*
X49583400Y44427208D01*
X49637086Y44157310D01*
X49683027Y44046400D01*
X49133822Y44046400D01*
X49096399Y44050086D01*
X49058976Y44046400D01*
X49058974Y44046400D01*
X48947022Y44035374D01*
X48803385Y43991802D01*
X48671008Y43921045D01*
X48554978Y43825822D01*
X48531120Y43796751D01*
X48322441Y43588072D01*
X48050000Y43588072D01*
X47925518Y43575812D01*
X47805820Y43539502D01*
X47695506Y43480537D01*
X47598815Y43401185D01*
X47550000Y43341704D01*
X47501185Y43401185D01*
X47404494Y43480537D01*
X47294180Y43539502D01*
X47174482Y43575812D01*
X47050000Y43588072D01*
X46550000Y43588072D01*
X46425518Y43575812D01*
X46305820Y43539502D01*
X46195506Y43480537D01*
X46098815Y43401185D01*
X46019463Y43304494D01*
X45960498Y43194180D01*
X45924188Y43074482D01*
X45911928Y42950000D01*
X45911928Y42701559D01*
X41900849Y38690479D01*
X41871779Y38666622D01*
X41847922Y38637552D01*
X41847921Y38637551D01*
X41776555Y38550592D01*
X41705799Y38418215D01*
X41662227Y38274578D01*
X41647514Y38125200D01*
X41651201Y38087767D01*
X41651200Y34932132D01*
X38409272Y31690203D01*
X38348394Y31764384D01*
X38146869Y31965909D01*
X38063368Y32034436D01*
X37994841Y32117937D01*
X37793316Y32319462D01*
X37709812Y32387992D01*
X37641287Y32471490D01*
X37439762Y32673015D01*
X37343071Y32752367D01*
X37232757Y32811332D01*
X37113059Y32847642D01*
X36988577Y32859902D01*
X36864095Y32847642D01*
X36744397Y32811332D01*
X36634083Y32752367D01*
X36537392Y32673015D01*
X35830285Y31965908D01*
X35750933Y31869217D01*
X35740684Y31850043D01*
X34903806Y31013164D01*
X34709042Y31207928D01*
X34701117Y31288391D01*
X34664807Y31408089D01*
X34605842Y31518403D01*
X34526490Y31615094D01*
X33890094Y32251490D01*
X33793403Y32330842D01*
X33683089Y32389807D01*
X33563391Y32426117D01*
X33438909Y32438377D01*
X33314427Y32426117D01*
X33194729Y32389807D01*
X33084415Y32330842D01*
X32987724Y32251490D01*
X32851564Y32115330D01*
X31470118Y32115330D01*
X31430330Y32119249D01*
X31390542Y32115330D01*
X31390539Y32115330D01*
X31271542Y32103610D01*
X31118857Y32057293D01*
X31096347Y32045261D01*
X30978140Y31982079D01*
X30958436Y31965908D01*
X30854802Y31880858D01*
X30829430Y31849942D01*
X30430383Y31450895D01*
X30399473Y31425528D01*
X30364085Y31382407D01*
X30345400Y31359640D01*
X30345400Y45174812D01*
X30349319Y45214600D01*
X30343646Y45272201D01*
X30333680Y45373388D01*
X30287363Y45526073D01*
X30237396Y45619555D01*
X30212149Y45666790D01*
X30136293Y45759220D01*
X30110928Y45790128D01*
X30080018Y45815495D01*
X20975900Y54919612D01*
X20950528Y54950528D01*
X20827189Y55051749D01*
X20686473Y55126963D01*
X20533788Y55173280D01*
X20414791Y55185000D01*
X20414788Y55185000D01*
X20375000Y55188919D01*
X20335212Y55185000D01*
X12810513Y55185000D01*
X9285000Y58710512D01*
X9285000Y61630412D01*
X9288919Y61670200D01*
X9285000Y61709991D01*
X9273280Y61828988D01*
X9226963Y61981673D01*
X9191951Y62047176D01*
X9151749Y62122390D01*
X9075893Y62214820D01*
X9050528Y62245728D01*
X9019618Y62271095D01*
X6638503Y64652209D01*
X6657400Y64747208D01*
X6657400Y65022392D01*
X6603714Y65292290D01*
X6498405Y65546527D01*
X6345520Y65775335D01*
X6150935Y65969920D01*
X5922127Y66122805D01*
X5850457Y66152492D01*
X5863423Y66157164D01*
X5979380Y66219144D01*
X6046360Y66459235D01*
X5260400Y67245195D01*
X4474440Y66459235D01*
X4541420Y66219144D01*
X4677160Y66155315D01*
X4598673Y66122805D01*
X4369865Y65969920D01*
X4175280Y65775335D01*
X4121468Y65694800D01*
X4014791Y65694800D01*
X3975000Y65698719D01*
X3935209Y65694800D01*
X3859332Y65694800D01*
X3805520Y65775335D01*
X3610935Y65969920D01*
X3382127Y66122805D01*
X3293871Y66159362D01*
X3319232Y66168523D01*
X3432263Y66228940D01*
X3497788Y66467807D01*
X2720400Y67245195D01*
X1943012Y66467807D01*
X2008537Y66228940D01*
X2152175Y66161535D01*
X2058673Y66122805D01*
X1829865Y65969920D01*
X1635280Y65775335D01*
X1485000Y65550426D01*
X1485000Y66786910D01*
X1524540Y66712937D01*
X1763407Y66647412D01*
X2540795Y67424800D01*
X2900005Y67424800D01*
X3677393Y66647412D01*
X3916260Y66712937D01*
X3981719Y66852429D01*
X3992764Y66821777D01*
X4054744Y66705820D01*
X4294835Y66638840D01*
X5080795Y67424800D01*
X5440005Y67424800D01*
X6225965Y66638840D01*
X6466056Y66705820D01*
X6583156Y66954848D01*
X6649423Y67221935D01*
X6662310Y67496817D01*
X6621322Y67768933D01*
X6528036Y68027823D01*
X6466056Y68143780D01*
X6225965Y68210760D01*
X5440005Y67424800D01*
X5080795Y67424800D01*
X4294835Y68210760D01*
X4054744Y68143780D01*
X3986048Y67997689D01*
X3976677Y68023632D01*
X3916260Y68136663D01*
X3677393Y68202188D01*
X2900005Y67424800D01*
X2540795Y67424800D01*
X1763407Y68202188D01*
X1524540Y68136663D01*
X1485000Y68052405D01*
X1485000Y68381793D01*
X1943012Y68381793D01*
X2720400Y67604405D01*
X3497788Y68381793D01*
X3495437Y68390365D01*
X4474440Y68390365D01*
X5260400Y67604405D01*
X6046360Y68390365D01*
X5979380Y68630456D01*
X5730352Y68747556D01*
X5463265Y68813823D01*
X5188383Y68826710D01*
X4916267Y68785722D01*
X4657377Y68692436D01*
X4541420Y68630456D01*
X4474440Y68390365D01*
X3495437Y68390365D01*
X3432263Y68620660D01*
X3185284Y68736560D01*
X2920440Y68802050D01*
X2647908Y68814612D01*
X2378162Y68773765D01*
X2121568Y68681077D01*
X2008537Y68620660D01*
X1943012Y68381793D01*
X1485000Y68381793D01*
X1485000Y70315000D01*
X14042315Y70315000D01*
X16083648Y65649096D01*
G37*
%TD.AperFunction*%
D21*
X18184400Y47099713D02*
X16879560Y45794872D01*
X16675000Y45794872D01*
X16550518Y45782612D01*
X16430820Y45746302D01*
X16320506Y45687337D01*
X16223815Y45607985D01*
X16175000Y45548504D01*
X16126185Y45607985D01*
X16029494Y45687337D01*
X15919180Y45746302D01*
X15799482Y45782612D01*
X15789432Y45783602D01*
X15823747Y45817917D01*
X15852822Y45841778D01*
X15948045Y45957808D01*
X16018802Y46090185D01*
X16062374Y46233822D01*
X16073400Y46345774D01*
X16073400Y46345776D01*
X16077086Y46383199D01*
X16073400Y46420622D01*
X16073400Y48614896D01*
X16073505Y48615025D01*
X16112981Y48564842D01*
X16208011Y48483507D01*
X16317082Y48422274D01*
X16436003Y48383496D01*
X16541650Y48371600D01*
X16700400Y48530350D01*
X16700400Y49329600D01*
X16946400Y49329600D01*
X16946400Y48530350D01*
X17105150Y48371600D01*
X17210797Y48383496D01*
X17329718Y48422274D01*
X17438789Y48483507D01*
X17533819Y48564842D01*
X17611155Y48663153D01*
X17667825Y48774663D01*
X17701652Y48895086D01*
X17711336Y49019795D01*
X17708400Y49170850D01*
X17549650Y49329600D01*
X16946400Y49329600D01*
X16700400Y49329600D01*
X16676400Y49329600D01*
X16676400Y49583600D01*
X16700400Y49583600D01*
X16700400Y50382850D01*
X16946400Y50382850D01*
X16946400Y49583600D01*
X17549650Y49583600D01*
X17708400Y49742350D01*
X17711336Y49893405D01*
X17701652Y50018114D01*
X17667825Y50138537D01*
X17611155Y50250047D01*
X17533819Y50348358D01*
X17438789Y50429693D01*
X17329718Y50490926D01*
X17210797Y50529704D01*
X17105150Y50541600D01*
X16946400Y50382850D01*
X16700400Y50382850D01*
X16541650Y50541600D01*
X16436003Y50529704D01*
X16317082Y50490926D01*
X16208011Y50429693D01*
X16112981Y50348358D01*
X16073505Y50298175D01*
X16024585Y50357785D01*
X15927894Y50437137D01*
X15817580Y50496102D01*
X15697882Y50532412D01*
X15573400Y50544672D01*
X15073400Y50544672D01*
X14948918Y50532412D01*
X14829220Y50496102D01*
X14718906Y50437137D01*
X14622215Y50357785D01*
X14546600Y50265648D01*
X14546600Y50382012D01*
X14550519Y50421800D01*
X14545110Y50476720D01*
X14534880Y50580588D01*
X14492612Y50719927D01*
X14488563Y50733274D01*
X14413349Y50873989D01*
X14353599Y50946795D01*
X14312128Y50997328D01*
X14281219Y51022694D01*
X13967713Y51336200D01*
X14249913Y51618400D01*
X18184401Y51618400D01*
X18184400Y47099713D01*
%TA.AperFunction,Conductor*%
D23*
G36*
X18184400Y47099713D02*
G01*
X16879560Y45794872D01*
X16675000Y45794872D01*
X16550518Y45782612D01*
X16430820Y45746302D01*
X16320506Y45687337D01*
X16223815Y45607985D01*
X16175000Y45548504D01*
X16126185Y45607985D01*
X16029494Y45687337D01*
X15919180Y45746302D01*
X15799482Y45782612D01*
X15789432Y45783602D01*
X15823747Y45817917D01*
X15852822Y45841778D01*
X15948045Y45957808D01*
X16018802Y46090185D01*
X16062374Y46233822D01*
X16073400Y46345774D01*
X16073400Y46345776D01*
X16077086Y46383199D01*
X16073400Y46420622D01*
X16073400Y48614896D01*
X16073505Y48615025D01*
X16112981Y48564842D01*
X16208011Y48483507D01*
X16317082Y48422274D01*
X16436003Y48383496D01*
X16541650Y48371600D01*
X16700400Y48530350D01*
X16700400Y49329600D01*
X16946400Y49329600D01*
X16946400Y48530350D01*
X17105150Y48371600D01*
X17210797Y48383496D01*
X17329718Y48422274D01*
X17438789Y48483507D01*
X17533819Y48564842D01*
X17611155Y48663153D01*
X17667825Y48774663D01*
X17701652Y48895086D01*
X17711336Y49019795D01*
X17708400Y49170850D01*
X17549650Y49329600D01*
X16946400Y49329600D01*
X16700400Y49329600D01*
X16676400Y49329600D01*
X16676400Y49583600D01*
X16700400Y49583600D01*
X16700400Y50382850D01*
X16946400Y50382850D01*
X16946400Y49583600D01*
X17549650Y49583600D01*
X17708400Y49742350D01*
X17711336Y49893405D01*
X17701652Y50018114D01*
X17667825Y50138537D01*
X17611155Y50250047D01*
X17533819Y50348358D01*
X17438789Y50429693D01*
X17329718Y50490926D01*
X17210797Y50529704D01*
X17105150Y50541600D01*
X16946400Y50382850D01*
X16700400Y50382850D01*
X16541650Y50541600D01*
X16436003Y50529704D01*
X16317082Y50490926D01*
X16208011Y50429693D01*
X16112981Y50348358D01*
X16073505Y50298175D01*
X16024585Y50357785D01*
X15927894Y50437137D01*
X15817580Y50496102D01*
X15697882Y50532412D01*
X15573400Y50544672D01*
X15073400Y50544672D01*
X14948918Y50532412D01*
X14829220Y50496102D01*
X14718906Y50437137D01*
X14622215Y50357785D01*
X14546600Y50265648D01*
X14546600Y50382012D01*
X14550519Y50421800D01*
X14545110Y50476720D01*
X14534880Y50580588D01*
X14492612Y50719927D01*
X14488563Y50733274D01*
X14413349Y50873989D01*
X14353599Y50946795D01*
X14312128Y50997328D01*
X14281219Y51022694D01*
X13967713Y51336200D01*
X14249913Y51618400D01*
X18184401Y51618400D01*
X18184400Y47099713D01*
G37*
%TD.AperFunction*%
%TD*%
M02*
