M48
; DRILL file {KiCad 5.1.10} date Sat Jun  4 14:32:14 2022
; FORMAT={2:4/ absolute / inch / suppress leading zeros}
; #@! TF.CreationDate,2022-06-04T14:32:14-04:00
; #@! TF.GenerationSoftware,Kicad,Pcbnew,5.1.10
FMAT,2
INCH,TZ
T1C0.0200
T2C0.0400
T3C0.0402
%
G90
G05
T1
X6608Y20071
X12008Y13780
X12146Y10650
X13318Y10501
X14128Y9651
X14485Y11694
X14828Y8981
X15308Y10851
X15669Y8140
X15827Y6959
X15968Y10111
X16815Y9291
T2
X1071Y25545
X1071Y24545
X1071Y23545
X1071Y22545
X1071Y21545
X1071Y20545
X1071Y19545
X1071Y18545
X1071Y17545
X1071Y16545
X1071Y15545
X1071Y14545
X1071Y13545
X1071Y12545
X1071Y11545
X1071Y10545
X1071Y9545
X1071Y8545
X1071Y7545
X1071Y6545
X1071Y5545
X1071Y4545
X2071Y26545
X2071Y25545
X2071Y24545
X2071Y23545
X2071Y22545
X2071Y21545
X2071Y20545
X2071Y19545
X2071Y18545
X2071Y17545
X2071Y16545
X2071Y15545
X2071Y14545
X2071Y13545
X2071Y12545
X2071Y11545
X2071Y10545
X2071Y9545
X2071Y8545
X2071Y7545
X2071Y6545
X2071Y5545
X2071Y4545
X4642Y5638
X4642Y4638
X5642Y5638
X5642Y4638
X6642Y5638
X6642Y4638
X7642Y5638
X7642Y4638
X8642Y5638
X8642Y4638
X9642Y5638
X9642Y4638
X10642Y5638
X10642Y4638
X11642Y5638
X11642Y4638
X12642Y5638
X12642Y4638
X13642Y5638
X13642Y4638
X14642Y5638
X14642Y4638
X15642Y5638
X15642Y4638
X16642Y5638
X16642Y4638
X17642Y5638
X17642Y4638
X20071Y25545
X20071Y24545
X20071Y23545
X20071Y22545
X20071Y21545
X20071Y20545
X20071Y19545
X20071Y18545
X20071Y17545
X20071Y16545
X20071Y15545
X20071Y14545
X20071Y13545
X20071Y12545
X20071Y11545
X20071Y10545
X20071Y9545
X20071Y8545
X20071Y7545
X20071Y6545
X20071Y5545
X20071Y4545
X21071Y26545
X21071Y25545
X21071Y24545
X21071Y23545
X21071Y22545
X21071Y21545
X21071Y20545
X21071Y19545
X21071Y18545
X21071Y17545
X21071Y16545
X21071Y15545
X21071Y14545
X21071Y13545
X21071Y12545
X21071Y11545
X21071Y10545
X21071Y9545
X21071Y8545
X21071Y7545
X21071Y6545
X21071Y5545
X21071Y4545
T3
X1071Y26545
X20071Y26545
T0
M30
