%TF.GenerationSoftware,KiCad,Pcbnew,5.1.10*%
%TF.CreationDate,2022-06-04T14:31:52-04:00*%
%TF.ProjectId,BeagleLogic Cape,42656167-6c65-44c6-9f67-696320436170,rev?*%
%TF.SameCoordinates,PX6cb8080PY7bfa480*%
%TF.FileFunction,Legend,Bot*%
%TF.FilePolarity,Positive*%
%FSLAX46Y46*%
G04 Gerber Fmt 4.6, Leading zero omitted, Abs format (unit mm)*
G04 Created by KiCad (PCBNEW 5.1.10) date 2022-06-04 14:31:52*
%MOMM*%
%LPD*%
G01*
G04 APERTURE LIST*
%ADD10C,0.150000*%
%ADD11C,0.155000*%
%ADD12C,0.254000*%
%ADD13C,0.304800*%
%ADD14C,0.300000*%
%ADD15C,0.078740*%
G04 APERTURE END LIST*
D10*
X31413214Y35378572D02*
X31577500Y35664286D01*
X31756071Y35378572D02*
X31681071Y35978572D01*
X31452500Y35978572D01*
X31398928Y35950000D01*
X31373928Y35921429D01*
X31352500Y35864286D01*
X31363214Y35778572D01*
X31398928Y35721429D01*
X31431071Y35692858D01*
X31491785Y35664286D01*
X31720357Y35664286D01*
X30923928Y35407143D02*
X30984642Y35378572D01*
X31098928Y35378572D01*
X31152500Y35407143D01*
X31173928Y35464286D01*
X31145357Y35692858D01*
X31109642Y35750000D01*
X31048928Y35778572D01*
X30934642Y35778572D01*
X30881071Y35750000D01*
X30859642Y35692858D01*
X30866785Y35635715D01*
X31159642Y35578572D01*
X30641785Y35378572D02*
X30591785Y35778572D01*
X30598928Y35721429D02*
X30566785Y35750000D01*
X30506071Y35778572D01*
X30420357Y35778572D01*
X30366785Y35750000D01*
X30345357Y35692858D01*
X30384642Y35378572D01*
X30345357Y35692858D02*
X30309642Y35750000D01*
X30248928Y35778572D01*
X30163214Y35778572D01*
X30109642Y35750000D01*
X30088214Y35692858D01*
X30127500Y35378572D01*
X29756071Y35378572D02*
X29809642Y35407143D01*
X29834642Y35435715D01*
X29856071Y35492858D01*
X29834642Y35664286D01*
X29798928Y35721429D01*
X29766785Y35750000D01*
X29706071Y35778572D01*
X29620357Y35778572D01*
X29566785Y35750000D01*
X29541785Y35721429D01*
X29520357Y35664286D01*
X29541785Y35492858D01*
X29577500Y35435715D01*
X29609642Y35407143D01*
X29670357Y35378572D01*
X29756071Y35378572D01*
X29306071Y35778572D02*
X29213214Y35378572D01*
X29020357Y35778572D01*
X28609642Y35407143D02*
X28670357Y35378572D01*
X28784642Y35378572D01*
X28838214Y35407143D01*
X28859642Y35464286D01*
X28831071Y35692858D01*
X28795357Y35750000D01*
X28734642Y35778572D01*
X28620357Y35778572D01*
X28566785Y35750000D01*
X28545357Y35692858D01*
X28552500Y35635715D01*
X28845357Y35578572D01*
X27527500Y35378572D02*
X27691785Y35664286D01*
X27870357Y35378572D02*
X27795357Y35978572D01*
X27566785Y35978572D01*
X27513214Y35950000D01*
X27488214Y35921429D01*
X27466785Y35864286D01*
X27477500Y35778572D01*
X27513214Y35721429D01*
X27545357Y35692858D01*
X27606071Y35664286D01*
X27834642Y35664286D01*
X26956071Y35378572D02*
X27298928Y35378572D01*
X27127500Y35378572D02*
X27052500Y35978572D01*
X27120357Y35892858D01*
X27184642Y35835715D01*
X27245357Y35807143D01*
X26338214Y35978572D02*
X26623928Y35978572D01*
X26688214Y35692858D01*
X26656071Y35721429D01*
X26595357Y35750000D01*
X26452500Y35750000D01*
X26398928Y35721429D01*
X26373928Y35692858D01*
X26352500Y35635715D01*
X26370357Y35492858D01*
X26406071Y35435715D01*
X26438214Y35407143D01*
X26498928Y35378572D01*
X26641785Y35378572D01*
X26695357Y35407143D01*
X26720357Y35435715D01*
X25706071Y35778572D02*
X25477500Y35778572D01*
X25670357Y35378572D02*
X25606071Y35892858D01*
X25570357Y35950000D01*
X25509642Y35978572D01*
X25452500Y35978572D01*
X25241785Y35378572D02*
X25295357Y35407143D01*
X25320357Y35435715D01*
X25341785Y35492858D01*
X25320357Y35664286D01*
X25284642Y35721429D01*
X25252500Y35750000D01*
X25191785Y35778572D01*
X25106071Y35778572D01*
X25052500Y35750000D01*
X25027500Y35721429D01*
X25006071Y35664286D01*
X25027500Y35492858D01*
X25063214Y35435715D01*
X25095357Y35407143D01*
X25156071Y35378572D01*
X25241785Y35378572D01*
X24784642Y35378572D02*
X24734642Y35778572D01*
X24748928Y35664286D02*
X24713214Y35721429D01*
X24681071Y35750000D01*
X24620357Y35778572D01*
X24563214Y35778572D01*
X23641785Y35378572D02*
X23984642Y35378572D01*
X23813214Y35378572D02*
X23738214Y35978572D01*
X23806071Y35892858D01*
X23870357Y35835715D01*
X23931071Y35807143D01*
X23377500Y35435715D02*
X23352500Y35407143D01*
X23384642Y35378572D01*
X23409642Y35407143D01*
X23377500Y35435715D01*
X23384642Y35378572D01*
X22970357Y35721429D02*
X23023928Y35750000D01*
X23048928Y35778572D01*
X23070357Y35835715D01*
X23066785Y35864286D01*
X23031071Y35921429D01*
X22998928Y35950000D01*
X22938214Y35978572D01*
X22823928Y35978572D01*
X22770357Y35950000D01*
X22745357Y35921429D01*
X22723928Y35864286D01*
X22727500Y35835715D01*
X22763214Y35778572D01*
X22795357Y35750000D01*
X22856071Y35721429D01*
X22970357Y35721429D01*
X23031071Y35692858D01*
X23063214Y35664286D01*
X23098928Y35607143D01*
X23113214Y35492858D01*
X23091785Y35435715D01*
X23066785Y35407143D01*
X23013214Y35378572D01*
X22898928Y35378572D01*
X22838214Y35407143D01*
X22806071Y35435715D01*
X22770357Y35492858D01*
X22756071Y35607143D01*
X22777500Y35664286D01*
X22802500Y35692858D01*
X22856071Y35721429D01*
X22081071Y35978572D02*
X21956071Y35378572D01*
X21681071Y35978572D01*
X21013214Y35378572D02*
X21066785Y35407143D01*
X21088214Y35464286D01*
X21023928Y35978572D01*
X20698928Y35378572D02*
X20752500Y35407143D01*
X20777500Y35435715D01*
X20798928Y35492858D01*
X20777500Y35664286D01*
X20741785Y35721429D01*
X20709642Y35750000D01*
X20648928Y35778572D01*
X20563214Y35778572D01*
X20509642Y35750000D01*
X20484642Y35721429D01*
X20463214Y35664286D01*
X20484642Y35492858D01*
X20520357Y35435715D01*
X20552500Y35407143D01*
X20613214Y35378572D01*
X20698928Y35378572D01*
X19934642Y35778572D02*
X19995357Y35292858D01*
X20031071Y35235715D01*
X20063214Y35207143D01*
X20123928Y35178572D01*
X20209642Y35178572D01*
X20263214Y35207143D01*
X19981071Y35407143D02*
X20041785Y35378572D01*
X20156071Y35378572D01*
X20209642Y35407143D01*
X20234642Y35435715D01*
X20256071Y35492858D01*
X20234642Y35664286D01*
X20198928Y35721429D01*
X20166785Y35750000D01*
X20106071Y35778572D01*
X19991785Y35778572D01*
X19938214Y35750000D01*
X19698928Y35378572D02*
X19648928Y35778572D01*
X19623928Y35978572D02*
X19656071Y35950000D01*
X19631071Y35921429D01*
X19598928Y35950000D01*
X19623928Y35978572D01*
X19631071Y35921429D01*
X19152500Y35407143D02*
X19213214Y35378572D01*
X19327500Y35378572D01*
X19381071Y35407143D01*
X19406071Y35435715D01*
X19427500Y35492858D01*
X19406071Y35664286D01*
X19370357Y35721429D01*
X19338214Y35750000D01*
X19277500Y35778572D01*
X19163214Y35778572D01*
X19109642Y35750000D01*
X31406071Y34385715D02*
X31438214Y34357143D01*
X31527500Y34328572D01*
X31584642Y34328572D01*
X31666785Y34357143D01*
X31716785Y34414286D01*
X31738214Y34471429D01*
X31752500Y34585715D01*
X31741785Y34671429D01*
X31698928Y34785715D01*
X31663214Y34842858D01*
X31598928Y34900000D01*
X31509642Y34928572D01*
X31452500Y34928572D01*
X31370357Y34900000D01*
X31345357Y34871429D01*
X31070357Y34328572D02*
X31123928Y34357143D01*
X31148928Y34385715D01*
X31170357Y34442858D01*
X31148928Y34614286D01*
X31113214Y34671429D01*
X31081071Y34700000D01*
X31020357Y34728572D01*
X30934642Y34728572D01*
X30881071Y34700000D01*
X30856071Y34671429D01*
X30834642Y34614286D01*
X30856071Y34442858D01*
X30891785Y34385715D01*
X30923928Y34357143D01*
X30984642Y34328572D01*
X31070357Y34328572D01*
X30563214Y34728572D02*
X30613214Y34328572D01*
X30570357Y34671429D02*
X30538214Y34700000D01*
X30477500Y34728572D01*
X30391785Y34728572D01*
X30338214Y34700000D01*
X30316785Y34642858D01*
X30356071Y34328572D01*
X30020357Y34728572D02*
X30070357Y34328572D01*
X30027500Y34671429D02*
X29995357Y34700000D01*
X29934642Y34728572D01*
X29848928Y34728572D01*
X29795357Y34700000D01*
X29773928Y34642858D01*
X29813214Y34328572D01*
X29295357Y34357143D02*
X29356071Y34328572D01*
X29470357Y34328572D01*
X29523928Y34357143D01*
X29545357Y34414286D01*
X29516785Y34642858D01*
X29481071Y34700000D01*
X29420357Y34728572D01*
X29306071Y34728572D01*
X29252500Y34700000D01*
X29231071Y34642858D01*
X29238214Y34585715D01*
X29531071Y34528572D01*
X28752500Y34357143D02*
X28813214Y34328572D01*
X28927500Y34328572D01*
X28981071Y34357143D01*
X29006071Y34385715D01*
X29027500Y34442858D01*
X29006071Y34614286D01*
X28970357Y34671429D01*
X28938214Y34700000D01*
X28877500Y34728572D01*
X28763214Y34728572D01*
X28709642Y34700000D01*
X28534642Y34728572D02*
X28306071Y34728572D01*
X28423928Y34928572D02*
X28488214Y34414286D01*
X28466785Y34357143D01*
X28413214Y34328572D01*
X28356071Y34328572D01*
X27698928Y34328572D02*
X27648928Y34728572D01*
X27623928Y34928572D02*
X27656071Y34900000D01*
X27631071Y34871429D01*
X27598928Y34900000D01*
X27623928Y34928572D01*
X27631071Y34871429D01*
X27448928Y34728572D02*
X27220357Y34728572D01*
X27338214Y34928572D02*
X27402500Y34414286D01*
X27381071Y34357143D01*
X27327500Y34328572D01*
X27270357Y34328572D01*
X27095357Y34357143D02*
X27041785Y34328572D01*
X26927500Y34328572D01*
X26866785Y34357143D01*
X26831071Y34414286D01*
X26827500Y34442858D01*
X26848928Y34500000D01*
X26902500Y34528572D01*
X26988214Y34528572D01*
X27041785Y34557143D01*
X27063214Y34614286D01*
X27059642Y34642858D01*
X27023928Y34700000D01*
X26963214Y34728572D01*
X26877500Y34728572D01*
X26823928Y34700000D01*
X26127500Y34328572D02*
X26052500Y34928572D01*
X26081071Y34700000D02*
X26020357Y34728572D01*
X25906071Y34728572D01*
X25852500Y34700000D01*
X25827500Y34671429D01*
X25806071Y34614286D01*
X25827500Y34442858D01*
X25863214Y34385715D01*
X25895357Y34357143D01*
X25956071Y34328572D01*
X26070357Y34328572D01*
X26123928Y34357143D01*
X25498928Y34328572D02*
X25552500Y34357143D01*
X25577500Y34385715D01*
X25598928Y34442858D01*
X25577500Y34614286D01*
X25541785Y34671429D01*
X25509642Y34700000D01*
X25448928Y34728572D01*
X25363214Y34728572D01*
X25309642Y34700000D01*
X25284642Y34671429D01*
X25263214Y34614286D01*
X25284642Y34442858D01*
X25320357Y34385715D01*
X25352500Y34357143D01*
X25413214Y34328572D01*
X25498928Y34328572D01*
X25077500Y34728572D02*
X24848928Y34728572D01*
X24966785Y34928572D02*
X25031071Y34414286D01*
X25009642Y34357143D01*
X24956071Y34328572D01*
X24898928Y34328572D01*
X24734642Y34728572D02*
X24506071Y34728572D01*
X24623928Y34928572D02*
X24688214Y34414286D01*
X24666785Y34357143D01*
X24613214Y34328572D01*
X24556071Y34328572D01*
X24270357Y34328572D02*
X24323928Y34357143D01*
X24348928Y34385715D01*
X24370357Y34442858D01*
X24348928Y34614286D01*
X24313214Y34671429D01*
X24281071Y34700000D01*
X24220357Y34728572D01*
X24134642Y34728572D01*
X24081071Y34700000D01*
X24056071Y34671429D01*
X24034642Y34614286D01*
X24056071Y34442858D01*
X24091785Y34385715D01*
X24123928Y34357143D01*
X24184642Y34328572D01*
X24270357Y34328572D01*
X23813214Y34328572D02*
X23763214Y34728572D01*
X23770357Y34671429D02*
X23738214Y34700000D01*
X23677500Y34728572D01*
X23591785Y34728572D01*
X23538214Y34700000D01*
X23516785Y34642858D01*
X23556071Y34328572D01*
X23516785Y34642858D02*
X23481071Y34700000D01*
X23420357Y34728572D01*
X23334642Y34728572D01*
X23281071Y34700000D01*
X23259642Y34642858D01*
X23298928Y34328572D01*
X22506071Y34728572D02*
X22581071Y34128572D01*
X22509642Y34700000D02*
X22448928Y34728572D01*
X22334642Y34728572D01*
X22281071Y34700000D01*
X22256071Y34671429D01*
X22234642Y34614286D01*
X22256071Y34442858D01*
X22291785Y34385715D01*
X22323928Y34357143D01*
X22384642Y34328572D01*
X22498928Y34328572D01*
X22552500Y34357143D01*
X21756071Y34328572D02*
X21716785Y34642858D01*
X21738214Y34700000D01*
X21791785Y34728572D01*
X21906071Y34728572D01*
X21966785Y34700000D01*
X21752500Y34357143D02*
X21813214Y34328572D01*
X21956071Y34328572D01*
X22009642Y34357143D01*
X22031071Y34414286D01*
X22023928Y34471429D01*
X21988214Y34528572D01*
X21927500Y34557143D01*
X21784642Y34557143D01*
X21723928Y34585715D01*
X21213214Y34328572D02*
X21138214Y34928572D01*
X21209642Y34357143D02*
X21270357Y34328572D01*
X21384642Y34328572D01*
X21438214Y34357143D01*
X21463214Y34385715D01*
X21484642Y34442858D01*
X21463214Y34614286D01*
X21427500Y34671429D01*
X21395357Y34700000D01*
X21334642Y34728572D01*
X21220357Y34728572D01*
X21166785Y34700000D01*
X31791785Y33678572D02*
X31563214Y33678572D01*
X31681071Y33878572D02*
X31745357Y33364286D01*
X31723928Y33307143D01*
X31670357Y33278572D01*
X31613214Y33278572D01*
X31327500Y33278572D02*
X31381071Y33307143D01*
X31406071Y33335715D01*
X31427500Y33392858D01*
X31406071Y33564286D01*
X31370357Y33621429D01*
X31338214Y33650000D01*
X31277500Y33678572D01*
X31191785Y33678572D01*
X31138214Y33650000D01*
X31113214Y33621429D01*
X31091785Y33564286D01*
X31113214Y33392858D01*
X31148928Y33335715D01*
X31181071Y33307143D01*
X31241785Y33278572D01*
X31327500Y33278572D01*
X30423928Y33878572D02*
X30298928Y33278572D01*
X30023928Y33878572D01*
X29898928Y33278572D02*
X29823928Y33878572D01*
X29681071Y33878572D01*
X29598928Y33850000D01*
X29548928Y33792858D01*
X29527500Y33735715D01*
X29513214Y33621429D01*
X29523928Y33535715D01*
X29566785Y33421429D01*
X29602500Y33364286D01*
X29666785Y33307143D01*
X29756071Y33278572D01*
X29898928Y33278572D01*
X29298928Y33278572D02*
X29223928Y33878572D01*
X29081071Y33878572D01*
X28998928Y33850000D01*
X28948928Y33792858D01*
X28927500Y33735715D01*
X28913214Y33621429D01*
X28923928Y33535715D01*
X28966785Y33421429D01*
X29002500Y33364286D01*
X29066785Y33307143D01*
X29156071Y33278572D01*
X29298928Y33278572D01*
X28848928Y33221429D02*
X28391785Y33221429D01*
X28248928Y33450000D02*
X27963214Y33450000D01*
X28327500Y33278572D02*
X28052500Y33878572D01*
X27927500Y33278572D01*
X27727500Y33278572D02*
X27652500Y33878572D01*
X27509642Y33878572D01*
X27427500Y33850000D01*
X27377500Y33792858D01*
X27356071Y33735715D01*
X27341785Y33621429D01*
X27352500Y33535715D01*
X27395357Y33421429D01*
X27431071Y33364286D01*
X27495357Y33307143D01*
X27584642Y33278572D01*
X27727500Y33278572D01*
X26777500Y33335715D02*
X26809642Y33307143D01*
X26898928Y33278572D01*
X26956071Y33278572D01*
X27038214Y33307143D01*
X27088214Y33364286D01*
X27109642Y33421429D01*
X27123928Y33535715D01*
X27113214Y33621429D01*
X27070357Y33735715D01*
X27034642Y33792858D01*
X26970357Y33850000D01*
X26881071Y33878572D01*
X26823928Y33878572D01*
X26741785Y33850000D01*
X26716785Y33821429D01*
X25927500Y33050000D02*
X25952500Y33078572D01*
X25998928Y33164286D01*
X26020357Y33221429D01*
X26038214Y33307143D01*
X26048928Y33450000D01*
X26034642Y33564286D01*
X25988214Y33707143D01*
X25948928Y33792858D01*
X25913214Y33850000D01*
X25845357Y33935715D01*
X25813214Y33964286D01*
X25356071Y33278572D02*
X25698928Y33278572D01*
X25527500Y33278572D02*
X25452500Y33878572D01*
X25520357Y33792858D01*
X25584642Y33735715D01*
X25645357Y33707143D01*
X25109642Y33878572D02*
X24984642Y33278572D01*
X24709642Y33878572D01*
X24456071Y33621429D02*
X24509642Y33650000D01*
X24534642Y33678572D01*
X24556071Y33735715D01*
X24552500Y33764286D01*
X24516785Y33821429D01*
X24484642Y33850000D01*
X24423928Y33878572D01*
X24309642Y33878572D01*
X24256071Y33850000D01*
X24231071Y33821429D01*
X24209642Y33764286D01*
X24213214Y33735715D01*
X24248928Y33678572D01*
X24281071Y33650000D01*
X24341785Y33621429D01*
X24456071Y33621429D01*
X24516785Y33592858D01*
X24548928Y33564286D01*
X24584642Y33507143D01*
X24598928Y33392858D01*
X24577500Y33335715D01*
X24552500Y33307143D01*
X24498928Y33278572D01*
X24384642Y33278572D01*
X24323928Y33307143D01*
X24291785Y33335715D01*
X24256071Y33392858D01*
X24241785Y33507143D01*
X24263214Y33564286D01*
X24288214Y33592858D01*
X24341785Y33621429D01*
X24098928Y33050000D02*
X24066785Y33078572D01*
X23998928Y33164286D01*
X23963214Y33221429D01*
X23923928Y33307143D01*
X23877500Y33450000D01*
X23863214Y33564286D01*
X23873928Y33707143D01*
X23891785Y33792858D01*
X23913214Y33850000D01*
X23959642Y33935715D01*
X23984642Y33964286D01*
X47640595Y46389286D02*
X47683452Y46351191D01*
X47802500Y46313096D01*
X47878690Y46313096D01*
X47988214Y46351191D01*
X48054880Y46427381D01*
X48083452Y46503572D01*
X48102500Y46655953D01*
X48088214Y46770239D01*
X48031071Y46922620D01*
X47983452Y46998810D01*
X47897738Y47075000D01*
X47778690Y47113096D01*
X47702500Y47113096D01*
X47592976Y47075000D01*
X47559642Y47036905D01*
X47307261Y46313096D02*
X47207261Y47113096D01*
X47254880Y46732143D02*
X46797738Y46732143D01*
X46850119Y46313096D02*
X46750119Y47113096D01*
X46050119Y46313096D02*
X46507261Y46313096D01*
X46278690Y46313096D02*
X46178690Y47113096D01*
X46269166Y46998810D01*
X46354880Y46922620D01*
X46435833Y46884524D01*
X45683452Y47113096D02*
X45188214Y47113096D01*
X45492976Y46808334D01*
X45378690Y46808334D01*
X45307261Y46770239D01*
X45273928Y46732143D01*
X45245357Y46655953D01*
X45269166Y46465477D01*
X45316785Y46389286D01*
X45359642Y46351191D01*
X45440595Y46313096D01*
X45669166Y46313096D01*
X45740595Y46351191D01*
X45773928Y46389286D01*
X44297738Y46313096D02*
X44335833Y46313096D01*
X44407261Y46351191D01*
X44507261Y46465477D01*
X44669166Y46694048D01*
X44731071Y46808334D01*
X44754880Y46922620D01*
X44745357Y46998810D01*
X44697738Y47075000D01*
X44616785Y47113096D01*
X44578690Y47113096D01*
X44507261Y47075000D01*
X44478690Y46998810D01*
X44483452Y46960715D01*
X44531071Y46884524D01*
X44573928Y46846429D01*
X44821547Y46694048D01*
X44864404Y46655953D01*
X44912023Y46579762D01*
X44926309Y46465477D01*
X44897738Y46389286D01*
X44864404Y46351191D01*
X44792976Y46313096D01*
X44678690Y46313096D01*
X44597738Y46351191D01*
X44554880Y46389286D01*
X44421547Y46541667D01*
X44369166Y46655953D01*
X44359642Y46732143D01*
X43535833Y46313096D02*
X43992976Y46313096D01*
X43764404Y46313096D02*
X43664404Y47113096D01*
X43754880Y46998810D01*
X43840595Y46922620D01*
X43921547Y46884524D01*
X42783452Y46846429D02*
X42850119Y46313096D01*
X42935833Y47151191D02*
X43197738Y46579762D01*
X42702500Y46579762D01*
X41769166Y46732143D02*
X41502500Y46732143D01*
X41440595Y46313096D02*
X41821547Y46313096D01*
X41721547Y47113096D01*
X41340595Y47113096D01*
X41031071Y46846429D02*
X41097738Y46313096D01*
X41040595Y46770239D02*
X40997738Y46808334D01*
X40916785Y46846429D01*
X40802500Y46846429D01*
X40731071Y46808334D01*
X40702500Y46732143D01*
X40754880Y46313096D01*
X40031071Y46313096D02*
X39978690Y46732143D01*
X40007261Y46808334D01*
X40078690Y46846429D01*
X40231071Y46846429D01*
X40312023Y46808334D01*
X40026309Y46351191D02*
X40107261Y46313096D01*
X40297738Y46313096D01*
X40369166Y46351191D01*
X40397738Y46427381D01*
X40388214Y46503572D01*
X40340595Y46579762D01*
X40259642Y46617858D01*
X40069166Y46617858D01*
X39988214Y46655953D01*
X39650119Y46313096D02*
X39550119Y47113096D01*
X39588214Y46808334D02*
X39507261Y46846429D01*
X39354880Y46846429D01*
X39283452Y46808334D01*
X39250119Y46770239D01*
X39221547Y46694048D01*
X39250119Y46465477D01*
X39297738Y46389286D01*
X39340595Y46351191D01*
X39421547Y46313096D01*
X39573928Y46313096D01*
X39645357Y46351191D01*
X38812023Y46313096D02*
X38883452Y46351191D01*
X38912023Y46427381D01*
X38826309Y47113096D01*
X38197738Y46351191D02*
X38278690Y46313096D01*
X38431071Y46313096D01*
X38502500Y46351191D01*
X38531071Y46427381D01*
X38492976Y46732143D01*
X38445357Y46808334D01*
X38364404Y46846429D01*
X38212023Y46846429D01*
X38140595Y46808334D01*
X38112023Y46732143D01*
X38121547Y46655953D01*
X38512023Y46579762D01*
X36802500Y46846429D02*
X36869166Y46313096D01*
X37145357Y46846429D02*
X37197738Y46427381D01*
X37169166Y46351191D01*
X37097738Y46313096D01*
X36983452Y46313096D01*
X36902500Y46351191D01*
X36859642Y46389286D01*
X36521547Y46351191D02*
X36450119Y46313096D01*
X36297738Y46313096D01*
X36216785Y46351191D01*
X36169166Y46427381D01*
X36164404Y46465477D01*
X36192976Y46541667D01*
X36264404Y46579762D01*
X36378690Y46579762D01*
X36450119Y46617858D01*
X36478690Y46694048D01*
X36473928Y46732143D01*
X36426309Y46808334D01*
X36345357Y46846429D01*
X36231071Y46846429D01*
X36159642Y46808334D01*
X35840595Y46313096D02*
X35773928Y46846429D01*
X35740595Y47113096D02*
X35783452Y47075000D01*
X35750119Y47036905D01*
X35707261Y47075000D01*
X35740595Y47113096D01*
X35750119Y47036905D01*
X35392976Y46846429D02*
X35459642Y46313096D01*
X35402500Y46770239D02*
X35359642Y46808334D01*
X35278690Y46846429D01*
X35164404Y46846429D01*
X35092976Y46808334D01*
X35064404Y46732143D01*
X35116785Y46313096D01*
X34326309Y46846429D02*
X34407261Y46198810D01*
X34454880Y46122620D01*
X34497738Y46084524D01*
X34578690Y46046429D01*
X34692976Y46046429D01*
X34764404Y46084524D01*
X34388214Y46351191D02*
X34469166Y46313096D01*
X34621547Y46313096D01*
X34692976Y46351191D01*
X34726309Y46389286D01*
X34754880Y46465477D01*
X34726309Y46694048D01*
X34678690Y46770239D01*
X34635833Y46808334D01*
X34554880Y46846429D01*
X34402500Y46846429D01*
X34331071Y46808334D01*
X33150119Y47113096D02*
X33073928Y47113096D01*
X33002500Y47075000D01*
X32969166Y47036905D01*
X32940595Y46960715D01*
X32921547Y46808334D01*
X32945357Y46617858D01*
X33002500Y46465477D01*
X33050119Y46389286D01*
X33092976Y46351191D01*
X33173928Y46313096D01*
X33250119Y46313096D01*
X33321547Y46351191D01*
X33354880Y46389286D01*
X33383452Y46465477D01*
X33402500Y46617858D01*
X33378690Y46808334D01*
X33321547Y46960715D01*
X33273928Y47036905D01*
X33231071Y47075000D01*
X33150119Y47113096D01*
X32183452Y46313096D02*
X32402500Y46694048D01*
X32640595Y46313096D02*
X32540595Y47113096D01*
X32235833Y47113096D01*
X32164404Y47075000D01*
X32131071Y47036905D01*
X32102500Y46960715D01*
X32116785Y46846429D01*
X32164404Y46770239D01*
X32207261Y46732143D01*
X32288214Y46694048D01*
X32592976Y46694048D01*
X48083452Y45763096D02*
X47992976Y44963096D01*
X47769166Y45534524D01*
X47688214Y44963096D01*
X47397738Y45763096D01*
X47202500Y45191667D02*
X46821547Y45191667D01*
X47307261Y44963096D02*
X46940595Y45763096D01*
X46773928Y44963096D01*
X46050119Y44963096D02*
X46269166Y45344048D01*
X46507261Y44963096D02*
X46407261Y45763096D01*
X46102500Y45763096D01*
X46031071Y45725000D01*
X45997738Y45686905D01*
X45969166Y45610715D01*
X45983452Y45496429D01*
X46031071Y45420239D01*
X46073928Y45382143D01*
X46154880Y45344048D01*
X46459642Y45344048D01*
X45707261Y44963096D02*
X45607261Y45763096D01*
X45250119Y44963096D01*
X45150119Y45763096D01*
X44869166Y44963096D02*
X44769166Y45763096D01*
X44488214Y44963096D02*
X44388214Y45763096D01*
X44031071Y44963096D01*
X43931071Y45763096D01*
X43135833Y45725000D02*
X43207261Y45763096D01*
X43321547Y45763096D01*
X43440595Y45725000D01*
X43526309Y45648810D01*
X43573928Y45572620D01*
X43631071Y45420239D01*
X43645357Y45305953D01*
X43626309Y45153572D01*
X43597738Y45077381D01*
X43531071Y45001191D01*
X43421547Y44963096D01*
X43345357Y44963096D01*
X43226309Y45001191D01*
X43183452Y45039286D01*
X43150119Y45305953D01*
X43302500Y45305953D01*
X42840595Y45039286D02*
X42807261Y45001191D01*
X42850119Y44963096D01*
X42883452Y45001191D01*
X42840595Y45039286D01*
X42850119Y44963096D01*
X42788214Y45458334D02*
X42754880Y45420239D01*
X42797738Y45382143D01*
X42831071Y45420239D01*
X42788214Y45458334D01*
X42797738Y45382143D01*
X42469166Y44963096D02*
X42369166Y45763096D01*
X42178690Y45763096D01*
X42069166Y45725000D01*
X42002500Y45648810D01*
X41973928Y45572620D01*
X41954880Y45420239D01*
X41969166Y45305953D01*
X42026309Y45153572D01*
X42073928Y45077381D01*
X42159642Y45001191D01*
X42278690Y44963096D01*
X42469166Y44963096D01*
X41669166Y44963096D02*
X41602500Y45496429D01*
X41569166Y45763096D02*
X41612023Y45725000D01*
X41578690Y45686905D01*
X41535833Y45725000D01*
X41569166Y45763096D01*
X41578690Y45686905D01*
X41321547Y45001191D02*
X41250119Y44963096D01*
X41097738Y44963096D01*
X41016785Y45001191D01*
X40969166Y45077381D01*
X40964404Y45115477D01*
X40992976Y45191667D01*
X41064404Y45229762D01*
X41178690Y45229762D01*
X41250119Y45267858D01*
X41278690Y45344048D01*
X41273928Y45382143D01*
X41226309Y45458334D01*
X41145357Y45496429D01*
X41031071Y45496429D01*
X40959642Y45458334D01*
X40297738Y44963096D02*
X40245357Y45382143D01*
X40273928Y45458334D01*
X40345357Y45496429D01*
X40497738Y45496429D01*
X40578690Y45458334D01*
X40292976Y45001191D02*
X40373928Y44963096D01*
X40564404Y44963096D01*
X40635833Y45001191D01*
X40664404Y45077381D01*
X40654880Y45153572D01*
X40607261Y45229762D01*
X40526309Y45267858D01*
X40335833Y45267858D01*
X40254880Y45305953D01*
X39916785Y44963096D02*
X39816785Y45763096D01*
X39854880Y45458334D02*
X39773928Y45496429D01*
X39621547Y45496429D01*
X39550119Y45458334D01*
X39516785Y45420239D01*
X39488214Y45344048D01*
X39516785Y45115477D01*
X39564404Y45039286D01*
X39607261Y45001191D01*
X39688214Y44963096D01*
X39840595Y44963096D01*
X39912023Y45001191D01*
X39078690Y44963096D02*
X39150119Y45001191D01*
X39178690Y45077381D01*
X39092976Y45763096D01*
X38464404Y45001191D02*
X38545357Y44963096D01*
X38697738Y44963096D01*
X38769166Y45001191D01*
X38797738Y45077381D01*
X38759642Y45382143D01*
X38712023Y45458334D01*
X38631071Y45496429D01*
X38478690Y45496429D01*
X38407261Y45458334D01*
X38378690Y45382143D01*
X38388214Y45305953D01*
X38778690Y45229762D01*
X37169166Y45001191D02*
X37250119Y44963096D01*
X37402500Y44963096D01*
X37473928Y45001191D01*
X37502500Y45077381D01*
X37464404Y45382143D01*
X37416785Y45458334D01*
X37335833Y45496429D01*
X37183452Y45496429D01*
X37112023Y45458334D01*
X37083452Y45382143D01*
X37092976Y45305953D01*
X37483452Y45229762D01*
X36792976Y44963096D02*
X36692976Y45763096D01*
X36497738Y45191667D01*
X36159642Y45763096D01*
X36259642Y44963096D01*
X35878690Y44963096D02*
X35778690Y45763096D01*
X35583452Y45191667D01*
X35245357Y45763096D01*
X35345357Y44963096D01*
X34497738Y45039286D02*
X34540595Y45001191D01*
X34659642Y44963096D01*
X34735833Y44963096D01*
X34845357Y45001191D01*
X34912023Y45077381D01*
X34940595Y45153572D01*
X34959642Y45305953D01*
X34945357Y45420239D01*
X34888214Y45572620D01*
X34840595Y45648810D01*
X34754880Y45725000D01*
X34635833Y45763096D01*
X34559642Y45763096D01*
X34450119Y45725000D01*
X34416785Y45686905D01*
X33602500Y45496429D02*
X33297738Y45496429D01*
X33554880Y44963096D02*
X33469166Y45648810D01*
X33421547Y45725000D01*
X33340595Y45763096D01*
X33264404Y45763096D01*
X33097738Y44963096D02*
X33031071Y45496429D01*
X32997738Y45763096D02*
X33040595Y45725000D01*
X33007261Y45686905D01*
X32964404Y45725000D01*
X32997738Y45763096D01*
X33007261Y45686905D01*
X32716785Y44963096D02*
X32650119Y45496429D01*
X32669166Y45344048D02*
X32621547Y45420239D01*
X32578690Y45458334D01*
X32497738Y45496429D01*
X32421547Y45496429D01*
X32254880Y45001191D02*
X32183452Y44963096D01*
X32031071Y44963096D01*
X31950119Y45001191D01*
X31902500Y45077381D01*
X31897738Y45115477D01*
X31926309Y45191667D01*
X31997738Y45229762D01*
X32112023Y45229762D01*
X32183452Y45267858D01*
X32212023Y45344048D01*
X32207261Y45382143D01*
X32159642Y45458334D01*
X32078690Y45496429D01*
X31964404Y45496429D01*
X31892976Y45458334D01*
X31621547Y45496429D02*
X31316785Y45496429D01*
X31473928Y45763096D02*
X31559642Y45077381D01*
X31531071Y45001191D01*
X31459642Y44963096D01*
X31383452Y44963096D01*
X11700000Y36083334D02*
X11366666Y36083334D01*
X11766666Y35883334D02*
X11533333Y36583334D01*
X11300000Y35883334D01*
X10700000Y35883334D02*
X11100000Y35883334D01*
X10900000Y35883334D02*
X10900000Y36583334D01*
X10966666Y36483334D01*
X11033333Y36416667D01*
X11100000Y36383334D01*
X13500000Y36083334D02*
X13166666Y36083334D01*
X13566666Y35883334D02*
X13333333Y36583334D01*
X13100000Y35883334D01*
X12733333Y36583334D02*
X12666666Y36583334D01*
X12600000Y36550000D01*
X12566666Y36516667D01*
X12533333Y36450000D01*
X12500000Y36316667D01*
X12500000Y36150000D01*
X12533333Y36016667D01*
X12566666Y35950000D01*
X12600000Y35916667D01*
X12666666Y35883334D01*
X12733333Y35883334D01*
X12800000Y35916667D01*
X12833333Y35950000D01*
X12866666Y36016667D01*
X12900000Y36150000D01*
X12900000Y36316667D01*
X12866666Y36450000D01*
X12833333Y36516667D01*
X12800000Y36550000D01*
X12733333Y36583334D01*
D11*
X15066666Y34919167D02*
X14966666Y34885834D01*
X14800000Y34885834D01*
X14733333Y34919167D01*
X14700000Y34952500D01*
X14666666Y35019167D01*
X14666666Y35085834D01*
X14700000Y35152500D01*
X14733333Y35185834D01*
X14800000Y35219167D01*
X14933333Y35252500D01*
X15000000Y35285834D01*
X15033333Y35319167D01*
X15066666Y35385834D01*
X15066666Y35452500D01*
X15033333Y35519167D01*
X15000000Y35552500D01*
X14933333Y35585834D01*
X14766666Y35585834D01*
X14666666Y35552500D01*
X14366666Y34885834D02*
X14366666Y35585834D01*
X14066666Y34885834D02*
X14066666Y35252500D01*
X14100000Y35319167D01*
X14166666Y35352500D01*
X14266666Y35352500D01*
X14333333Y35319167D01*
X14366666Y35285834D01*
X13433333Y35352500D02*
X13433333Y34885834D01*
X13733333Y35352500D02*
X13733333Y34985834D01*
X13700000Y34919167D01*
X13633333Y34885834D01*
X13533333Y34885834D01*
X13466666Y34919167D01*
X13433333Y34952500D01*
X13100000Y35352500D02*
X13100000Y34885834D01*
X13100000Y35285834D02*
X13066666Y35319167D01*
X13000000Y35352500D01*
X12900000Y35352500D01*
X12833333Y35319167D01*
X12800000Y35252500D01*
X12800000Y34885834D01*
X12566666Y35352500D02*
X12300000Y35352500D01*
X12466666Y35585834D02*
X12466666Y34985834D01*
X12433333Y34919167D01*
X12366666Y34885834D01*
X12300000Y34885834D01*
X11633333Y35352500D02*
X11366666Y35352500D01*
X11533333Y35585834D02*
X11533333Y34985834D01*
X11500000Y34919167D01*
X11433333Y34885834D01*
X11366666Y34885834D01*
X11033333Y34885834D02*
X11100000Y34919167D01*
X11133333Y34952500D01*
X11166666Y35019167D01*
X11166666Y35219167D01*
X11133333Y35285834D01*
X11100000Y35319167D01*
X11033333Y35352500D01*
X10933333Y35352500D01*
X10866666Y35319167D01*
X10833333Y35285834D01*
X10800000Y35219167D01*
X10800000Y35019167D01*
X10833333Y34952500D01*
X10866666Y34919167D01*
X10933333Y34885834D01*
X11033333Y34885834D01*
X9933333Y35585834D02*
X10000000Y35452500D01*
X9500000Y35585834D02*
X9433333Y35585834D01*
X9366666Y35552500D01*
X9333333Y35519167D01*
X9300000Y35452500D01*
X9266666Y35319167D01*
X9266666Y35152500D01*
X9300000Y35019167D01*
X9333333Y34952500D01*
X9366666Y34919167D01*
X9433333Y34885834D01*
X9500000Y34885834D01*
X9566666Y34919167D01*
X9600000Y34952500D01*
X9633333Y35019167D01*
X9666666Y35152500D01*
X9666666Y35319167D01*
X9633333Y35452500D01*
X9600000Y35519167D01*
X9566666Y35552500D01*
X9500000Y35585834D01*
X8933333Y35585834D02*
X9000000Y35452500D01*
X15000000Y33747500D02*
X15033333Y33714167D01*
X15133333Y33680834D01*
X15200000Y33680834D01*
X15300000Y33714167D01*
X15366666Y33780834D01*
X15400000Y33847500D01*
X15433333Y33980834D01*
X15433333Y34080834D01*
X15400000Y34214167D01*
X15366666Y34280834D01*
X15300000Y34347500D01*
X15200000Y34380834D01*
X15133333Y34380834D01*
X15033333Y34347500D01*
X15000000Y34314167D01*
X14400000Y33680834D02*
X14400000Y34047500D01*
X14433333Y34114167D01*
X14500000Y34147500D01*
X14633333Y34147500D01*
X14700000Y34114167D01*
X14400000Y33714167D02*
X14466666Y33680834D01*
X14633333Y33680834D01*
X14700000Y33714167D01*
X14733333Y33780834D01*
X14733333Y33847500D01*
X14700000Y33914167D01*
X14633333Y33947500D01*
X14466666Y33947500D01*
X14400000Y33980834D01*
X14066666Y34147500D02*
X14066666Y33447500D01*
X14066666Y34114167D02*
X14000000Y34147500D01*
X13866666Y34147500D01*
X13800000Y34114167D01*
X13766666Y34080834D01*
X13733333Y34014167D01*
X13733333Y33814167D01*
X13766666Y33747500D01*
X13800000Y33714167D01*
X13866666Y33680834D01*
X14000000Y33680834D01*
X14066666Y33714167D01*
X13166666Y33714167D02*
X13233333Y33680834D01*
X13366666Y33680834D01*
X13433333Y33714167D01*
X13466666Y33780834D01*
X13466666Y34047500D01*
X13433333Y34114167D01*
X13366666Y34147500D01*
X13233333Y34147500D01*
X13166666Y34114167D01*
X13133333Y34047500D01*
X13133333Y33980834D01*
X13466666Y33914167D01*
X12333333Y33880834D02*
X12000000Y33880834D01*
X12400000Y33680834D02*
X12166666Y34380834D01*
X11933333Y33680834D01*
X11400000Y33680834D02*
X11400000Y34380834D01*
X11400000Y33714167D02*
X11466666Y33680834D01*
X11600000Y33680834D01*
X11666666Y33714167D01*
X11700000Y33747500D01*
X11733333Y33814167D01*
X11733333Y34014167D01*
X11700000Y34080834D01*
X11666666Y34114167D01*
X11600000Y34147500D01*
X11466666Y34147500D01*
X11400000Y34114167D01*
X10766666Y33680834D02*
X10766666Y34380834D01*
X10766666Y33714167D02*
X10833333Y33680834D01*
X10966666Y33680834D01*
X11033333Y33714167D01*
X11066666Y33747500D01*
X11100000Y33814167D01*
X11100000Y34014167D01*
X11066666Y34080834D01*
X11033333Y34114167D01*
X10966666Y34147500D01*
X10833333Y34147500D01*
X10766666Y34114167D01*
X10433333Y33680834D02*
X10433333Y34147500D01*
X10433333Y34014167D02*
X10400000Y34080834D01*
X10366666Y34114167D01*
X10300000Y34147500D01*
X10233333Y34147500D01*
X9733333Y33714167D02*
X9800000Y33680834D01*
X9933333Y33680834D01*
X10000000Y33714167D01*
X10033333Y33780834D01*
X10033333Y34047500D01*
X10000000Y34114167D01*
X9933333Y34147500D01*
X9800000Y34147500D01*
X9733333Y34114167D01*
X9700000Y34047500D01*
X9700000Y33980834D01*
X10033333Y33914167D01*
X9433333Y33714167D02*
X9366666Y33680834D01*
X9233333Y33680834D01*
X9166666Y33714167D01*
X9133333Y33780834D01*
X9133333Y33814167D01*
X9166666Y33880834D01*
X9233333Y33914167D01*
X9333333Y33914167D01*
X9400000Y33947500D01*
X9433333Y34014167D01*
X9433333Y34047500D01*
X9400000Y34114167D01*
X9333333Y34147500D01*
X9233333Y34147500D01*
X9166666Y34114167D01*
X8866666Y33714167D02*
X8800000Y33680834D01*
X8666666Y33680834D01*
X8600000Y33714167D01*
X8566666Y33780834D01*
X8566666Y33814167D01*
X8600000Y33880834D01*
X8666666Y33914167D01*
X8766666Y33914167D01*
X8833333Y33947500D01*
X8866666Y34014167D01*
X8866666Y34047500D01*
X8833333Y34114167D01*
X8766666Y34147500D01*
X8666666Y34147500D01*
X8600000Y34114167D01*
D10*
X18900000Y42883334D02*
X18566666Y42883334D01*
X18966666Y42683334D02*
X18733333Y43383334D01*
X18500000Y42683334D01*
X17900000Y42683334D02*
X18300000Y42683334D01*
X18100000Y42683334D02*
X18100000Y43383334D01*
X18166666Y43283334D01*
X18233333Y43216667D01*
X18300000Y43183334D01*
X18900000Y41083334D02*
X18566666Y41083334D01*
X18966666Y40883334D02*
X18733333Y41583334D01*
X18500000Y40883334D01*
X18133333Y41583334D02*
X18066666Y41583334D01*
X18000000Y41550000D01*
X17966666Y41516667D01*
X17933333Y41450000D01*
X17900000Y41316667D01*
X17900000Y41150000D01*
X17933333Y41016667D01*
X17966666Y40950000D01*
X18000000Y40916667D01*
X18066666Y40883334D01*
X18133333Y40883334D01*
X18200000Y40916667D01*
X18233333Y40950000D01*
X18266666Y41016667D01*
X18300000Y41150000D01*
X18300000Y41316667D01*
X18266666Y41450000D01*
X18233333Y41516667D01*
X18200000Y41550000D01*
X18133333Y41583334D01*
D12*
X44950000Y61654000D02*
X45021428Y61725429D01*
X45164285Y61939715D01*
X45235714Y62082572D01*
X45307142Y62296858D01*
X45378571Y62654000D01*
X45378571Y62939715D01*
X45307142Y63296858D01*
X45235714Y63511143D01*
X45164285Y63654000D01*
X45021428Y63868286D01*
X44950000Y63939715D01*
X43735714Y62296858D02*
X43878571Y62225429D01*
X44164285Y62225429D01*
X44307142Y62296858D01*
X44378571Y62368286D01*
X44450000Y62511143D01*
X44450000Y62939715D01*
X44378571Y63082572D01*
X44307142Y63154000D01*
X44164285Y63225429D01*
X43878571Y63225429D01*
X43735714Y63154000D01*
X43235714Y61654000D02*
X43164285Y61725429D01*
X43021428Y61939715D01*
X42950000Y62082572D01*
X42878571Y62296858D01*
X42807142Y62654000D01*
X42807142Y62939715D01*
X42878571Y63296858D01*
X42950000Y63511143D01*
X43021428Y63654000D01*
X43164285Y63868286D01*
X43235714Y63939715D01*
X41021428Y63582572D02*
X40950000Y63654000D01*
X40807142Y63725429D01*
X40450000Y63725429D01*
X40307142Y63654000D01*
X40235714Y63582572D01*
X40164285Y63439715D01*
X40164285Y63296858D01*
X40235714Y63082572D01*
X41092857Y62225429D01*
X40164285Y62225429D01*
X39235714Y63725429D02*
X39092857Y63725429D01*
X38950000Y63654000D01*
X38878571Y63582572D01*
X38807142Y63439715D01*
X38735714Y63154000D01*
X38735714Y62796858D01*
X38807142Y62511143D01*
X38878571Y62368286D01*
X38950000Y62296858D01*
X39092857Y62225429D01*
X39235714Y62225429D01*
X39378571Y62296858D01*
X39450000Y62368286D01*
X39521428Y62511143D01*
X39592857Y62796858D01*
X39592857Y63154000D01*
X39521428Y63439715D01*
X39450000Y63582572D01*
X39378571Y63654000D01*
X39235714Y63725429D01*
X37307142Y62225429D02*
X38164285Y62225429D01*
X37735714Y62225429D02*
X37735714Y63725429D01*
X37878571Y63511143D01*
X38021428Y63368286D01*
X38164285Y63296858D01*
X36021428Y63225429D02*
X36021428Y62225429D01*
X36378571Y63796858D02*
X36735714Y62725429D01*
X35807142Y62725429D01*
X35235714Y62796858D02*
X34092857Y62796858D01*
X32592857Y62225429D02*
X33450000Y62225429D01*
X33021428Y62225429D02*
X33021428Y63725429D01*
X33164285Y63511143D01*
X33307142Y63368286D01*
X33450000Y63296858D01*
X31235714Y63725429D02*
X31950000Y63725429D01*
X32021428Y63011143D01*
X31950000Y63082572D01*
X31807142Y63154000D01*
X31450000Y63154000D01*
X31307142Y63082572D01*
X31235714Y63011143D01*
X31164285Y62868286D01*
X31164285Y62511143D01*
X31235714Y62368286D01*
X31307142Y62296858D01*
X31450000Y62225429D01*
X31807142Y62225429D01*
X31950000Y62296858D01*
X32021428Y62368286D01*
X29378571Y62225429D02*
X29378571Y63725429D01*
X28521428Y62225429D02*
X29164285Y63082572D01*
X28521428Y63725429D02*
X29378571Y62868286D01*
X27235714Y63225429D02*
X27235714Y62225429D01*
X27878571Y63225429D02*
X27878571Y62439715D01*
X27807142Y62296858D01*
X27664285Y62225429D01*
X27450000Y62225429D01*
X27307142Y62296858D01*
X27235714Y62368286D01*
X26521428Y62225429D02*
X26521428Y63225429D01*
X26521428Y63082572D02*
X26450000Y63154000D01*
X26307142Y63225429D01*
X26092857Y63225429D01*
X25950000Y63154000D01*
X25878571Y63011143D01*
X25878571Y62225429D01*
X25878571Y63011143D02*
X25807142Y63154000D01*
X25664285Y63225429D01*
X25450000Y63225429D01*
X25307142Y63154000D01*
X25235714Y63011143D01*
X25235714Y62225429D01*
X23878571Y62225429D02*
X23878571Y63011143D01*
X23950000Y63154000D01*
X24092857Y63225429D01*
X24378571Y63225429D01*
X24521428Y63154000D01*
X23878571Y62296858D02*
X24021428Y62225429D01*
X24378571Y62225429D01*
X24521428Y62296858D01*
X24592857Y62439715D01*
X24592857Y62582572D01*
X24521428Y62725429D01*
X24378571Y62796858D01*
X24021428Y62796858D01*
X23878571Y62868286D01*
X23164285Y62225429D02*
X23164285Y63225429D01*
X23164285Y62939715D02*
X23092857Y63082572D01*
X23021428Y63154000D01*
X22878571Y63225429D01*
X22735714Y63225429D01*
X21164285Y62654000D02*
X20450000Y62654000D01*
X21307142Y62225429D02*
X20807142Y63725429D01*
X20307142Y62225429D01*
X19807142Y62225429D02*
X19807142Y63725429D01*
X19807142Y63154000D02*
X19664285Y63225429D01*
X19378571Y63225429D01*
X19235714Y63154000D01*
X19164285Y63082572D01*
X19092857Y62939715D01*
X19092857Y62511143D01*
X19164285Y62368286D01*
X19235714Y62296858D01*
X19378571Y62225429D01*
X19664285Y62225429D01*
X19807142Y62296858D01*
X18450000Y62225429D02*
X18450000Y63725429D01*
X17807142Y62225429D02*
X17807142Y63011143D01*
X17878571Y63154000D01*
X18021428Y63225429D01*
X18235714Y63225429D01*
X18378571Y63154000D01*
X18450000Y63082572D01*
X17092857Y62225429D02*
X17092857Y63225429D01*
X17092857Y63725429D02*
X17164285Y63654000D01*
X17092857Y63582572D01*
X17021428Y63654000D01*
X17092857Y63725429D01*
X17092857Y63582572D01*
X16450000Y62296858D02*
X16307142Y62225429D01*
X16021428Y62225429D01*
X15878571Y62296858D01*
X15807142Y62439715D01*
X15807142Y62511143D01*
X15878571Y62654000D01*
X16021428Y62725429D01*
X16235714Y62725429D01*
X16378571Y62796858D01*
X16450000Y62939715D01*
X16450000Y63011143D01*
X16378571Y63154000D01*
X16235714Y63225429D01*
X16021428Y63225429D01*
X15878571Y63154000D01*
X15164285Y62225429D02*
X15164285Y63725429D01*
X14521428Y62225429D02*
X14521428Y63011143D01*
X14592857Y63154000D01*
X14735714Y63225429D01*
X14950000Y63225429D01*
X15092857Y63154000D01*
X15164285Y63082572D01*
X13235714Y62296858D02*
X13378571Y62225429D01*
X13664285Y62225429D01*
X13807142Y62296858D01*
X13878571Y62439715D01*
X13878571Y63011143D01*
X13807142Y63154000D01*
X13664285Y63225429D01*
X13378571Y63225429D01*
X13235714Y63154000D01*
X13164285Y63011143D01*
X13164285Y62868286D01*
X13878571Y62725429D01*
X12521428Y62225429D02*
X12521428Y63725429D01*
X12378571Y62796858D02*
X11950000Y62225429D01*
X11950000Y63225429D02*
X12521428Y62654000D01*
X44735714Y60721429D02*
X44450000Y59721429D01*
X44164285Y60435715D01*
X43878571Y59721429D01*
X43592857Y60721429D01*
X43164285Y60721429D02*
X42878571Y59721429D01*
X42592857Y60435715D01*
X42307142Y59721429D01*
X42021428Y60721429D01*
X41592857Y60721429D02*
X41307142Y59721429D01*
X41021428Y60435715D01*
X40735714Y59721429D01*
X40450000Y60721429D01*
X39878571Y59864286D02*
X39807142Y59792858D01*
X39878571Y59721429D01*
X39950000Y59792858D01*
X39878571Y59864286D01*
X39878571Y59721429D01*
X39378571Y60721429D02*
X38807142Y60721429D01*
X39164285Y61221429D02*
X39164285Y59935715D01*
X39092857Y59792858D01*
X38950000Y59721429D01*
X38807142Y59721429D01*
X38307142Y59721429D02*
X38307142Y61221429D01*
X37664285Y59721429D02*
X37664285Y60507143D01*
X37735714Y60650000D01*
X37878571Y60721429D01*
X38092857Y60721429D01*
X38235714Y60650000D01*
X38307142Y60578572D01*
X36378571Y59792858D02*
X36521428Y59721429D01*
X36807142Y59721429D01*
X36950000Y59792858D01*
X37021428Y59935715D01*
X37021428Y60507143D01*
X36950000Y60650000D01*
X36807142Y60721429D01*
X36521428Y60721429D01*
X36378571Y60650000D01*
X36307142Y60507143D01*
X36307142Y60364286D01*
X37021428Y60221429D01*
X35092857Y59792858D02*
X35235714Y59721429D01*
X35521428Y59721429D01*
X35664285Y59792858D01*
X35735714Y59935715D01*
X35735714Y60507143D01*
X35664285Y60650000D01*
X35521428Y60721429D01*
X35235714Y60721429D01*
X35092857Y60650000D01*
X35021428Y60507143D01*
X35021428Y60364286D01*
X35735714Y60221429D01*
X34378571Y59721429D02*
X34378571Y60721429D01*
X34378571Y60578572D02*
X34307142Y60650000D01*
X34164285Y60721429D01*
X33950000Y60721429D01*
X33807142Y60650000D01*
X33735714Y60507143D01*
X33735714Y59721429D01*
X33735714Y60507143D02*
X33664285Y60650000D01*
X33521428Y60721429D01*
X33307142Y60721429D01*
X33164285Y60650000D01*
X33092857Y60507143D01*
X33092857Y59721429D01*
X32378571Y59721429D02*
X32378571Y61221429D01*
X32378571Y60650000D02*
X32235714Y60721429D01*
X31950000Y60721429D01*
X31807142Y60650000D01*
X31735714Y60578572D01*
X31664285Y60435715D01*
X31664285Y60007143D01*
X31735714Y59864286D01*
X31807142Y59792858D01*
X31950000Y59721429D01*
X32235714Y59721429D01*
X32378571Y59792858D01*
X30450000Y59792858D02*
X30592857Y59721429D01*
X30878571Y59721429D01*
X31021428Y59792858D01*
X31092857Y59935715D01*
X31092857Y60507143D01*
X31021428Y60650000D01*
X30878571Y60721429D01*
X30592857Y60721429D01*
X30450000Y60650000D01*
X30378571Y60507143D01*
X30378571Y60364286D01*
X31092857Y60221429D01*
X29092857Y59721429D02*
X29092857Y61221429D01*
X29092857Y59792858D02*
X29235714Y59721429D01*
X29521428Y59721429D01*
X29664285Y59792858D01*
X29735714Y59864286D01*
X29807142Y60007143D01*
X29807142Y60435715D01*
X29735714Y60578572D01*
X29664285Y60650000D01*
X29521428Y60721429D01*
X29235714Y60721429D01*
X29092857Y60650000D01*
X27735714Y59721429D02*
X27735714Y61221429D01*
X27735714Y59792858D02*
X27878571Y59721429D01*
X28164285Y59721429D01*
X28307142Y59792858D01*
X28378571Y59864286D01*
X28450000Y60007143D01*
X28450000Y60435715D01*
X28378571Y60578572D01*
X28307142Y60650000D01*
X28164285Y60721429D01*
X27878571Y60721429D01*
X27735714Y60650000D01*
X26450000Y59792858D02*
X26592857Y59721429D01*
X26878571Y59721429D01*
X27021428Y59792858D01*
X27092857Y59935715D01*
X27092857Y60507143D01*
X27021428Y60650000D01*
X26878571Y60721429D01*
X26592857Y60721429D01*
X26450000Y60650000D01*
X26378571Y60507143D01*
X26378571Y60364286D01*
X27092857Y60221429D01*
X25092857Y59721429D02*
X25092857Y61221429D01*
X25092857Y59792858D02*
X25235714Y59721429D01*
X25521428Y59721429D01*
X25664285Y59792858D01*
X25735714Y59864286D01*
X25807142Y60007143D01*
X25807142Y60435715D01*
X25735714Y60578572D01*
X25664285Y60650000D01*
X25521428Y60721429D01*
X25235714Y60721429D01*
X25092857Y60650000D01*
X24378571Y59721429D02*
X24378571Y61221429D01*
X24235714Y60292858D02*
X23807142Y59721429D01*
X23807142Y60721429D02*
X24378571Y60150000D01*
X23164285Y59721429D02*
X23164285Y60721429D01*
X23164285Y61221429D02*
X23235714Y61150000D01*
X23164285Y61078572D01*
X23092857Y61150000D01*
X23164285Y61221429D01*
X23164285Y61078572D01*
X22664285Y60721429D02*
X22092857Y60721429D01*
X22450000Y61221429D02*
X22450000Y59935715D01*
X22378571Y59792858D01*
X22235714Y59721429D01*
X22092857Y59721429D01*
X20950000Y59792858D02*
X21092857Y59721429D01*
X21378571Y59721429D01*
X21521428Y59792858D01*
X21592857Y59864286D01*
X21664285Y60007143D01*
X21664285Y60435715D01*
X21592857Y60578572D01*
X21521428Y60650000D01*
X21378571Y60721429D01*
X21092857Y60721429D01*
X20950000Y60650000D01*
X20307142Y59721429D02*
X20307142Y61221429D01*
X19664285Y59721429D02*
X19664285Y60507143D01*
X19735714Y60650000D01*
X19878571Y60721429D01*
X20092857Y60721429D01*
X20235714Y60650000D01*
X20307142Y60578572D01*
X18378571Y59792858D02*
X18521428Y59721429D01*
X18807142Y59721429D01*
X18950000Y59792858D01*
X19021428Y59935715D01*
X19021428Y60507143D01*
X18950000Y60650000D01*
X18807142Y60721429D01*
X18521428Y60721429D01*
X18378571Y60650000D01*
X18307142Y60507143D01*
X18307142Y60364286D01*
X19021428Y60221429D01*
X17664285Y60721429D02*
X17664285Y59721429D01*
X17664285Y60578572D02*
X17592857Y60650000D01*
X17450000Y60721429D01*
X17235714Y60721429D01*
X17092857Y60650000D01*
X17021428Y60507143D01*
X17021428Y59721429D01*
X16307142Y59864286D02*
X16235714Y59792858D01*
X16307142Y59721429D01*
X16378571Y59792858D01*
X16307142Y59864286D01*
X16307142Y59721429D01*
X15592857Y60721429D02*
X15592857Y59721429D01*
X15592857Y60578572D02*
X15521428Y60650000D01*
X15378571Y60721429D01*
X15164285Y60721429D01*
X15021428Y60650000D01*
X14950000Y60507143D01*
X14950000Y59721429D01*
X13664285Y59792858D02*
X13807142Y59721429D01*
X14092857Y59721429D01*
X14235714Y59792858D01*
X14307142Y59935715D01*
X14307142Y60507143D01*
X14235714Y60650000D01*
X14092857Y60721429D01*
X13807142Y60721429D01*
X13664285Y60650000D01*
X13592857Y60507143D01*
X13592857Y60364286D01*
X14307142Y60221429D01*
X13164285Y60721429D02*
X12592857Y60721429D01*
X12950000Y61221429D02*
X12950000Y59935715D01*
X12878571Y59792858D01*
X12735714Y59721429D01*
X12592857Y59721429D01*
X39771428Y58217429D02*
X39485714Y57217429D01*
X39200000Y57931715D01*
X38914285Y57217429D01*
X38628571Y58217429D01*
X38200000Y58217429D02*
X37914285Y57217429D01*
X37628571Y57931715D01*
X37342857Y57217429D01*
X37057142Y58217429D01*
X36628571Y58217429D02*
X36342857Y57217429D01*
X36057142Y57931715D01*
X35771428Y57217429D01*
X35485714Y58217429D01*
X34914285Y57360286D02*
X34842857Y57288858D01*
X34914285Y57217429D01*
X34985714Y57288858D01*
X34914285Y57360286D01*
X34914285Y57217429D01*
X34200000Y57217429D02*
X34200000Y58717429D01*
X34200000Y58146000D02*
X34057142Y58217429D01*
X33771428Y58217429D01*
X33628571Y58146000D01*
X33557142Y58074572D01*
X33485714Y57931715D01*
X33485714Y57503143D01*
X33557142Y57360286D01*
X33628571Y57288858D01*
X33771428Y57217429D01*
X34057142Y57217429D01*
X34200000Y57288858D01*
X32271428Y57288858D02*
X32414285Y57217429D01*
X32700000Y57217429D01*
X32842857Y57288858D01*
X32914285Y57431715D01*
X32914285Y58003143D01*
X32842857Y58146000D01*
X32700000Y58217429D01*
X32414285Y58217429D01*
X32271428Y58146000D01*
X32200000Y58003143D01*
X32200000Y57860286D01*
X32914285Y57717429D01*
X30914285Y57217429D02*
X30914285Y58003143D01*
X30985714Y58146000D01*
X31128571Y58217429D01*
X31414285Y58217429D01*
X31557142Y58146000D01*
X30914285Y57288858D02*
X31057142Y57217429D01*
X31414285Y57217429D01*
X31557142Y57288858D01*
X31628571Y57431715D01*
X31628571Y57574572D01*
X31557142Y57717429D01*
X31414285Y57788858D01*
X31057142Y57788858D01*
X30914285Y57860286D01*
X29557142Y58217429D02*
X29557142Y57003143D01*
X29628571Y56860286D01*
X29700000Y56788858D01*
X29842857Y56717429D01*
X30057142Y56717429D01*
X30200000Y56788858D01*
X29557142Y57288858D02*
X29700000Y57217429D01*
X29985714Y57217429D01*
X30128571Y57288858D01*
X30200000Y57360286D01*
X30271428Y57503143D01*
X30271428Y57931715D01*
X30200000Y58074572D01*
X30128571Y58146000D01*
X29985714Y58217429D01*
X29700000Y58217429D01*
X29557142Y58146000D01*
X28628571Y57217429D02*
X28771428Y57288858D01*
X28842857Y57431715D01*
X28842857Y58717429D01*
X27485714Y57288858D02*
X27628571Y57217429D01*
X27914285Y57217429D01*
X28057142Y57288858D01*
X28128571Y57431715D01*
X28128571Y58003143D01*
X28057142Y58146000D01*
X27914285Y58217429D01*
X27628571Y58217429D01*
X27485714Y58146000D01*
X27414285Y58003143D01*
X27414285Y57860286D01*
X28128571Y57717429D01*
X26557142Y57217429D02*
X26700000Y57288858D01*
X26771428Y57431715D01*
X26771428Y58717429D01*
X25771428Y57217429D02*
X25914285Y57288858D01*
X25985714Y57360286D01*
X26057142Y57503143D01*
X26057142Y57931715D01*
X25985714Y58074572D01*
X25914285Y58146000D01*
X25771428Y58217429D01*
X25557142Y58217429D01*
X25414285Y58146000D01*
X25342857Y58074572D01*
X25271428Y57931715D01*
X25271428Y57503143D01*
X25342857Y57360286D01*
X25414285Y57288858D01*
X25557142Y57217429D01*
X25771428Y57217429D01*
X23985714Y58217429D02*
X23985714Y57003143D01*
X24057142Y56860286D01*
X24128571Y56788858D01*
X24271428Y56717429D01*
X24485714Y56717429D01*
X24628571Y56788858D01*
X23985714Y57288858D02*
X24128571Y57217429D01*
X24414285Y57217429D01*
X24557142Y57288858D01*
X24628571Y57360286D01*
X24700000Y57503143D01*
X24700000Y57931715D01*
X24628571Y58074572D01*
X24557142Y58146000D01*
X24414285Y58217429D01*
X24128571Y58217429D01*
X23985714Y58146000D01*
X23271428Y57217429D02*
X23271428Y58217429D01*
X23271428Y58717429D02*
X23342857Y58646000D01*
X23271428Y58574572D01*
X23200000Y58646000D01*
X23271428Y58717429D01*
X23271428Y58574572D01*
X21914285Y57288858D02*
X22057142Y57217429D01*
X22342857Y57217429D01*
X22485714Y57288858D01*
X22557142Y57360286D01*
X22628571Y57503143D01*
X22628571Y57931715D01*
X22557142Y58074572D01*
X22485714Y58146000D01*
X22342857Y58217429D01*
X22057142Y58217429D01*
X21914285Y58146000D01*
X21271428Y57360286D02*
X21200000Y57288858D01*
X21271428Y57217429D01*
X21342857Y57288858D01*
X21271428Y57360286D01*
X21271428Y57217429D01*
X20557142Y58217429D02*
X20557142Y57217429D01*
X20557142Y58074572D02*
X20485714Y58146000D01*
X20342857Y58217429D01*
X20128571Y58217429D01*
X19985714Y58146000D01*
X19914285Y58003143D01*
X19914285Y57217429D01*
X18628571Y57288858D02*
X18771428Y57217429D01*
X19057142Y57217429D01*
X19200000Y57288858D01*
X19271428Y57431715D01*
X19271428Y58003143D01*
X19200000Y58146000D01*
X19057142Y58217429D01*
X18771428Y58217429D01*
X18628571Y58146000D01*
X18557142Y58003143D01*
X18557142Y57860286D01*
X19271428Y57717429D01*
X18128571Y58217429D02*
X17557142Y58217429D01*
X17914285Y58717429D02*
X17914285Y57431715D01*
X17842857Y57288858D01*
X17700000Y57217429D01*
X17557142Y57217429D01*
D13*
%TO.C,U1*%
X6530400Y68694800D02*
X1450400Y68694800D01*
X6530400Y17894800D02*
X6530400Y68694800D01*
X1450400Y17894800D02*
X1450400Y68694800D01*
D14*
X1450400Y17894800D02*
X1450400Y10274800D01*
X6530400Y10274800D02*
X6530400Y17894800D01*
X1450400Y10274800D02*
X6530400Y10274800D01*
X49710400Y10274800D02*
X54790400Y10274800D01*
X54790400Y10274800D02*
X54790400Y17894800D01*
X49710400Y17894800D02*
X49710400Y10274800D01*
D13*
X49710400Y17894800D02*
X49710400Y68694800D01*
X54790400Y17894800D02*
X54790400Y68694800D01*
X54790400Y68694800D02*
X49710400Y68694800D01*
D15*
%TO.C,Q1*%
X26411200Y26837900D02*
X26411200Y24234400D01*
X27427200Y24234400D02*
X27427200Y26837900D01*
X26411200Y26837900D02*
X27427200Y26837900D01*
X26411200Y24234400D02*
X27427200Y24234400D01*
X27428790Y26680420D02*
G75*
G03*
X27428790Y26680420I-159070J0D01*
G01*
D10*
%TO.C,U2*%
X36069338Y31620790D02*
X36829478Y32380930D01*
X44902870Y22787258D02*
X40412742Y18297130D01*
X35887258Y31802870D02*
X31397130Y27312742D01*
X44902870Y22787258D02*
X44720790Y22969338D01*
X40412742Y18297130D02*
X40230662Y18479210D01*
X31397130Y27312742D02*
X31579210Y27130662D01*
X35887258Y31802870D02*
X36069338Y31620790D01*
%TO.C,U3*%
X13880600Y42784200D02*
X13880600Y41384200D01*
X8875600Y42784200D02*
X8875600Y46934200D01*
X14025600Y42784200D02*
X14025600Y46934200D01*
X8875600Y42784200D02*
X9020600Y42784200D01*
X8875600Y46934200D02*
X9020600Y46934200D01*
X14025600Y46934200D02*
X13880600Y46934200D01*
X14025600Y42784200D02*
X13880600Y42784200D01*
%TO.C,R1*%
X28860400Y29306400D02*
X28860400Y28306400D01*
X30210400Y28306400D02*
X30210400Y29306400D01*
%TO.C,R2*%
X11465200Y49794800D02*
X11465200Y50794800D01*
X10115200Y50794800D02*
X10115200Y49794800D01*
%TO.C,R3*%
X9738000Y49769400D02*
X9738000Y50769400D01*
X8388000Y50769400D02*
X8388000Y49769400D01*
%TO.C,R4*%
X13192400Y49769400D02*
X13192400Y50769400D01*
X11842400Y50769400D02*
X11842400Y49769400D01*
%TO.C,R5*%
X15675000Y44031800D02*
X16675000Y44031800D01*
X16675000Y45381800D02*
X15675000Y45381800D01*
%TO.C,R6*%
X15675000Y42406200D02*
X16675000Y42406200D01*
X16675000Y43756200D02*
X15675000Y43756200D01*
%TO.C,R7*%
X15700400Y40653600D02*
X16700400Y40653600D01*
X16700400Y42003600D02*
X15700400Y42003600D01*
%TO.C,R8*%
X47050000Y41825000D02*
X48050000Y41825000D01*
X48050000Y43175000D02*
X47050000Y43175000D01*
%TO.C,R9*%
X47050000Y39925000D02*
X48050000Y39925000D01*
X48050000Y41275000D02*
X47050000Y41275000D01*
%TO.C,R10*%
X16573400Y50131600D02*
X15573400Y50131600D01*
X15573400Y48781600D02*
X16573400Y48781600D01*
%TO.C,R12*%
X11719200Y38263200D02*
X11719200Y39263200D01*
X10369200Y39263200D02*
X10369200Y38263200D01*
%TO.C,R13*%
X13649600Y38263200D02*
X13649600Y39263200D01*
X12299600Y39263200D02*
X12299600Y38263200D01*
%TO.C,R14*%
X28300000Y28300000D02*
X28300000Y29300000D01*
X26950000Y29300000D02*
X26950000Y28300000D01*
%TO.C,C1*%
X33173744Y29944150D02*
X33880850Y30651256D01*
X32926256Y31605850D02*
X32219150Y30898744D01*
%TO.C,C2*%
X43323744Y18269150D02*
X44030850Y18976256D01*
X43076256Y19930850D02*
X42369150Y19223744D01*
%TO.C,R15*%
X31280546Y28826992D02*
X30926992Y29180546D01*
X31669454Y29923008D02*
X32023008Y29569454D01*
%TO.C,Q1*%
X27308333Y25566667D02*
X27275000Y25633334D01*
X27208333Y25700000D01*
X27108333Y25800000D01*
X27075000Y25866667D01*
X27075000Y25933334D01*
X27241666Y25900000D02*
X27208333Y25966667D01*
X27141666Y26033334D01*
X27008333Y26066667D01*
X26775000Y26066667D01*
X26641666Y26033334D01*
X26575000Y25966667D01*
X26541666Y25900000D01*
X26541666Y25766667D01*
X26575000Y25700000D01*
X26641666Y25633334D01*
X26775000Y25600000D01*
X27008333Y25600000D01*
X27141666Y25633334D01*
X27208333Y25700000D01*
X27241666Y25766667D01*
X27241666Y25900000D01*
X27241666Y24933334D02*
X27241666Y25333334D01*
X27241666Y25133334D02*
X26541666Y25133334D01*
X26641666Y25200000D01*
X26708333Y25266667D01*
X26741666Y25333334D01*
%TO.C,U2*%
X40794501Y23047614D02*
X40464518Y23377597D01*
X40181675Y22670491D01*
X39898832Y23613300D02*
X39568849Y23283316D01*
X40205245Y23684010D02*
X39969543Y23212606D01*
X39663130Y23519019D01*
X39073875Y23778291D02*
X39309577Y23542589D01*
X39804552Y24037564D01*
X39474568Y24367547D02*
X38814602Y24037564D01*
X39144585Y24697530D01*
X38248917Y24697530D02*
X38248917Y24650390D01*
X38296057Y24556109D01*
X38343198Y24508968D01*
X38437478Y24461828D01*
X38531759Y24461828D01*
X38602470Y24485398D01*
X38720321Y24556109D01*
X38791032Y24626819D01*
X38861743Y24744670D01*
X38885313Y24815381D01*
X38885313Y24909662D01*
X38838172Y25003943D01*
X38791032Y25051083D01*
X38696751Y25098224D01*
X38649610Y25098224D01*
X37989644Y24862522D02*
X38484619Y25357496D01*
X38248917Y25121794D02*
X37966074Y25404637D01*
X37706801Y25145364D02*
X38201776Y25640339D01*
X37211827Y25640339D02*
X37494669Y25357496D01*
X37353248Y25498918D02*
X37848223Y25993892D01*
X37824653Y25876041D01*
X37824653Y25781760D01*
X37848223Y25711050D01*
X37282537Y26559578D02*
X37376818Y26465297D01*
X37400389Y26394586D01*
X37400389Y26347446D01*
X37376818Y26229595D01*
X37306108Y26111744D01*
X37117546Y25923182D01*
X37046835Y25899611D01*
X36999695Y25899611D01*
X36928984Y25923182D01*
X36834703Y26017463D01*
X36811133Y26088173D01*
X36811133Y26135314D01*
X36834703Y26206024D01*
X36952554Y26323876D01*
X37023265Y26347446D01*
X37070405Y26347446D01*
X37141116Y26323876D01*
X37235397Y26229595D01*
X37258967Y26158884D01*
X37258967Y26111744D01*
X37235397Y26041033D01*
X36999695Y26748140D02*
X36999695Y26795280D01*
X36976124Y26865991D01*
X36858273Y26983842D01*
X36787563Y27007412D01*
X36740422Y27007412D01*
X36669712Y26983842D01*
X36622571Y26936701D01*
X36575431Y26842421D01*
X36575431Y26276735D01*
X36269018Y26583148D01*
X36174737Y27337395D02*
X35844754Y27007412D01*
X36481150Y27408106D02*
X36245447Y26936701D01*
X35939034Y27243114D01*
X35844754Y27997362D02*
X36080456Y27761659D01*
X35868324Y27502387D01*
X35868324Y27549527D01*
X35844754Y27620238D01*
X35726902Y27738089D01*
X35656192Y27761659D01*
X35609051Y27761659D01*
X35538341Y27738089D01*
X35420490Y27620238D01*
X35396919Y27549527D01*
X35396919Y27502387D01*
X35420490Y27431676D01*
X35538341Y27313825D01*
X35609051Y27290255D01*
X35656192Y27290255D01*
%TO.C,U3*%
X7900600Y46792534D02*
X7900600Y46559200D01*
X8267266Y46459200D02*
X8267266Y46792534D01*
X7567266Y46792534D01*
X7567266Y46459200D01*
X7900600Y46159200D02*
X7900600Y45925867D01*
X8267266Y45825867D02*
X8267266Y46159200D01*
X7567266Y46159200D01*
X7567266Y45825867D01*
X8267266Y45525867D02*
X7567266Y45525867D01*
X7567266Y45259200D01*
X7600600Y45192534D01*
X7633933Y45159200D01*
X7700600Y45125867D01*
X7800600Y45125867D01*
X7867266Y45159200D01*
X7900600Y45192534D01*
X7933933Y45259200D01*
X7933933Y45525867D01*
X8267266Y44425867D02*
X7933933Y44659200D01*
X8267266Y44825867D02*
X7567266Y44825867D01*
X7567266Y44559200D01*
X7600600Y44492534D01*
X7633933Y44459200D01*
X7700600Y44425867D01*
X7800600Y44425867D01*
X7867266Y44459200D01*
X7900600Y44492534D01*
X7933933Y44559200D01*
X7933933Y44825867D01*
X7567266Y43992534D02*
X7567266Y43859200D01*
X7600600Y43792534D01*
X7667266Y43725867D01*
X7800600Y43692534D01*
X8033933Y43692534D01*
X8167266Y43725867D01*
X8233933Y43792534D01*
X8267266Y43859200D01*
X8267266Y43992534D01*
X8233933Y44059200D01*
X8167266Y44125867D01*
X8033933Y44159200D01*
X7800600Y44159200D01*
X7667266Y44125867D01*
X7600600Y44059200D01*
X7567266Y43992534D01*
X8267266Y43392534D02*
X7567266Y43392534D01*
X8067266Y43159200D01*
X7567266Y42925867D01*
X8267266Y42925867D01*
%TO.C,R1*%
X28916666Y31741667D02*
X28583333Y31975000D01*
X28916666Y32141667D02*
X28216666Y32141667D01*
X28216666Y31875000D01*
X28250000Y31808334D01*
X28283333Y31775000D01*
X28350000Y31741667D01*
X28450000Y31741667D01*
X28516666Y31775000D01*
X28550000Y31808334D01*
X28583333Y31875000D01*
X28583333Y32141667D01*
X28916666Y31075000D02*
X28916666Y31475000D01*
X28916666Y31275000D02*
X28216666Y31275000D01*
X28316666Y31341667D01*
X28383333Y31408334D01*
X28416666Y31475000D01*
%TO.C,R2*%
X11141666Y52741667D02*
X10808333Y52975000D01*
X11141666Y53141667D02*
X10441666Y53141667D01*
X10441666Y52875000D01*
X10475000Y52808334D01*
X10508333Y52775000D01*
X10575000Y52741667D01*
X10675000Y52741667D01*
X10741666Y52775000D01*
X10775000Y52808334D01*
X10808333Y52875000D01*
X10808333Y53141667D01*
X10508333Y52475000D02*
X10475000Y52441667D01*
X10441666Y52375000D01*
X10441666Y52208334D01*
X10475000Y52141667D01*
X10508333Y52108334D01*
X10575000Y52075000D01*
X10641666Y52075000D01*
X10741666Y52108334D01*
X11141666Y52508334D01*
X11141666Y52075000D01*
%TO.C,R3*%
X9441666Y52716667D02*
X9108333Y52950000D01*
X9441666Y53116667D02*
X8741666Y53116667D01*
X8741666Y52850000D01*
X8775000Y52783334D01*
X8808333Y52750000D01*
X8875000Y52716667D01*
X8975000Y52716667D01*
X9041666Y52750000D01*
X9075000Y52783334D01*
X9108333Y52850000D01*
X9108333Y53116667D01*
X8741666Y52483334D02*
X8741666Y52050000D01*
X9008333Y52283334D01*
X9008333Y52183334D01*
X9041666Y52116667D01*
X9075000Y52083334D01*
X9141666Y52050000D01*
X9308333Y52050000D01*
X9375000Y52083334D01*
X9408333Y52116667D01*
X9441666Y52183334D01*
X9441666Y52383334D01*
X9408333Y52450000D01*
X9375000Y52483334D01*
%TO.C,R4*%
X12916666Y52716667D02*
X12583333Y52950000D01*
X12916666Y53116667D02*
X12216666Y53116667D01*
X12216666Y52850000D01*
X12250000Y52783334D01*
X12283333Y52750000D01*
X12350000Y52716667D01*
X12450000Y52716667D01*
X12516666Y52750000D01*
X12550000Y52783334D01*
X12583333Y52850000D01*
X12583333Y53116667D01*
X12450000Y52116667D02*
X12916666Y52116667D01*
X12183333Y52283334D02*
X12683333Y52450000D01*
X12683333Y52016667D01*
%TO.C,R5*%
X18516666Y44283334D02*
X18750000Y44616667D01*
X18916666Y44283334D02*
X18916666Y44983334D01*
X18650000Y44983334D01*
X18583333Y44950000D01*
X18550000Y44916667D01*
X18516666Y44850000D01*
X18516666Y44750000D01*
X18550000Y44683334D01*
X18583333Y44650000D01*
X18650000Y44616667D01*
X18916666Y44616667D01*
X17883333Y44983334D02*
X18216666Y44983334D01*
X18250000Y44650000D01*
X18216666Y44683334D01*
X18150000Y44716667D01*
X17983333Y44716667D01*
X17916666Y44683334D01*
X17883333Y44650000D01*
X17850000Y44583334D01*
X17850000Y44416667D01*
X17883333Y44350000D01*
X17916666Y44316667D01*
X17983333Y44283334D01*
X18150000Y44283334D01*
X18216666Y44316667D01*
X18250000Y44350000D01*
%TO.C,R8*%
X47641666Y43608334D02*
X47875000Y43941667D01*
X48041666Y43608334D02*
X48041666Y44308334D01*
X47775000Y44308334D01*
X47708333Y44275000D01*
X47675000Y44241667D01*
X47641666Y44175000D01*
X47641666Y44075000D01*
X47675000Y44008334D01*
X47708333Y43975000D01*
X47775000Y43941667D01*
X48041666Y43941667D01*
X47241666Y44008334D02*
X47308333Y44041667D01*
X47341666Y44075000D01*
X47375000Y44141667D01*
X47375000Y44175000D01*
X47341666Y44241667D01*
X47308333Y44275000D01*
X47241666Y44308334D01*
X47108333Y44308334D01*
X47041666Y44275000D01*
X47008333Y44241667D01*
X46975000Y44175000D01*
X46975000Y44141667D01*
X47008333Y44075000D01*
X47041666Y44041667D01*
X47108333Y44008334D01*
X47241666Y44008334D01*
X47308333Y43975000D01*
X47341666Y43941667D01*
X47375000Y43875000D01*
X47375000Y43741667D01*
X47341666Y43675000D01*
X47308333Y43641667D01*
X47241666Y43608334D01*
X47108333Y43608334D01*
X47041666Y43641667D01*
X47008333Y43675000D01*
X46975000Y43741667D01*
X46975000Y43875000D01*
X47008333Y43941667D01*
X47041666Y43975000D01*
X47108333Y44008334D01*
%TO.C,R9*%
X47666666Y38783334D02*
X47900000Y39116667D01*
X48066666Y38783334D02*
X48066666Y39483334D01*
X47800000Y39483334D01*
X47733333Y39450000D01*
X47700000Y39416667D01*
X47666666Y39350000D01*
X47666666Y39250000D01*
X47700000Y39183334D01*
X47733333Y39150000D01*
X47800000Y39116667D01*
X48066666Y39116667D01*
X47333333Y38783334D02*
X47200000Y38783334D01*
X47133333Y38816667D01*
X47100000Y38850000D01*
X47033333Y38950000D01*
X47000000Y39083334D01*
X47000000Y39350000D01*
X47033333Y39416667D01*
X47066666Y39450000D01*
X47133333Y39483334D01*
X47266666Y39483334D01*
X47333333Y39450000D01*
X47366666Y39416667D01*
X47400000Y39350000D01*
X47400000Y39183334D01*
X47366666Y39116667D01*
X47333333Y39083334D01*
X47266666Y39050000D01*
X47133333Y39050000D01*
X47066666Y39083334D01*
X47033333Y39116667D01*
X47000000Y39183334D01*
%TO.C,R10*%
X19075000Y49058334D02*
X19308333Y49391667D01*
X19475000Y49058334D02*
X19475000Y49758334D01*
X19208333Y49758334D01*
X19141666Y49725000D01*
X19108333Y49691667D01*
X19075000Y49625000D01*
X19075000Y49525000D01*
X19108333Y49458334D01*
X19141666Y49425000D01*
X19208333Y49391667D01*
X19475000Y49391667D01*
X18408333Y49058334D02*
X18808333Y49058334D01*
X18608333Y49058334D02*
X18608333Y49758334D01*
X18675000Y49658334D01*
X18741666Y49591667D01*
X18808333Y49558334D01*
X17975000Y49758334D02*
X17908333Y49758334D01*
X17841666Y49725000D01*
X17808333Y49691667D01*
X17775000Y49625000D01*
X17741666Y49491667D01*
X17741666Y49325000D01*
X17775000Y49191667D01*
X17808333Y49125000D01*
X17841666Y49091667D01*
X17908333Y49058334D01*
X17975000Y49058334D01*
X18041666Y49091667D01*
X18075000Y49125000D01*
X18108333Y49191667D01*
X18141666Y49325000D01*
X18141666Y49491667D01*
X18108333Y49625000D01*
X18075000Y49691667D01*
X18041666Y49725000D01*
X17975000Y49758334D01*
%TO.C,R14*%
X27891666Y31725000D02*
X27558333Y31958334D01*
X27891666Y32125000D02*
X27191666Y32125000D01*
X27191666Y31858334D01*
X27225000Y31791667D01*
X27258333Y31758334D01*
X27325000Y31725000D01*
X27425000Y31725000D01*
X27491666Y31758334D01*
X27525000Y31791667D01*
X27558333Y31858334D01*
X27558333Y32125000D01*
X27891666Y31058334D02*
X27891666Y31458334D01*
X27891666Y31258334D02*
X27191666Y31258334D01*
X27291666Y31325000D01*
X27358333Y31391667D01*
X27391666Y31458334D01*
X27425000Y30458334D02*
X27891666Y30458334D01*
X27158333Y30625000D02*
X27658333Y30791667D01*
X27658333Y30358334D01*
%TO.C,C1*%
X34884272Y32180720D02*
X34931412Y32180720D01*
X35025693Y32227860D01*
X35072834Y32275000D01*
X35119974Y32369281D01*
X35119974Y32463562D01*
X35096404Y32534273D01*
X35025693Y32652124D01*
X34954983Y32722835D01*
X34837132Y32793545D01*
X34766421Y32817116D01*
X34672140Y32817116D01*
X34577859Y32769975D01*
X34530719Y32722835D01*
X34483578Y32628554D01*
X34483578Y32581413D01*
X34460008Y31662175D02*
X34742851Y31945017D01*
X34601429Y31803596D02*
X34106455Y32298571D01*
X34224306Y32275000D01*
X34318587Y32275000D01*
X34389297Y32298571D01*
%TO.C,C2*%
X45109272Y20480720D02*
X45156412Y20480720D01*
X45250693Y20527860D01*
X45297834Y20575000D01*
X45344974Y20669281D01*
X45344974Y20763562D01*
X45321404Y20834273D01*
X45250693Y20952124D01*
X45179983Y21022835D01*
X45062132Y21093545D01*
X44991421Y21117116D01*
X44897140Y21117116D01*
X44802859Y21069975D01*
X44755719Y21022835D01*
X44708578Y20928554D01*
X44708578Y20881413D01*
X44520016Y20692852D02*
X44472876Y20692852D01*
X44402165Y20669281D01*
X44284314Y20551430D01*
X44260744Y20480720D01*
X44260744Y20433579D01*
X44284314Y20362868D01*
X44331455Y20315728D01*
X44425735Y20268588D01*
X44991421Y20268588D01*
X44685008Y19962175D01*
%TO.C,R15*%
X30294280Y30332885D02*
X30694974Y30403596D01*
X30577123Y30050043D02*
X31072098Y30545017D01*
X30883536Y30733579D01*
X30812825Y30757149D01*
X30765685Y30757149D01*
X30694974Y30733579D01*
X30624264Y30662868D01*
X30600693Y30592158D01*
X30600693Y30545017D01*
X30624264Y30474307D01*
X30812825Y30285745D01*
X29822876Y30804290D02*
X30105719Y30521447D01*
X29964297Y30662868D02*
X30459272Y31157843D01*
X30435702Y31039992D01*
X30435702Y30945711D01*
X30459272Y30875000D01*
X29870016Y31747099D02*
X30105719Y31511397D01*
X29893587Y31252124D01*
X29893587Y31299265D01*
X29870016Y31369975D01*
X29752165Y31487826D01*
X29681455Y31511397D01*
X29634314Y31511397D01*
X29563603Y31487826D01*
X29445752Y31369975D01*
X29422182Y31299265D01*
X29422182Y31252124D01*
X29445752Y31181413D01*
X29563603Y31063562D01*
X29634314Y31039992D01*
X29681455Y31039992D01*
%TD*%
M02*
