%TF.GenerationSoftware,KiCad,Pcbnew,5.1.10*%
%TF.CreationDate,2022-06-04T14:31:52-04:00*%
%TF.ProjectId,BeagleLogic Cape,42656167-6c65-44c6-9f67-696320436170,rev?*%
%TF.SameCoordinates,PX6cb8080PY7bfa480*%
%TF.FileFunction,Copper,L1,Top*%
%TF.FilePolarity,Positive*%
%FSLAX46Y46*%
G04 Gerber Fmt 4.6, Leading zero omitted, Abs format (unit mm)*
G04 Created by KiCad (PCBNEW 5.1.10) date 2022-06-04 14:31:52*
%MOMM*%
%LPD*%
G01*
G04 APERTURE LIST*
%TA.AperFunction,ComponentPad*%
%ADD10C,1.500000*%
%TD*%
%TA.AperFunction,ComponentPad*%
%ADD11C,1.524000*%
%TD*%
%TA.AperFunction,ComponentPad*%
%ADD12R,1.727200X1.727200*%
%TD*%
%TA.AperFunction,ComponentPad*%
%ADD13O,1.727200X1.727200*%
%TD*%
%TA.AperFunction,ViaPad*%
%ADD14C,0.812800*%
%TD*%
%TA.AperFunction,Conductor*%
%ADD15C,0.350000*%
%TD*%
%TA.AperFunction,Conductor*%
%ADD16C,0.254000*%
%TD*%
%TA.AperFunction,Conductor*%
%ADD17C,0.150000*%
%TD*%
G04 APERTURE END LIST*
D10*
%TO.P,U1,1*%
%TO.N,Net-(U1-Pad1)*%
X50980400Y67424800D03*
D11*
%TO.P,U1,46*%
%TO.N,/CH2*%
X53520400Y11544800D03*
%TO.P,U1,45*%
%TO.N,/CH1*%
X50980400Y11544800D03*
%TO.P,U1,44*%
%TO.N,/CH4*%
X53520400Y14084800D03*
%TO.P,U1,43*%
%TO.N,/CH3*%
X50980400Y14084800D03*
%TO.P,U1,42*%
%TO.N,/CH6*%
X53520400Y16624800D03*
%TO.P,U1,41*%
%TO.N,/CH5*%
X50980400Y16624800D03*
%TO.P,U1,30*%
%TO.N,/CH12*%
X53520400Y31864800D03*
%TO.P,U1,40*%
%TO.N,/CH8*%
X53520400Y19164800D03*
%TO.P,U1,39*%
%TO.N,/CH7*%
X50980400Y19164800D03*
%TO.P,U1,9*%
%TO.N,Net-(U1-Pad9)*%
X50980400Y57264800D03*
%TO.P,U1,7*%
%TO.N,Net-(U1-Pad7)*%
X50980400Y59804800D03*
%TO.P,U1,5*%
%TO.N,Net-(U1-Pad5)*%
X50980400Y62344800D03*
%TO.P,U1,3*%
%TO.N,Net-(U1-Pad3)*%
X50980400Y64884800D03*
%TO.P,U1,37*%
%TO.N,Net-(U1-Pad37)*%
X50980400Y21704800D03*
%TO.P,U1,35*%
%TO.N,Net-(U1-Pad35)*%
X50980400Y24244800D03*
%TO.P,U1,38*%
%TO.N,Net-(U1-Pad38)*%
X53520400Y21704800D03*
%TO.P,U1,36*%
%TO.N,Net-(U1-Pad36)*%
X53520400Y24244800D03*
%TO.P,U1,34*%
%TO.N,Net-(U1-Pad34)*%
X53520400Y26784800D03*
%TO.P,U1,32*%
%TO.N,Net-(U1-Pad32)*%
X53520400Y29324800D03*
%TO.P,U1,28*%
%TO.N,/CH11*%
X53520400Y34404800D03*
%TO.P,U1,33*%
%TO.N,Net-(U1-Pad33)*%
X50980400Y26784800D03*
%TO.P,U1,26*%
%TO.N,Net-(U1-Pad26)*%
X53520400Y36944800D03*
%TO.P,U1,24*%
%TO.N,Net-(U1-Pad24)*%
X53520400Y39484800D03*
%TO.P,U1,31*%
%TO.N,Net-(U1-Pad31)*%
X50980400Y29324800D03*
%TO.P,U1,22*%
%TO.N,Net-(U1-Pad22)*%
X53520400Y42024800D03*
%TO.P,U1,29*%
%TO.N,/CH10*%
X50980400Y31864800D03*
%TO.P,U1,20*%
%TO.N,/CH14*%
X53520400Y44564800D03*
%TO.P,U1,27*%
%TO.N,/CH9*%
X50980400Y34404800D03*
%TO.P,U1,18*%
%TO.N,Net-(U1-Pad18)*%
X53520400Y47104800D03*
%TO.P,U1,25*%
%TO.N,Net-(U1-Pad25)*%
X50980400Y36944800D03*
%TO.P,U1,16*%
%TO.N,Net-(U1-Pad16)*%
X53520400Y49644800D03*
%TO.P,U1,23*%
%TO.N,Net-(U1-Pad23)*%
X50980400Y39484800D03*
%TO.P,U1,14*%
%TO.N,Net-(U1-Pad14)*%
X53520400Y52184800D03*
%TO.P,U1,21*%
%TO.N,/CH13*%
X50980400Y42024800D03*
%TO.P,U1,12*%
%TO.N,Net-(U1-Pad12)*%
X53520400Y54724800D03*
%TO.P,U1,19*%
%TO.N,Net-(U1-Pad19)*%
X50980400Y44564800D03*
%TO.P,U1,10*%
%TO.N,Net-(U1-Pad10)*%
X53520400Y57264800D03*
%TO.P,U1,17*%
%TO.N,Net-(U1-Pad17)*%
X50980400Y47104800D03*
%TO.P,U1,8*%
%TO.N,Net-(U1-Pad8)*%
X53520400Y59804800D03*
%TO.P,U1,15*%
%TO.N,Net-(U1-Pad15)*%
X50980400Y49644800D03*
%TO.P,U1,6*%
%TO.N,Net-(U1-Pad6)*%
X53520400Y62344800D03*
%TO.P,U1,13*%
%TO.N,Net-(U1-Pad13)*%
X50980400Y52184800D03*
%TO.P,U1,4*%
%TO.N,Net-(U1-Pad4)*%
X53520400Y64884800D03*
%TO.P,U1,11*%
%TO.N,Net-(U1-Pad11)*%
X50980400Y54724800D03*
%TO.P,U1,2*%
%TO.N,Net-(U1-Pad2)*%
X53520400Y67424800D03*
%TO.P,U1,902*%
%TO.N,GND*%
X5260400Y67424800D03*
%TO.P,U1,911*%
%TO.N,Net-(U1-Pad911)*%
X2720400Y54724800D03*
%TO.P,U1,904*%
%TO.N,+3.3V*%
X5260400Y64884800D03*
%TO.P,U1,913*%
%TO.N,Net-(U1-Pad913)*%
X2720400Y52184800D03*
%TO.P,U1,906*%
%TO.N,Net-(U1-Pad906)*%
X5260400Y62344800D03*
%TO.P,U1,915*%
%TO.N,Net-(U1-Pad915)*%
X2720400Y49644800D03*
%TO.P,U1,908*%
%TO.N,Net-(U1-Pad908)*%
X5260400Y59804800D03*
%TO.P,U1,917*%
%TO.N,Net-(U1-Pad917)*%
X2720400Y47104800D03*
%TO.P,U1,910*%
%TO.N,/SYS_RESETn*%
X5260400Y57264800D03*
%TO.P,U1,919*%
%TO.N,/EP_SCL*%
X2720400Y44564800D03*
%TO.P,U1,912*%
%TO.N,Net-(U1-Pad912)*%
X5260400Y54724800D03*
%TO.P,U1,921*%
%TO.N,Net-(U1-Pad921)*%
X2720400Y42024800D03*
%TO.P,U1,914*%
%TO.N,Net-(U1-Pad914)*%
X5260400Y52184800D03*
%TO.P,U1,923*%
%TO.N,Net-(U1-Pad923)*%
X2720400Y39484800D03*
%TO.P,U1,916*%
%TO.N,Net-(U1-Pad916)*%
X5260400Y49644800D03*
%TO.P,U1,925*%
%TO.N,Net-(U1-Pad925)*%
X2720400Y36944800D03*
%TO.P,U1,918*%
%TO.N,Net-(U1-Pad918)*%
X5260400Y47104800D03*
%TO.P,U1,927*%
%TO.N,Net-(U1-Pad927)*%
X2720400Y34404800D03*
%TO.P,U1,920*%
%TO.N,/EP_SDA*%
X5260400Y44564800D03*
%TO.P,U1,929*%
%TO.N,Net-(U1-Pad929)*%
X2720400Y31864800D03*
%TO.P,U1,922*%
%TO.N,Net-(U1-Pad922)*%
X5260400Y42024800D03*
%TO.P,U1,931*%
%TO.N,Net-(U1-Pad931)*%
X2720400Y29324800D03*
%TO.P,U1,924*%
%TO.N,Net-(U1-Pad924)*%
X5260400Y39484800D03*
%TO.P,U1,926*%
%TO.N,Net-(U1-Pad926)*%
X5260400Y36944800D03*
%TO.P,U1,933*%
%TO.N,Net-(U1-Pad933)*%
X2720400Y26784800D03*
%TO.P,U1,928*%
%TO.N,Net-(U1-Pad928)*%
X5260400Y34404800D03*
%TO.P,U1,932*%
%TO.N,Net-(U1-Pad932)*%
X5260400Y29324800D03*
%TO.P,U1,934*%
%TO.N,Net-(U1-Pad934)*%
X5260400Y26784800D03*
%TO.P,U1,936*%
%TO.N,Net-(U1-Pad936)*%
X5260400Y24244800D03*
%TO.P,U1,938*%
%TO.N,Net-(U1-Pad938)*%
X5260400Y21704800D03*
%TO.P,U1,935*%
%TO.N,Net-(U1-Pad935)*%
X2720400Y24244800D03*
%TO.P,U1,937*%
%TO.N,Net-(U1-Pad937)*%
X2720400Y21704800D03*
%TO.P,U1,903*%
%TO.N,+3.3V*%
X2720400Y64884800D03*
%TO.P,U1,905*%
%TO.N,Net-(U1-Pad905)*%
X2720400Y62344800D03*
%TO.P,U1,907*%
%TO.N,Net-(U1-Pad907)*%
X2720400Y59804800D03*
%TO.P,U1,909*%
%TO.N,Net-(U1-Pad909)*%
X2720400Y57264800D03*
%TO.P,U1,939*%
%TO.N,Net-(U1-Pad939)*%
X2720400Y19164800D03*
%TO.P,U1,940*%
%TO.N,Net-(U1-Pad940)*%
X5260400Y19164800D03*
%TO.P,U1,930*%
%TO.N,Net-(U1-Pad930)*%
X5260400Y31864800D03*
%TO.P,U1,941*%
%TO.N,Net-(U1-Pad941)*%
X2720400Y16624800D03*
%TO.P,U1,942*%
%TO.N,Net-(U1-Pad942)*%
X5260400Y16624800D03*
%TO.P,U1,943*%
%TO.N,GND*%
X2720400Y14084800D03*
%TO.P,U1,944*%
X5260400Y14084800D03*
%TO.P,U1,945*%
X2720400Y11544800D03*
%TO.P,U1,946*%
X5260400Y11544800D03*
D10*
%TO.P,U1,901*%
X2720400Y67424800D03*
%TD*%
D12*
%TO.P,P1,1*%
%TO.N,/IN1*%
X44810000Y14320000D03*
D13*
%TO.P,P1,2*%
%TO.N,GND*%
X44810000Y11780000D03*
%TO.P,P1,3*%
%TO.N,/IN2*%
X42270000Y14320000D03*
%TO.P,P1,4*%
%TO.N,GND*%
X42270000Y11780000D03*
%TO.P,P1,5*%
%TO.N,/IN3*%
X39730000Y14320000D03*
%TO.P,P1,6*%
%TO.N,GND*%
X39730000Y11780000D03*
%TO.P,P1,7*%
%TO.N,/IN4*%
X37190000Y14320000D03*
%TO.P,P1,8*%
%TO.N,GND*%
X37190000Y11780000D03*
%TO.P,P1,9*%
%TO.N,/IN5*%
X34650000Y14320000D03*
%TO.P,P1,10*%
%TO.N,GND*%
X34650000Y11780000D03*
%TO.P,P1,11*%
%TO.N,/IN6*%
X32110000Y14320000D03*
%TO.P,P1,12*%
%TO.N,GND*%
X32110000Y11780000D03*
%TO.P,P1,13*%
%TO.N,/IN7*%
X29570000Y14320000D03*
%TO.P,P1,14*%
%TO.N,GND*%
X29570000Y11780000D03*
%TO.P,P1,15*%
%TO.N,/IN8*%
X27030000Y14320000D03*
%TO.P,P1,16*%
%TO.N,GND*%
X27030000Y11780000D03*
%TO.P,P1,17*%
%TO.N,/IN9*%
X24490000Y14320000D03*
%TO.P,P1,18*%
%TO.N,GND*%
X24490000Y11780000D03*
%TO.P,P1,19*%
%TO.N,/IN10*%
X21950000Y14320000D03*
%TO.P,P1,20*%
%TO.N,GND*%
X21950000Y11780000D03*
%TO.P,P1,21*%
%TO.N,/IN11*%
X19410000Y14320000D03*
%TO.P,P1,22*%
%TO.N,GND*%
X19410000Y11780000D03*
%TO.P,P1,23*%
%TO.N,/IN12*%
X16870000Y14320000D03*
%TO.P,P1,24*%
%TO.N,GND*%
X16870000Y11780000D03*
%TO.P,P1,25*%
%TO.N,/IN13*%
X14330000Y14320000D03*
%TO.P,P1,26*%
%TO.N,GND*%
X14330000Y11780000D03*
%TO.P,P1,27*%
%TO.N,/IN14*%
X11790000Y14320000D03*
%TO.P,P1,28*%
%TO.N,GND*%
X11790000Y11780000D03*
%TD*%
D14*
%TO.N,GND*%
X30500000Y35000000D03*
X42710407Y23600000D03*
X39800000Y20675000D03*
X33828000Y26672800D03*
X38882600Y27561800D03*
X36792397Y29702804D03*
X40559000Y25682200D03*
X37663400Y22812000D03*
X35885400Y24513800D03*
X16784600Y50980600D03*
%TO.N,Net-(Q1-Pad3)*%
X40200000Y17675000D03*
X30850000Y27050000D03*
%TD*%
D15*
%TO.N,GND*%
X5260400Y67424800D02*
X5275400Y67439800D01*
X11323600Y67439800D02*
X16784600Y61978800D01*
X5275400Y67439800D02*
X11323600Y67439800D01*
X16784600Y61978800D02*
X16784600Y50980600D01*
D16*
X25319400Y50980600D02*
X16784600Y50980600D01*
X30500000Y45800000D02*
X25319400Y50980600D01*
X30500000Y35000000D02*
X30500000Y45800000D01*
X40559000Y25682200D02*
X42641200Y23600000D01*
X42641200Y23600000D02*
X42710407Y23600000D01*
X39800000Y20675000D02*
X42710407Y23585407D01*
X42710407Y23585407D02*
X42710407Y23600000D01*
D15*
X37663400Y22812000D02*
X39800000Y20675400D01*
X39800000Y20675400D02*
X39800000Y20675000D01*
X33828000Y26672800D02*
X35885400Y24615400D01*
X35885400Y24615400D02*
X35885400Y24513800D01*
X40559000Y25885400D02*
X38882600Y27561800D01*
X36792397Y29652003D02*
X38882600Y27561800D01*
X36792397Y29702804D02*
X36792397Y29652003D01*
X40559000Y25682200D02*
X40559000Y25885400D01*
X37688800Y22812000D02*
X40559000Y25682200D01*
X35961600Y24513800D02*
X37663400Y22812000D01*
X35885400Y24513800D02*
X35961600Y24513800D01*
X37663400Y22812000D02*
X37688800Y22812000D01*
D16*
%TO.N,Net-(Q1-Pad3)*%
X40200000Y17700000D02*
X40200000Y17675000D01*
X30850000Y27050000D02*
X40200000Y17700000D01*
%TD*%
%TO.N,GND*%
X16083648Y65649096D02*
X16095815Y65627375D01*
X16111985Y65608445D01*
X16131538Y65593033D01*
X16153721Y65581732D01*
X16177683Y65574976D01*
X16200000Y65573000D01*
X16419908Y65573000D01*
X16436594Y65564081D01*
X16443112Y65562104D01*
X16449179Y65559013D01*
X16507606Y65542540D01*
X16565717Y65524912D01*
X16572496Y65524244D01*
X16579048Y65522397D01*
X16639555Y65517639D01*
X16666353Y65515000D01*
X16673124Y65515000D01*
X16713567Y65511820D01*
X16740417Y65515000D01*
X39459592Y65515000D01*
X39486434Y65511821D01*
X39526868Y65515000D01*
X39533647Y65515000D01*
X39560468Y65517642D01*
X39620951Y65522397D01*
X39627502Y65524244D01*
X39634283Y65524912D01*
X39692433Y65542552D01*
X39750820Y65559014D01*
X39756881Y65562102D01*
X39763406Y65564081D01*
X39780093Y65573000D01*
X40000000Y65573000D01*
X40024776Y65575440D01*
X40048601Y65582667D01*
X40070557Y65594403D01*
X40089803Y65610197D01*
X40105597Y65629443D01*
X40116352Y65649096D01*
X42157685Y70315000D01*
X54715000Y70315000D01*
X54715000Y68151487D01*
X54605520Y68315335D01*
X54410935Y68509920D01*
X54182127Y68662805D01*
X53927890Y68768114D01*
X53657992Y68821800D01*
X53382808Y68821800D01*
X53112910Y68768114D01*
X52858673Y68662805D01*
X52629865Y68509920D01*
X52435280Y68315335D01*
X52282395Y68086527D01*
X52243906Y67993606D01*
X52207771Y68080843D01*
X52056199Y68307686D01*
X51863286Y68500599D01*
X51636443Y68652171D01*
X51384389Y68756575D01*
X51116811Y68809800D01*
X50843989Y68809800D01*
X50576411Y68756575D01*
X50324357Y68652171D01*
X50097514Y68500599D01*
X49904601Y68307686D01*
X49753029Y68080843D01*
X49648625Y67828789D01*
X49595400Y67561211D01*
X49595400Y67288389D01*
X49648625Y67020811D01*
X49753029Y66768757D01*
X49904601Y66541914D01*
X50097514Y66349001D01*
X50324357Y66197429D01*
X50411594Y66161294D01*
X50318673Y66122805D01*
X50089865Y65969920D01*
X49895280Y65775335D01*
X49742395Y65546527D01*
X49637086Y65292290D01*
X49583400Y65022392D01*
X49583400Y64747208D01*
X49637086Y64477310D01*
X49742395Y64223073D01*
X49895280Y63994265D01*
X50089865Y63799680D01*
X50318673Y63646795D01*
X50395915Y63614800D01*
X50318673Y63582805D01*
X50089865Y63429920D01*
X49895280Y63235335D01*
X49742395Y63006527D01*
X49637086Y62752290D01*
X49583400Y62482392D01*
X49583400Y62207208D01*
X49637086Y61937310D01*
X49742395Y61683073D01*
X49895280Y61454265D01*
X50089865Y61259680D01*
X50318673Y61106795D01*
X50395915Y61074800D01*
X50318673Y61042805D01*
X50089865Y60889920D01*
X49895280Y60695335D01*
X49742395Y60466527D01*
X49637086Y60212290D01*
X49583400Y59942392D01*
X49583400Y59667208D01*
X49637086Y59397310D01*
X49742395Y59143073D01*
X49895280Y58914265D01*
X50089865Y58719680D01*
X50318673Y58566795D01*
X50395915Y58534800D01*
X50318673Y58502805D01*
X50089865Y58349920D01*
X49895280Y58155335D01*
X49742395Y57926527D01*
X49637086Y57672290D01*
X49583400Y57402392D01*
X49583400Y57127208D01*
X49637086Y56857310D01*
X49742395Y56603073D01*
X49895280Y56374265D01*
X50089865Y56179680D01*
X50318673Y56026795D01*
X50395915Y55994800D01*
X50318673Y55962805D01*
X50089865Y55809920D01*
X49895280Y55615335D01*
X49742395Y55386527D01*
X49637086Y55132290D01*
X49583400Y54862392D01*
X49583400Y54587208D01*
X49637086Y54317310D01*
X49742395Y54063073D01*
X49895280Y53834265D01*
X50089865Y53639680D01*
X50318673Y53486795D01*
X50395915Y53454800D01*
X50318673Y53422805D01*
X50089865Y53269920D01*
X49895280Y53075335D01*
X49742395Y52846527D01*
X49637086Y52592290D01*
X49583400Y52322392D01*
X49583400Y52047208D01*
X49637086Y51777310D01*
X49742395Y51523073D01*
X49895280Y51294265D01*
X50089865Y51099680D01*
X50318673Y50946795D01*
X50395915Y50914800D01*
X50318673Y50882805D01*
X50089865Y50729920D01*
X49895280Y50535335D01*
X49742395Y50306527D01*
X49637086Y50052290D01*
X49583400Y49782392D01*
X49583400Y49507208D01*
X49637086Y49237310D01*
X49742395Y48983073D01*
X49895280Y48754265D01*
X50089865Y48559680D01*
X50318673Y48406795D01*
X50395915Y48374800D01*
X50318673Y48342805D01*
X50089865Y48189920D01*
X49895280Y47995335D01*
X49742395Y47766527D01*
X49637086Y47512290D01*
X49583400Y47242392D01*
X49583400Y46967208D01*
X49637086Y46697310D01*
X49742395Y46443073D01*
X49895280Y46214265D01*
X50089865Y46019680D01*
X50318673Y45866795D01*
X50395915Y45834800D01*
X50318673Y45802805D01*
X50089865Y45649920D01*
X49895280Y45455335D01*
X49742395Y45226527D01*
X49637086Y44972290D01*
X49583400Y44702392D01*
X49583400Y44427208D01*
X49637086Y44157310D01*
X49742395Y43903073D01*
X49895280Y43674265D01*
X50089865Y43479680D01*
X50318673Y43326795D01*
X50395915Y43294800D01*
X50318673Y43262805D01*
X50089865Y43109920D01*
X49895280Y42915335D01*
X49742395Y42686527D01*
X49637086Y42432290D01*
X49583400Y42162392D01*
X49583400Y41887208D01*
X49637086Y41617310D01*
X49742395Y41363073D01*
X49895280Y41134265D01*
X50089865Y40939680D01*
X50318673Y40786795D01*
X50395915Y40754800D01*
X50318673Y40722805D01*
X50089865Y40569920D01*
X49895280Y40375335D01*
X49742395Y40146527D01*
X49637086Y39892290D01*
X49583400Y39622392D01*
X49583400Y39347208D01*
X49637086Y39077310D01*
X49742395Y38823073D01*
X49895280Y38594265D01*
X50089865Y38399680D01*
X50318673Y38246795D01*
X50395915Y38214800D01*
X50318673Y38182805D01*
X50089865Y38029920D01*
X49895280Y37835335D01*
X49742395Y37606527D01*
X49637086Y37352290D01*
X49583400Y37082392D01*
X49583400Y36807208D01*
X49637086Y36537310D01*
X49742395Y36283073D01*
X49895280Y36054265D01*
X50089865Y35859680D01*
X50318673Y35706795D01*
X50395915Y35674800D01*
X50318673Y35642805D01*
X50089865Y35489920D01*
X49895280Y35295335D01*
X49742395Y35066527D01*
X49637086Y34812290D01*
X49583400Y34542392D01*
X49583400Y34267208D01*
X49637086Y33997310D01*
X49742395Y33743073D01*
X49895280Y33514265D01*
X50089865Y33319680D01*
X50318673Y33166795D01*
X50395915Y33134800D01*
X50318673Y33102805D01*
X50089865Y32949920D01*
X49895280Y32755335D01*
X49742395Y32526527D01*
X49637086Y32272290D01*
X49583400Y32002392D01*
X49583400Y31727208D01*
X49637086Y31457310D01*
X49742395Y31203073D01*
X49895280Y30974265D01*
X50089865Y30779680D01*
X50318673Y30626795D01*
X50395915Y30594800D01*
X50318673Y30562805D01*
X50089865Y30409920D01*
X49895280Y30215335D01*
X49742395Y29986527D01*
X49637086Y29732290D01*
X49583400Y29462392D01*
X49583400Y29187208D01*
X49637086Y28917310D01*
X49742395Y28663073D01*
X49895280Y28434265D01*
X50089865Y28239680D01*
X50318673Y28086795D01*
X50395915Y28054800D01*
X50318673Y28022805D01*
X50089865Y27869920D01*
X49895280Y27675335D01*
X49742395Y27446527D01*
X49637086Y27192290D01*
X49583400Y26922392D01*
X49583400Y26647208D01*
X49637086Y26377310D01*
X49742395Y26123073D01*
X49895280Y25894265D01*
X50089865Y25699680D01*
X50318673Y25546795D01*
X50395915Y25514800D01*
X50318673Y25482805D01*
X50089865Y25329920D01*
X49895280Y25135335D01*
X49742395Y24906527D01*
X49637086Y24652290D01*
X49583400Y24382392D01*
X49583400Y24107208D01*
X49637086Y23837310D01*
X49742395Y23583073D01*
X49895280Y23354265D01*
X50089865Y23159680D01*
X50318673Y23006795D01*
X50395915Y22974800D01*
X50318673Y22942805D01*
X50089865Y22789920D01*
X49895280Y22595335D01*
X49742395Y22366527D01*
X49637086Y22112290D01*
X49583400Y21842392D01*
X49583400Y21567208D01*
X49637086Y21297310D01*
X49742395Y21043073D01*
X49895280Y20814265D01*
X50089865Y20619680D01*
X50318673Y20466795D01*
X50395915Y20434800D01*
X50318673Y20402805D01*
X50089865Y20249920D01*
X49895280Y20055335D01*
X49742395Y19826527D01*
X49637086Y19572290D01*
X49583400Y19302392D01*
X49583400Y19027208D01*
X49637086Y18757310D01*
X49742395Y18503073D01*
X49895280Y18274265D01*
X50089865Y18079680D01*
X50318673Y17926795D01*
X50395915Y17894800D01*
X50318673Y17862805D01*
X50089865Y17709920D01*
X49895280Y17515335D01*
X49742395Y17286527D01*
X49637086Y17032290D01*
X49583400Y16762392D01*
X49583400Y16487208D01*
X49637086Y16217310D01*
X49742395Y15963073D01*
X49895280Y15734265D01*
X50089865Y15539680D01*
X50318673Y15386795D01*
X50395915Y15354800D01*
X50318673Y15322805D01*
X50089865Y15169920D01*
X49895280Y14975335D01*
X49742395Y14746527D01*
X49637086Y14492290D01*
X49583400Y14222392D01*
X49583400Y13947208D01*
X49637086Y13677310D01*
X49742395Y13423073D01*
X49895280Y13194265D01*
X50089865Y12999680D01*
X50318673Y12846795D01*
X50395915Y12814800D01*
X50318673Y12782805D01*
X50089865Y12629920D01*
X49895280Y12435335D01*
X49742395Y12206527D01*
X49637086Y11952290D01*
X49583400Y11682392D01*
X49583400Y11407208D01*
X49637086Y11137310D01*
X49742395Y10883073D01*
X49895280Y10654265D01*
X50089865Y10459680D01*
X50318673Y10306795D01*
X50572910Y10201486D01*
X50842808Y10147800D01*
X51117992Y10147800D01*
X51387890Y10201486D01*
X51642127Y10306795D01*
X51870935Y10459680D01*
X52065520Y10654265D01*
X52218405Y10883073D01*
X52250400Y10960315D01*
X52282395Y10883073D01*
X52435280Y10654265D01*
X52629865Y10459680D01*
X52858673Y10306795D01*
X53112910Y10201486D01*
X53382808Y10147800D01*
X53657992Y10147800D01*
X53927890Y10201486D01*
X54182127Y10306795D01*
X54410935Y10459680D01*
X54575987Y10624732D01*
X54418796Y9709936D01*
X54053478Y8456586D01*
X53548620Y7252637D01*
X52910722Y6113587D01*
X52147980Y5054072D01*
X51270195Y4087707D01*
X50288660Y3226923D01*
X49215993Y2482789D01*
X48065981Y1864864D01*
X46853414Y1381099D01*
X45593880Y1037711D01*
X44300590Y838654D01*
X43183561Y785000D01*
X13818834Y785000D01*
X12448736Y860402D01*
X11113792Y1082597D01*
X9811291Y1449940D01*
X8556965Y1957994D01*
X7365975Y2600618D01*
X6252682Y3370062D01*
X5230554Y4257020D01*
X4311925Y5250788D01*
X3507901Y6339349D01*
X2828177Y7509581D01*
X2280977Y8747323D01*
X1872903Y10037641D01*
X1780953Y10499901D01*
X1818031Y10462823D01*
X1934441Y10579233D01*
X2001420Y10339144D01*
X2250448Y10222044D01*
X2517535Y10155777D01*
X2792417Y10142890D01*
X3064533Y10183878D01*
X3323423Y10277164D01*
X3439380Y10339144D01*
X3506360Y10579235D01*
X4474440Y10579235D01*
X4541420Y10339144D01*
X4790448Y10222044D01*
X5057535Y10155777D01*
X5332417Y10142890D01*
X5604533Y10183878D01*
X5863423Y10277164D01*
X5979380Y10339144D01*
X6046360Y10579235D01*
X5260400Y11365195D01*
X4474440Y10579235D01*
X3506360Y10579235D01*
X2720400Y11365195D01*
X2706258Y11351052D01*
X2526653Y11530657D01*
X2540795Y11544800D01*
X2900005Y11544800D01*
X3685965Y10758840D01*
X3926056Y10825820D01*
X3987479Y10956444D01*
X3992764Y10941777D01*
X4054744Y10825820D01*
X4294835Y10758840D01*
X5080795Y11544800D01*
X5440005Y11544800D01*
X6225965Y10758840D01*
X6466056Y10825820D01*
X6583156Y11074848D01*
X6649423Y11341935D01*
X6653128Y11420974D01*
X10335042Y11420974D01*
X10380778Y11270186D01*
X10507316Y11005056D01*
X10683146Y10769707D01*
X10901512Y10573183D01*
X11154022Y10423036D01*
X11430973Y10325037D01*
X11663000Y10445536D01*
X11663000Y11653000D01*
X11917000Y11653000D01*
X11917000Y10445536D01*
X12149027Y10325037D01*
X12425978Y10423036D01*
X12678488Y10573183D01*
X12896854Y10769707D01*
X13060000Y10988078D01*
X13223146Y10769707D01*
X13441512Y10573183D01*
X13694022Y10423036D01*
X13970973Y10325037D01*
X14203000Y10445536D01*
X14203000Y11653000D01*
X14457000Y11653000D01*
X14457000Y10445536D01*
X14689027Y10325037D01*
X14965978Y10423036D01*
X15218488Y10573183D01*
X15436854Y10769707D01*
X15600000Y10988078D01*
X15763146Y10769707D01*
X15981512Y10573183D01*
X16234022Y10423036D01*
X16510973Y10325037D01*
X16743000Y10445536D01*
X16743000Y11653000D01*
X16997000Y11653000D01*
X16997000Y10445536D01*
X17229027Y10325037D01*
X17505978Y10423036D01*
X17758488Y10573183D01*
X17976854Y10769707D01*
X18140000Y10988078D01*
X18303146Y10769707D01*
X18521512Y10573183D01*
X18774022Y10423036D01*
X19050973Y10325037D01*
X19283000Y10445536D01*
X19283000Y11653000D01*
X19537000Y11653000D01*
X19537000Y10445536D01*
X19769027Y10325037D01*
X20045978Y10423036D01*
X20298488Y10573183D01*
X20516854Y10769707D01*
X20680000Y10988078D01*
X20843146Y10769707D01*
X21061512Y10573183D01*
X21314022Y10423036D01*
X21590973Y10325037D01*
X21823000Y10445536D01*
X21823000Y11653000D01*
X22077000Y11653000D01*
X22077000Y10445536D01*
X22309027Y10325037D01*
X22585978Y10423036D01*
X22838488Y10573183D01*
X23056854Y10769707D01*
X23220000Y10988078D01*
X23383146Y10769707D01*
X23601512Y10573183D01*
X23854022Y10423036D01*
X24130973Y10325037D01*
X24363000Y10445536D01*
X24363000Y11653000D01*
X24617000Y11653000D01*
X24617000Y10445536D01*
X24849027Y10325037D01*
X25125978Y10423036D01*
X25378488Y10573183D01*
X25596854Y10769707D01*
X25760000Y10988078D01*
X25923146Y10769707D01*
X26141512Y10573183D01*
X26394022Y10423036D01*
X26670973Y10325037D01*
X26903000Y10445536D01*
X26903000Y11653000D01*
X27157000Y11653000D01*
X27157000Y10445536D01*
X27389027Y10325037D01*
X27665978Y10423036D01*
X27918488Y10573183D01*
X28136854Y10769707D01*
X28300000Y10988078D01*
X28463146Y10769707D01*
X28681512Y10573183D01*
X28934022Y10423036D01*
X29210973Y10325037D01*
X29443000Y10445536D01*
X29443000Y11653000D01*
X29697000Y11653000D01*
X29697000Y10445536D01*
X29929027Y10325037D01*
X30205978Y10423036D01*
X30458488Y10573183D01*
X30676854Y10769707D01*
X30840000Y10988078D01*
X31003146Y10769707D01*
X31221512Y10573183D01*
X31474022Y10423036D01*
X31750973Y10325037D01*
X31983000Y10445536D01*
X31983000Y11653000D01*
X32237000Y11653000D01*
X32237000Y10445536D01*
X32469027Y10325037D01*
X32745978Y10423036D01*
X32998488Y10573183D01*
X33216854Y10769707D01*
X33380000Y10988078D01*
X33543146Y10769707D01*
X33761512Y10573183D01*
X34014022Y10423036D01*
X34290973Y10325037D01*
X34523000Y10445536D01*
X34523000Y11653000D01*
X34777000Y11653000D01*
X34777000Y10445536D01*
X35009027Y10325037D01*
X35285978Y10423036D01*
X35538488Y10573183D01*
X35756854Y10769707D01*
X35920000Y10988078D01*
X36083146Y10769707D01*
X36301512Y10573183D01*
X36554022Y10423036D01*
X36830973Y10325037D01*
X37063000Y10445536D01*
X37063000Y11653000D01*
X37317000Y11653000D01*
X37317000Y10445536D01*
X37549027Y10325037D01*
X37825978Y10423036D01*
X38078488Y10573183D01*
X38296854Y10769707D01*
X38460000Y10988078D01*
X38623146Y10769707D01*
X38841512Y10573183D01*
X39094022Y10423036D01*
X39370973Y10325037D01*
X39603000Y10445536D01*
X39603000Y11653000D01*
X39857000Y11653000D01*
X39857000Y10445536D01*
X40089027Y10325037D01*
X40365978Y10423036D01*
X40618488Y10573183D01*
X40836854Y10769707D01*
X41000000Y10988078D01*
X41163146Y10769707D01*
X41381512Y10573183D01*
X41634022Y10423036D01*
X41910973Y10325037D01*
X42143000Y10445536D01*
X42143000Y11653000D01*
X42397000Y11653000D01*
X42397000Y10445536D01*
X42629027Y10325037D01*
X42905978Y10423036D01*
X43158488Y10573183D01*
X43376854Y10769707D01*
X43540000Y10988078D01*
X43703146Y10769707D01*
X43921512Y10573183D01*
X44174022Y10423036D01*
X44450973Y10325037D01*
X44683000Y10445536D01*
X44683000Y11653000D01*
X44937000Y11653000D01*
X44937000Y10445536D01*
X45169027Y10325037D01*
X45445978Y10423036D01*
X45698488Y10573183D01*
X45916854Y10769707D01*
X46092684Y11005056D01*
X46219222Y11270186D01*
X46264958Y11420974D01*
X46143817Y11653000D01*
X44937000Y11653000D01*
X44683000Y11653000D01*
X42397000Y11653000D01*
X42143000Y11653000D01*
X39857000Y11653000D01*
X39603000Y11653000D01*
X37317000Y11653000D01*
X37063000Y11653000D01*
X34777000Y11653000D01*
X34523000Y11653000D01*
X32237000Y11653000D01*
X31983000Y11653000D01*
X29697000Y11653000D01*
X29443000Y11653000D01*
X27157000Y11653000D01*
X26903000Y11653000D01*
X24617000Y11653000D01*
X24363000Y11653000D01*
X22077000Y11653000D01*
X21823000Y11653000D01*
X19537000Y11653000D01*
X19283000Y11653000D01*
X16997000Y11653000D01*
X16743000Y11653000D01*
X14457000Y11653000D01*
X14203000Y11653000D01*
X11917000Y11653000D01*
X11663000Y11653000D01*
X10456183Y11653000D01*
X10335042Y11420974D01*
X6653128Y11420974D01*
X6662310Y11616817D01*
X6621322Y11888933D01*
X6528036Y12147823D01*
X6466056Y12263780D01*
X6225965Y12330760D01*
X5440005Y11544800D01*
X5080795Y11544800D01*
X4294835Y12330760D01*
X4054744Y12263780D01*
X3993321Y12133156D01*
X3988036Y12147823D01*
X3926056Y12263780D01*
X3685965Y12330760D01*
X2900005Y11544800D01*
X2540795Y11544800D01*
X1754835Y12330760D01*
X1530653Y12268218D01*
X1490950Y12726640D01*
X1485000Y13105349D01*
X1485000Y13119235D01*
X1934440Y13119235D01*
X2001420Y12879144D01*
X2132044Y12817721D01*
X2117377Y12812436D01*
X2001420Y12750456D01*
X1934440Y12510365D01*
X2720400Y11724405D01*
X3506360Y12510365D01*
X3439380Y12750456D01*
X3308756Y12811879D01*
X3323423Y12817164D01*
X3439380Y12879144D01*
X3506360Y13119235D01*
X4474440Y13119235D01*
X4541420Y12879144D01*
X4672044Y12817721D01*
X4657377Y12812436D01*
X4541420Y12750456D01*
X4474440Y12510365D01*
X5260400Y11724405D01*
X6046360Y12510365D01*
X5979380Y12750456D01*
X5848756Y12811879D01*
X5863423Y12817164D01*
X5979380Y12879144D01*
X6046360Y13119235D01*
X5260400Y13905195D01*
X4474440Y13119235D01*
X3506360Y13119235D01*
X2720400Y13905195D01*
X1934440Y13119235D01*
X1485000Y13119235D01*
X1485000Y13421467D01*
X1514744Y13365820D01*
X1754835Y13298840D01*
X2540795Y14084800D01*
X2900005Y14084800D01*
X3685965Y13298840D01*
X3926056Y13365820D01*
X3987479Y13496444D01*
X3992764Y13481777D01*
X4054744Y13365820D01*
X4294835Y13298840D01*
X5080795Y14084800D01*
X5440005Y14084800D01*
X6225965Y13298840D01*
X6466056Y13365820D01*
X6583156Y13614848D01*
X6649423Y13881935D01*
X6662310Y14156817D01*
X6621322Y14428933D01*
X6607390Y14467599D01*
X10291400Y14467599D01*
X10291400Y14172401D01*
X10348990Y13882875D01*
X10461958Y13610147D01*
X10625961Y13364698D01*
X10834698Y13155961D01*
X11000103Y13045441D01*
X10901512Y12986817D01*
X10683146Y12790293D01*
X10507316Y12554944D01*
X10380778Y12289814D01*
X10335042Y12139026D01*
X10456183Y11907000D01*
X11663000Y11907000D01*
X11663000Y11927000D01*
X11917000Y11927000D01*
X11917000Y11907000D01*
X14203000Y11907000D01*
X14203000Y11927000D01*
X14457000Y11927000D01*
X14457000Y11907000D01*
X16743000Y11907000D01*
X16743000Y11927000D01*
X16997000Y11927000D01*
X16997000Y11907000D01*
X19283000Y11907000D01*
X19283000Y11927000D01*
X19537000Y11927000D01*
X19537000Y11907000D01*
X21823000Y11907000D01*
X21823000Y11927000D01*
X22077000Y11927000D01*
X22077000Y11907000D01*
X24363000Y11907000D01*
X24363000Y11927000D01*
X24617000Y11927000D01*
X24617000Y11907000D01*
X26903000Y11907000D01*
X26903000Y11927000D01*
X27157000Y11927000D01*
X27157000Y11907000D01*
X29443000Y11907000D01*
X29443000Y11927000D01*
X29697000Y11927000D01*
X29697000Y11907000D01*
X31983000Y11907000D01*
X31983000Y11927000D01*
X32237000Y11927000D01*
X32237000Y11907000D01*
X34523000Y11907000D01*
X34523000Y11927000D01*
X34777000Y11927000D01*
X34777000Y11907000D01*
X37063000Y11907000D01*
X37063000Y11927000D01*
X37317000Y11927000D01*
X37317000Y11907000D01*
X39603000Y11907000D01*
X39603000Y11927000D01*
X39857000Y11927000D01*
X39857000Y11907000D01*
X42143000Y11907000D01*
X42143000Y11927000D01*
X42397000Y11927000D01*
X42397000Y11907000D01*
X44683000Y11907000D01*
X44683000Y11927000D01*
X44937000Y11927000D01*
X44937000Y11907000D01*
X46143817Y11907000D01*
X46264958Y12139026D01*
X46219222Y12289814D01*
X46092684Y12554944D01*
X45916854Y12790293D01*
X45853426Y12847376D01*
X45917780Y12866898D01*
X46028094Y12925863D01*
X46124785Y13005215D01*
X46204137Y13101906D01*
X46263102Y13212220D01*
X46299412Y13331918D01*
X46311672Y13456400D01*
X46311672Y15183600D01*
X46299412Y15308082D01*
X46263102Y15427780D01*
X46204137Y15538094D01*
X46124785Y15634785D01*
X46028094Y15714137D01*
X45917780Y15773102D01*
X45798082Y15809412D01*
X45673600Y15821672D01*
X43946400Y15821672D01*
X43821918Y15809412D01*
X43702220Y15773102D01*
X43591906Y15714137D01*
X43495215Y15634785D01*
X43415863Y15538094D01*
X43356898Y15427780D01*
X43339364Y15369977D01*
X43225302Y15484039D01*
X42979853Y15648042D01*
X42707125Y15761010D01*
X42417599Y15818600D01*
X42122401Y15818600D01*
X41832875Y15761010D01*
X41560147Y15648042D01*
X41314698Y15484039D01*
X41105961Y15275302D01*
X41000000Y15116719D01*
X40894039Y15275302D01*
X40685302Y15484039D01*
X40439853Y15648042D01*
X40167125Y15761010D01*
X39877599Y15818600D01*
X39582401Y15818600D01*
X39292875Y15761010D01*
X39020147Y15648042D01*
X38774698Y15484039D01*
X38565961Y15275302D01*
X38460000Y15116719D01*
X38354039Y15275302D01*
X38145302Y15484039D01*
X37899853Y15648042D01*
X37627125Y15761010D01*
X37337599Y15818600D01*
X37042401Y15818600D01*
X36752875Y15761010D01*
X36480147Y15648042D01*
X36234698Y15484039D01*
X36025961Y15275302D01*
X35920000Y15116719D01*
X35814039Y15275302D01*
X35605302Y15484039D01*
X35359853Y15648042D01*
X35087125Y15761010D01*
X34797599Y15818600D01*
X34502401Y15818600D01*
X34212875Y15761010D01*
X33940147Y15648042D01*
X33694698Y15484039D01*
X33485961Y15275302D01*
X33380000Y15116719D01*
X33274039Y15275302D01*
X33065302Y15484039D01*
X32819853Y15648042D01*
X32547125Y15761010D01*
X32257599Y15818600D01*
X31962401Y15818600D01*
X31672875Y15761010D01*
X31400147Y15648042D01*
X31154698Y15484039D01*
X30945961Y15275302D01*
X30840000Y15116719D01*
X30734039Y15275302D01*
X30525302Y15484039D01*
X30279853Y15648042D01*
X30007125Y15761010D01*
X29717599Y15818600D01*
X29422401Y15818600D01*
X29132875Y15761010D01*
X28860147Y15648042D01*
X28614698Y15484039D01*
X28405961Y15275302D01*
X28300000Y15116719D01*
X28194039Y15275302D01*
X27985302Y15484039D01*
X27739853Y15648042D01*
X27467125Y15761010D01*
X27177599Y15818600D01*
X26882401Y15818600D01*
X26592875Y15761010D01*
X26320147Y15648042D01*
X26074698Y15484039D01*
X25865961Y15275302D01*
X25760000Y15116719D01*
X25654039Y15275302D01*
X25445302Y15484039D01*
X25199853Y15648042D01*
X24927125Y15761010D01*
X24637599Y15818600D01*
X24342401Y15818600D01*
X24052875Y15761010D01*
X23780147Y15648042D01*
X23534698Y15484039D01*
X23325961Y15275302D01*
X23220000Y15116719D01*
X23114039Y15275302D01*
X22905302Y15484039D01*
X22659853Y15648042D01*
X22387125Y15761010D01*
X22097599Y15818600D01*
X21802401Y15818600D01*
X21512875Y15761010D01*
X21240147Y15648042D01*
X20994698Y15484039D01*
X20785961Y15275302D01*
X20680000Y15116719D01*
X20574039Y15275302D01*
X20365302Y15484039D01*
X20119853Y15648042D01*
X19847125Y15761010D01*
X19557599Y15818600D01*
X19262401Y15818600D01*
X18972875Y15761010D01*
X18700147Y15648042D01*
X18454698Y15484039D01*
X18245961Y15275302D01*
X18140000Y15116719D01*
X18034039Y15275302D01*
X17825302Y15484039D01*
X17579853Y15648042D01*
X17307125Y15761010D01*
X17017599Y15818600D01*
X16722401Y15818600D01*
X16432875Y15761010D01*
X16160147Y15648042D01*
X15914698Y15484039D01*
X15705961Y15275302D01*
X15600000Y15116719D01*
X15494039Y15275302D01*
X15285302Y15484039D01*
X15039853Y15648042D01*
X14767125Y15761010D01*
X14477599Y15818600D01*
X14182401Y15818600D01*
X13892875Y15761010D01*
X13620147Y15648042D01*
X13374698Y15484039D01*
X13165961Y15275302D01*
X13060000Y15116719D01*
X12954039Y15275302D01*
X12745302Y15484039D01*
X12499853Y15648042D01*
X12227125Y15761010D01*
X11937599Y15818600D01*
X11642401Y15818600D01*
X11352875Y15761010D01*
X11080147Y15648042D01*
X10834698Y15484039D01*
X10625961Y15275302D01*
X10461958Y15029853D01*
X10348990Y14757125D01*
X10291400Y14467599D01*
X6607390Y14467599D01*
X6528036Y14687823D01*
X6466056Y14803780D01*
X6225965Y14870760D01*
X5440005Y14084800D01*
X5080795Y14084800D01*
X4294835Y14870760D01*
X4054744Y14803780D01*
X3993321Y14673156D01*
X3988036Y14687823D01*
X3926056Y14803780D01*
X3685965Y14870760D01*
X2900005Y14084800D01*
X2540795Y14084800D01*
X1754835Y14870760D01*
X1514744Y14803780D01*
X1485000Y14740526D01*
X1485000Y15959174D01*
X1635280Y15734265D01*
X1829865Y15539680D01*
X2058673Y15386795D01*
X2130343Y15357108D01*
X2117377Y15352436D01*
X2001420Y15290456D01*
X1934440Y15050365D01*
X2720400Y14264405D01*
X3506360Y15050365D01*
X3439380Y15290456D01*
X3303640Y15354285D01*
X3382127Y15386795D01*
X3610935Y15539680D01*
X3805520Y15734265D01*
X3958405Y15963073D01*
X3990400Y16040315D01*
X4022395Y15963073D01*
X4175280Y15734265D01*
X4369865Y15539680D01*
X4598673Y15386795D01*
X4670343Y15357108D01*
X4657377Y15352436D01*
X4541420Y15290456D01*
X4474440Y15050365D01*
X5260400Y14264405D01*
X6046360Y15050365D01*
X5979380Y15290456D01*
X5843640Y15354285D01*
X5922127Y15386795D01*
X6150935Y15539680D01*
X6345520Y15734265D01*
X6498405Y15963073D01*
X6603714Y16217310D01*
X6657400Y16487208D01*
X6657400Y16762392D01*
X6603714Y17032290D01*
X6498405Y17286527D01*
X6345520Y17515335D01*
X6150935Y17709920D01*
X5922127Y17862805D01*
X5844885Y17894800D01*
X5922127Y17926795D01*
X6150935Y18079680D01*
X6345520Y18274265D01*
X6498405Y18503073D01*
X6603714Y18757310D01*
X6657400Y19027208D01*
X6657400Y19302392D01*
X6603714Y19572290D01*
X6498405Y19826527D01*
X6345520Y20055335D01*
X6150935Y20249920D01*
X5922127Y20402805D01*
X5844885Y20434800D01*
X5922127Y20466795D01*
X6150935Y20619680D01*
X6345520Y20814265D01*
X6498405Y21043073D01*
X6603714Y21297310D01*
X6657400Y21567208D01*
X6657400Y21842392D01*
X6603714Y22112290D01*
X6498405Y22366527D01*
X6345520Y22595335D01*
X6150935Y22789920D01*
X5922127Y22942805D01*
X5844885Y22974800D01*
X5922127Y23006795D01*
X6150935Y23159680D01*
X6345520Y23354265D01*
X6498405Y23583073D01*
X6603714Y23837310D01*
X6657400Y24107208D01*
X6657400Y24382392D01*
X6603714Y24652290D01*
X6498405Y24906527D01*
X6345520Y25135335D01*
X6150935Y25329920D01*
X5922127Y25482805D01*
X5844885Y25514800D01*
X5922127Y25546795D01*
X6150935Y25699680D01*
X6345520Y25894265D01*
X6498405Y26123073D01*
X6603714Y26377310D01*
X6657400Y26647208D01*
X6657400Y26922392D01*
X6611615Y27152569D01*
X29808600Y27152569D01*
X29808600Y26947431D01*
X29848620Y26746235D01*
X29927123Y26556712D01*
X30041092Y26386146D01*
X30186146Y26241092D01*
X30356712Y26127123D01*
X30546235Y26048620D01*
X30747431Y26008600D01*
X30813770Y26008600D01*
X39158600Y17663769D01*
X39158600Y17572431D01*
X39198620Y17371235D01*
X39277123Y17181712D01*
X39391092Y17011146D01*
X39536146Y16866092D01*
X39706712Y16752123D01*
X39896235Y16673620D01*
X40097431Y16633600D01*
X40302569Y16633600D01*
X40503765Y16673620D01*
X40693288Y16752123D01*
X40863854Y16866092D01*
X41008908Y17011146D01*
X41122877Y17181712D01*
X41201380Y17371235D01*
X41241400Y17572431D01*
X41241400Y17777569D01*
X41201380Y17978765D01*
X41122877Y18168288D01*
X41008908Y18338854D01*
X40863854Y18483908D01*
X40693288Y18597877D01*
X40503765Y18676380D01*
X40302569Y18716400D01*
X40261231Y18716400D01*
X31891400Y27086230D01*
X31891400Y27152569D01*
X31851380Y27353765D01*
X31772877Y27543288D01*
X31658908Y27713854D01*
X31513854Y27858908D01*
X31343288Y27972877D01*
X31153765Y28051380D01*
X30952569Y28091400D01*
X30747431Y28091400D01*
X30546235Y28051380D01*
X30356712Y27972877D01*
X30186146Y27858908D01*
X30041092Y27713854D01*
X29927123Y27543288D01*
X29848620Y27353765D01*
X29808600Y27152569D01*
X6611615Y27152569D01*
X6603714Y27192290D01*
X6498405Y27446527D01*
X6345520Y27675335D01*
X6150935Y27869920D01*
X5922127Y28022805D01*
X5844885Y28054800D01*
X5922127Y28086795D01*
X6150935Y28239680D01*
X6345520Y28434265D01*
X6498405Y28663073D01*
X6603714Y28917310D01*
X6657400Y29187208D01*
X6657400Y29462392D01*
X6603714Y29732290D01*
X6498405Y29986527D01*
X6345520Y30215335D01*
X6150935Y30409920D01*
X5922127Y30562805D01*
X5844885Y30594800D01*
X5922127Y30626795D01*
X6150935Y30779680D01*
X6345520Y30974265D01*
X6498405Y31203073D01*
X6603714Y31457310D01*
X6657400Y31727208D01*
X6657400Y32002392D01*
X6603714Y32272290D01*
X6498405Y32526527D01*
X6345520Y32755335D01*
X6150935Y32949920D01*
X5922127Y33102805D01*
X5844885Y33134800D01*
X5922127Y33166795D01*
X6150935Y33319680D01*
X6345520Y33514265D01*
X6498405Y33743073D01*
X6603714Y33997310D01*
X6657400Y34267208D01*
X6657400Y34542392D01*
X6603714Y34812290D01*
X6498405Y35066527D01*
X6345520Y35295335D01*
X6150935Y35489920D01*
X5922127Y35642805D01*
X5844885Y35674800D01*
X5922127Y35706795D01*
X6150935Y35859680D01*
X6345520Y36054265D01*
X6498405Y36283073D01*
X6603714Y36537310D01*
X6657400Y36807208D01*
X6657400Y37082392D01*
X6603714Y37352290D01*
X6498405Y37606527D01*
X6345520Y37835335D01*
X6150935Y38029920D01*
X5922127Y38182805D01*
X5844885Y38214800D01*
X5922127Y38246795D01*
X6150935Y38399680D01*
X6345520Y38594265D01*
X6498405Y38823073D01*
X6603714Y39077310D01*
X6657400Y39347208D01*
X6657400Y39622392D01*
X6603714Y39892290D01*
X6498405Y40146527D01*
X6345520Y40375335D01*
X6150935Y40569920D01*
X5922127Y40722805D01*
X5844885Y40754800D01*
X5922127Y40786795D01*
X6150935Y40939680D01*
X6345520Y41134265D01*
X6498405Y41363073D01*
X6603714Y41617310D01*
X6657400Y41887208D01*
X6657400Y42162392D01*
X6603714Y42432290D01*
X6498405Y42686527D01*
X6345520Y42915335D01*
X6150935Y43109920D01*
X5922127Y43262805D01*
X5844885Y43294800D01*
X5922127Y43326795D01*
X6150935Y43479680D01*
X6345520Y43674265D01*
X6498405Y43903073D01*
X6603714Y44157310D01*
X6657400Y44427208D01*
X6657400Y44702392D01*
X6603714Y44972290D01*
X6498405Y45226527D01*
X6345520Y45455335D01*
X6150935Y45649920D01*
X5922127Y45802805D01*
X5844885Y45834800D01*
X5922127Y45866795D01*
X6150935Y46019680D01*
X6345520Y46214265D01*
X6498405Y46443073D01*
X6603714Y46697310D01*
X6657400Y46967208D01*
X6657400Y47242392D01*
X6603714Y47512290D01*
X6498405Y47766527D01*
X6345520Y47995335D01*
X6150935Y48189920D01*
X5922127Y48342805D01*
X5844885Y48374800D01*
X5922127Y48406795D01*
X6150935Y48559680D01*
X6345520Y48754265D01*
X6498405Y48983073D01*
X6603714Y49237310D01*
X6657400Y49507208D01*
X6657400Y49782392D01*
X6603714Y50052290D01*
X6498405Y50306527D01*
X6345520Y50535335D01*
X6150935Y50729920D01*
X5922127Y50882805D01*
X5844885Y50914800D01*
X5922127Y50946795D01*
X6150935Y51099680D01*
X6345520Y51294265D01*
X6498405Y51523073D01*
X6603714Y51777310D01*
X6657400Y52047208D01*
X6657400Y52322392D01*
X6603714Y52592290D01*
X6498405Y52846527D01*
X6345520Y53075335D01*
X6150935Y53269920D01*
X5922127Y53422805D01*
X5844885Y53454800D01*
X5922127Y53486795D01*
X6150935Y53639680D01*
X6345520Y53834265D01*
X6498405Y54063073D01*
X6603714Y54317310D01*
X6657400Y54587208D01*
X6657400Y54862392D01*
X6603714Y55132290D01*
X6498405Y55386527D01*
X6345520Y55615335D01*
X6150935Y55809920D01*
X5922127Y55962805D01*
X5844885Y55994800D01*
X5922127Y56026795D01*
X6150935Y56179680D01*
X6345520Y56374265D01*
X6498405Y56603073D01*
X6603714Y56857310D01*
X6657400Y57127208D01*
X6657400Y57402392D01*
X6603714Y57672290D01*
X6498405Y57926527D01*
X6345520Y58155335D01*
X6150935Y58349920D01*
X5922127Y58502805D01*
X5844885Y58534800D01*
X5922127Y58566795D01*
X6150935Y58719680D01*
X6345520Y58914265D01*
X6498405Y59143073D01*
X6603714Y59397310D01*
X6657400Y59667208D01*
X6657400Y59942392D01*
X6603714Y60212290D01*
X6498405Y60466527D01*
X6345520Y60695335D01*
X6150935Y60889920D01*
X5922127Y61042805D01*
X5844885Y61074800D01*
X5922127Y61106795D01*
X6150935Y61259680D01*
X6345520Y61454265D01*
X6498405Y61683073D01*
X6603714Y61937310D01*
X6657400Y62207208D01*
X6657400Y62482392D01*
X6603714Y62752290D01*
X6498405Y63006527D01*
X6345520Y63235335D01*
X6150935Y63429920D01*
X5922127Y63582805D01*
X5844885Y63614800D01*
X5922127Y63646795D01*
X6150935Y63799680D01*
X6345520Y63994265D01*
X6498405Y64223073D01*
X6603714Y64477310D01*
X6657400Y64747208D01*
X6657400Y65022392D01*
X6603714Y65292290D01*
X6498405Y65546527D01*
X6345520Y65775335D01*
X6150935Y65969920D01*
X5922127Y66122805D01*
X5850457Y66152492D01*
X5863423Y66157164D01*
X5979380Y66219144D01*
X6046360Y66459235D01*
X5260400Y67245195D01*
X4474440Y66459235D01*
X4541420Y66219144D01*
X4677160Y66155315D01*
X4598673Y66122805D01*
X4369865Y65969920D01*
X4175280Y65775335D01*
X4022395Y65546527D01*
X3990400Y65469285D01*
X3958405Y65546527D01*
X3805520Y65775335D01*
X3610935Y65969920D01*
X3382127Y66122805D01*
X3293871Y66159362D01*
X3319232Y66168523D01*
X3432263Y66228940D01*
X3497788Y66467807D01*
X2720400Y67245195D01*
X1943012Y66467807D01*
X2008537Y66228940D01*
X2152175Y66161535D01*
X2058673Y66122805D01*
X1829865Y65969920D01*
X1635280Y65775335D01*
X1485000Y65550426D01*
X1485000Y66786910D01*
X1524540Y66712937D01*
X1763407Y66647412D01*
X2540795Y67424800D01*
X2900005Y67424800D01*
X3677393Y66647412D01*
X3916260Y66712937D01*
X3981719Y66852429D01*
X3992764Y66821777D01*
X4054744Y66705820D01*
X4294835Y66638840D01*
X5080795Y67424800D01*
X5440005Y67424800D01*
X6225965Y66638840D01*
X6466056Y66705820D01*
X6583156Y66954848D01*
X6649423Y67221935D01*
X6662310Y67496817D01*
X6621322Y67768933D01*
X6528036Y68027823D01*
X6466056Y68143780D01*
X6225965Y68210760D01*
X5440005Y67424800D01*
X5080795Y67424800D01*
X4294835Y68210760D01*
X4054744Y68143780D01*
X3986048Y67997689D01*
X3976677Y68023632D01*
X3916260Y68136663D01*
X3677393Y68202188D01*
X2900005Y67424800D01*
X2540795Y67424800D01*
X1763407Y68202188D01*
X1524540Y68136663D01*
X1485000Y68052405D01*
X1485000Y68381793D01*
X1943012Y68381793D01*
X2720400Y67604405D01*
X3497788Y68381793D01*
X3495437Y68390365D01*
X4474440Y68390365D01*
X5260400Y67604405D01*
X6046360Y68390365D01*
X5979380Y68630456D01*
X5730352Y68747556D01*
X5463265Y68813823D01*
X5188383Y68826710D01*
X4916267Y68785722D01*
X4657377Y68692436D01*
X4541420Y68630456D01*
X4474440Y68390365D01*
X3495437Y68390365D01*
X3432263Y68620660D01*
X3185284Y68736560D01*
X2920440Y68802050D01*
X2647908Y68814612D01*
X2378162Y68773765D01*
X2121568Y68681077D01*
X2008537Y68620660D01*
X1943012Y68381793D01*
X1485000Y68381793D01*
X1485000Y70315000D01*
X14042315Y70315000D01*
X16083648Y65649096D01*
%TA.AperFunction,Conductor*%
D17*
G36*
X16083648Y65649096D02*
G01*
X16095815Y65627375D01*
X16111985Y65608445D01*
X16131538Y65593033D01*
X16153721Y65581732D01*
X16177683Y65574976D01*
X16200000Y65573000D01*
X16419908Y65573000D01*
X16436594Y65564081D01*
X16443112Y65562104D01*
X16449179Y65559013D01*
X16507606Y65542540D01*
X16565717Y65524912D01*
X16572496Y65524244D01*
X16579048Y65522397D01*
X16639555Y65517639D01*
X16666353Y65515000D01*
X16673124Y65515000D01*
X16713567Y65511820D01*
X16740417Y65515000D01*
X39459592Y65515000D01*
X39486434Y65511821D01*
X39526868Y65515000D01*
X39533647Y65515000D01*
X39560468Y65517642D01*
X39620951Y65522397D01*
X39627502Y65524244D01*
X39634283Y65524912D01*
X39692433Y65542552D01*
X39750820Y65559014D01*
X39756881Y65562102D01*
X39763406Y65564081D01*
X39780093Y65573000D01*
X40000000Y65573000D01*
X40024776Y65575440D01*
X40048601Y65582667D01*
X40070557Y65594403D01*
X40089803Y65610197D01*
X40105597Y65629443D01*
X40116352Y65649096D01*
X42157685Y70315000D01*
X54715000Y70315000D01*
X54715000Y68151487D01*
X54605520Y68315335D01*
X54410935Y68509920D01*
X54182127Y68662805D01*
X53927890Y68768114D01*
X53657992Y68821800D01*
X53382808Y68821800D01*
X53112910Y68768114D01*
X52858673Y68662805D01*
X52629865Y68509920D01*
X52435280Y68315335D01*
X52282395Y68086527D01*
X52243906Y67993606D01*
X52207771Y68080843D01*
X52056199Y68307686D01*
X51863286Y68500599D01*
X51636443Y68652171D01*
X51384389Y68756575D01*
X51116811Y68809800D01*
X50843989Y68809800D01*
X50576411Y68756575D01*
X50324357Y68652171D01*
X50097514Y68500599D01*
X49904601Y68307686D01*
X49753029Y68080843D01*
X49648625Y67828789D01*
X49595400Y67561211D01*
X49595400Y67288389D01*
X49648625Y67020811D01*
X49753029Y66768757D01*
X49904601Y66541914D01*
X50097514Y66349001D01*
X50324357Y66197429D01*
X50411594Y66161294D01*
X50318673Y66122805D01*
X50089865Y65969920D01*
X49895280Y65775335D01*
X49742395Y65546527D01*
X49637086Y65292290D01*
X49583400Y65022392D01*
X49583400Y64747208D01*
X49637086Y64477310D01*
X49742395Y64223073D01*
X49895280Y63994265D01*
X50089865Y63799680D01*
X50318673Y63646795D01*
X50395915Y63614800D01*
X50318673Y63582805D01*
X50089865Y63429920D01*
X49895280Y63235335D01*
X49742395Y63006527D01*
X49637086Y62752290D01*
X49583400Y62482392D01*
X49583400Y62207208D01*
X49637086Y61937310D01*
X49742395Y61683073D01*
X49895280Y61454265D01*
X50089865Y61259680D01*
X50318673Y61106795D01*
X50395915Y61074800D01*
X50318673Y61042805D01*
X50089865Y60889920D01*
X49895280Y60695335D01*
X49742395Y60466527D01*
X49637086Y60212290D01*
X49583400Y59942392D01*
X49583400Y59667208D01*
X49637086Y59397310D01*
X49742395Y59143073D01*
X49895280Y58914265D01*
X50089865Y58719680D01*
X50318673Y58566795D01*
X50395915Y58534800D01*
X50318673Y58502805D01*
X50089865Y58349920D01*
X49895280Y58155335D01*
X49742395Y57926527D01*
X49637086Y57672290D01*
X49583400Y57402392D01*
X49583400Y57127208D01*
X49637086Y56857310D01*
X49742395Y56603073D01*
X49895280Y56374265D01*
X50089865Y56179680D01*
X50318673Y56026795D01*
X50395915Y55994800D01*
X50318673Y55962805D01*
X50089865Y55809920D01*
X49895280Y55615335D01*
X49742395Y55386527D01*
X49637086Y55132290D01*
X49583400Y54862392D01*
X49583400Y54587208D01*
X49637086Y54317310D01*
X49742395Y54063073D01*
X49895280Y53834265D01*
X50089865Y53639680D01*
X50318673Y53486795D01*
X50395915Y53454800D01*
X50318673Y53422805D01*
X50089865Y53269920D01*
X49895280Y53075335D01*
X49742395Y52846527D01*
X49637086Y52592290D01*
X49583400Y52322392D01*
X49583400Y52047208D01*
X49637086Y51777310D01*
X49742395Y51523073D01*
X49895280Y51294265D01*
X50089865Y51099680D01*
X50318673Y50946795D01*
X50395915Y50914800D01*
X50318673Y50882805D01*
X50089865Y50729920D01*
X49895280Y50535335D01*
X49742395Y50306527D01*
X49637086Y50052290D01*
X49583400Y49782392D01*
X49583400Y49507208D01*
X49637086Y49237310D01*
X49742395Y48983073D01*
X49895280Y48754265D01*
X50089865Y48559680D01*
X50318673Y48406795D01*
X50395915Y48374800D01*
X50318673Y48342805D01*
X50089865Y48189920D01*
X49895280Y47995335D01*
X49742395Y47766527D01*
X49637086Y47512290D01*
X49583400Y47242392D01*
X49583400Y46967208D01*
X49637086Y46697310D01*
X49742395Y46443073D01*
X49895280Y46214265D01*
X50089865Y46019680D01*
X50318673Y45866795D01*
X50395915Y45834800D01*
X50318673Y45802805D01*
X50089865Y45649920D01*
X49895280Y45455335D01*
X49742395Y45226527D01*
X49637086Y44972290D01*
X49583400Y44702392D01*
X49583400Y44427208D01*
X49637086Y44157310D01*
X49742395Y43903073D01*
X49895280Y43674265D01*
X50089865Y43479680D01*
X50318673Y43326795D01*
X50395915Y43294800D01*
X50318673Y43262805D01*
X50089865Y43109920D01*
X49895280Y42915335D01*
X49742395Y42686527D01*
X49637086Y42432290D01*
X49583400Y42162392D01*
X49583400Y41887208D01*
X49637086Y41617310D01*
X49742395Y41363073D01*
X49895280Y41134265D01*
X50089865Y40939680D01*
X50318673Y40786795D01*
X50395915Y40754800D01*
X50318673Y40722805D01*
X50089865Y40569920D01*
X49895280Y40375335D01*
X49742395Y40146527D01*
X49637086Y39892290D01*
X49583400Y39622392D01*
X49583400Y39347208D01*
X49637086Y39077310D01*
X49742395Y38823073D01*
X49895280Y38594265D01*
X50089865Y38399680D01*
X50318673Y38246795D01*
X50395915Y38214800D01*
X50318673Y38182805D01*
X50089865Y38029920D01*
X49895280Y37835335D01*
X49742395Y37606527D01*
X49637086Y37352290D01*
X49583400Y37082392D01*
X49583400Y36807208D01*
X49637086Y36537310D01*
X49742395Y36283073D01*
X49895280Y36054265D01*
X50089865Y35859680D01*
X50318673Y35706795D01*
X50395915Y35674800D01*
X50318673Y35642805D01*
X50089865Y35489920D01*
X49895280Y35295335D01*
X49742395Y35066527D01*
X49637086Y34812290D01*
X49583400Y34542392D01*
X49583400Y34267208D01*
X49637086Y33997310D01*
X49742395Y33743073D01*
X49895280Y33514265D01*
X50089865Y33319680D01*
X50318673Y33166795D01*
X50395915Y33134800D01*
X50318673Y33102805D01*
X50089865Y32949920D01*
X49895280Y32755335D01*
X49742395Y32526527D01*
X49637086Y32272290D01*
X49583400Y32002392D01*
X49583400Y31727208D01*
X49637086Y31457310D01*
X49742395Y31203073D01*
X49895280Y30974265D01*
X50089865Y30779680D01*
X50318673Y30626795D01*
X50395915Y30594800D01*
X50318673Y30562805D01*
X50089865Y30409920D01*
X49895280Y30215335D01*
X49742395Y29986527D01*
X49637086Y29732290D01*
X49583400Y29462392D01*
X49583400Y29187208D01*
X49637086Y28917310D01*
X49742395Y28663073D01*
X49895280Y28434265D01*
X50089865Y28239680D01*
X50318673Y28086795D01*
X50395915Y28054800D01*
X50318673Y28022805D01*
X50089865Y27869920D01*
X49895280Y27675335D01*
X49742395Y27446527D01*
X49637086Y27192290D01*
X49583400Y26922392D01*
X49583400Y26647208D01*
X49637086Y26377310D01*
X49742395Y26123073D01*
X49895280Y25894265D01*
X50089865Y25699680D01*
X50318673Y25546795D01*
X50395915Y25514800D01*
X50318673Y25482805D01*
X50089865Y25329920D01*
X49895280Y25135335D01*
X49742395Y24906527D01*
X49637086Y24652290D01*
X49583400Y24382392D01*
X49583400Y24107208D01*
X49637086Y23837310D01*
X49742395Y23583073D01*
X49895280Y23354265D01*
X50089865Y23159680D01*
X50318673Y23006795D01*
X50395915Y22974800D01*
X50318673Y22942805D01*
X50089865Y22789920D01*
X49895280Y22595335D01*
X49742395Y22366527D01*
X49637086Y22112290D01*
X49583400Y21842392D01*
X49583400Y21567208D01*
X49637086Y21297310D01*
X49742395Y21043073D01*
X49895280Y20814265D01*
X50089865Y20619680D01*
X50318673Y20466795D01*
X50395915Y20434800D01*
X50318673Y20402805D01*
X50089865Y20249920D01*
X49895280Y20055335D01*
X49742395Y19826527D01*
X49637086Y19572290D01*
X49583400Y19302392D01*
X49583400Y19027208D01*
X49637086Y18757310D01*
X49742395Y18503073D01*
X49895280Y18274265D01*
X50089865Y18079680D01*
X50318673Y17926795D01*
X50395915Y17894800D01*
X50318673Y17862805D01*
X50089865Y17709920D01*
X49895280Y17515335D01*
X49742395Y17286527D01*
X49637086Y17032290D01*
X49583400Y16762392D01*
X49583400Y16487208D01*
X49637086Y16217310D01*
X49742395Y15963073D01*
X49895280Y15734265D01*
X50089865Y15539680D01*
X50318673Y15386795D01*
X50395915Y15354800D01*
X50318673Y15322805D01*
X50089865Y15169920D01*
X49895280Y14975335D01*
X49742395Y14746527D01*
X49637086Y14492290D01*
X49583400Y14222392D01*
X49583400Y13947208D01*
X49637086Y13677310D01*
X49742395Y13423073D01*
X49895280Y13194265D01*
X50089865Y12999680D01*
X50318673Y12846795D01*
X50395915Y12814800D01*
X50318673Y12782805D01*
X50089865Y12629920D01*
X49895280Y12435335D01*
X49742395Y12206527D01*
X49637086Y11952290D01*
X49583400Y11682392D01*
X49583400Y11407208D01*
X49637086Y11137310D01*
X49742395Y10883073D01*
X49895280Y10654265D01*
X50089865Y10459680D01*
X50318673Y10306795D01*
X50572910Y10201486D01*
X50842808Y10147800D01*
X51117992Y10147800D01*
X51387890Y10201486D01*
X51642127Y10306795D01*
X51870935Y10459680D01*
X52065520Y10654265D01*
X52218405Y10883073D01*
X52250400Y10960315D01*
X52282395Y10883073D01*
X52435280Y10654265D01*
X52629865Y10459680D01*
X52858673Y10306795D01*
X53112910Y10201486D01*
X53382808Y10147800D01*
X53657992Y10147800D01*
X53927890Y10201486D01*
X54182127Y10306795D01*
X54410935Y10459680D01*
X54575987Y10624732D01*
X54418796Y9709936D01*
X54053478Y8456586D01*
X53548620Y7252637D01*
X52910722Y6113587D01*
X52147980Y5054072D01*
X51270195Y4087707D01*
X50288660Y3226923D01*
X49215993Y2482789D01*
X48065981Y1864864D01*
X46853414Y1381099D01*
X45593880Y1037711D01*
X44300590Y838654D01*
X43183561Y785000D01*
X13818834Y785000D01*
X12448736Y860402D01*
X11113792Y1082597D01*
X9811291Y1449940D01*
X8556965Y1957994D01*
X7365975Y2600618D01*
X6252682Y3370062D01*
X5230554Y4257020D01*
X4311925Y5250788D01*
X3507901Y6339349D01*
X2828177Y7509581D01*
X2280977Y8747323D01*
X1872903Y10037641D01*
X1780953Y10499901D01*
X1818031Y10462823D01*
X1934441Y10579233D01*
X2001420Y10339144D01*
X2250448Y10222044D01*
X2517535Y10155777D01*
X2792417Y10142890D01*
X3064533Y10183878D01*
X3323423Y10277164D01*
X3439380Y10339144D01*
X3506360Y10579235D01*
X4474440Y10579235D01*
X4541420Y10339144D01*
X4790448Y10222044D01*
X5057535Y10155777D01*
X5332417Y10142890D01*
X5604533Y10183878D01*
X5863423Y10277164D01*
X5979380Y10339144D01*
X6046360Y10579235D01*
X5260400Y11365195D01*
X4474440Y10579235D01*
X3506360Y10579235D01*
X2720400Y11365195D01*
X2706258Y11351052D01*
X2526653Y11530657D01*
X2540795Y11544800D01*
X2900005Y11544800D01*
X3685965Y10758840D01*
X3926056Y10825820D01*
X3987479Y10956444D01*
X3992764Y10941777D01*
X4054744Y10825820D01*
X4294835Y10758840D01*
X5080795Y11544800D01*
X5440005Y11544800D01*
X6225965Y10758840D01*
X6466056Y10825820D01*
X6583156Y11074848D01*
X6649423Y11341935D01*
X6653128Y11420974D01*
X10335042Y11420974D01*
X10380778Y11270186D01*
X10507316Y11005056D01*
X10683146Y10769707D01*
X10901512Y10573183D01*
X11154022Y10423036D01*
X11430973Y10325037D01*
X11663000Y10445536D01*
X11663000Y11653000D01*
X11917000Y11653000D01*
X11917000Y10445536D01*
X12149027Y10325037D01*
X12425978Y10423036D01*
X12678488Y10573183D01*
X12896854Y10769707D01*
X13060000Y10988078D01*
X13223146Y10769707D01*
X13441512Y10573183D01*
X13694022Y10423036D01*
X13970973Y10325037D01*
X14203000Y10445536D01*
X14203000Y11653000D01*
X14457000Y11653000D01*
X14457000Y10445536D01*
X14689027Y10325037D01*
X14965978Y10423036D01*
X15218488Y10573183D01*
X15436854Y10769707D01*
X15600000Y10988078D01*
X15763146Y10769707D01*
X15981512Y10573183D01*
X16234022Y10423036D01*
X16510973Y10325037D01*
X16743000Y10445536D01*
X16743000Y11653000D01*
X16997000Y11653000D01*
X16997000Y10445536D01*
X17229027Y10325037D01*
X17505978Y10423036D01*
X17758488Y10573183D01*
X17976854Y10769707D01*
X18140000Y10988078D01*
X18303146Y10769707D01*
X18521512Y10573183D01*
X18774022Y10423036D01*
X19050973Y10325037D01*
X19283000Y10445536D01*
X19283000Y11653000D01*
X19537000Y11653000D01*
X19537000Y10445536D01*
X19769027Y10325037D01*
X20045978Y10423036D01*
X20298488Y10573183D01*
X20516854Y10769707D01*
X20680000Y10988078D01*
X20843146Y10769707D01*
X21061512Y10573183D01*
X21314022Y10423036D01*
X21590973Y10325037D01*
X21823000Y10445536D01*
X21823000Y11653000D01*
X22077000Y11653000D01*
X22077000Y10445536D01*
X22309027Y10325037D01*
X22585978Y10423036D01*
X22838488Y10573183D01*
X23056854Y10769707D01*
X23220000Y10988078D01*
X23383146Y10769707D01*
X23601512Y10573183D01*
X23854022Y10423036D01*
X24130973Y10325037D01*
X24363000Y10445536D01*
X24363000Y11653000D01*
X24617000Y11653000D01*
X24617000Y10445536D01*
X24849027Y10325037D01*
X25125978Y10423036D01*
X25378488Y10573183D01*
X25596854Y10769707D01*
X25760000Y10988078D01*
X25923146Y10769707D01*
X26141512Y10573183D01*
X26394022Y10423036D01*
X26670973Y10325037D01*
X26903000Y10445536D01*
X26903000Y11653000D01*
X27157000Y11653000D01*
X27157000Y10445536D01*
X27389027Y10325037D01*
X27665978Y10423036D01*
X27918488Y10573183D01*
X28136854Y10769707D01*
X28300000Y10988078D01*
X28463146Y10769707D01*
X28681512Y10573183D01*
X28934022Y10423036D01*
X29210973Y10325037D01*
X29443000Y10445536D01*
X29443000Y11653000D01*
X29697000Y11653000D01*
X29697000Y10445536D01*
X29929027Y10325037D01*
X30205978Y10423036D01*
X30458488Y10573183D01*
X30676854Y10769707D01*
X30840000Y10988078D01*
X31003146Y10769707D01*
X31221512Y10573183D01*
X31474022Y10423036D01*
X31750973Y10325037D01*
X31983000Y10445536D01*
X31983000Y11653000D01*
X32237000Y11653000D01*
X32237000Y10445536D01*
X32469027Y10325037D01*
X32745978Y10423036D01*
X32998488Y10573183D01*
X33216854Y10769707D01*
X33380000Y10988078D01*
X33543146Y10769707D01*
X33761512Y10573183D01*
X34014022Y10423036D01*
X34290973Y10325037D01*
X34523000Y10445536D01*
X34523000Y11653000D01*
X34777000Y11653000D01*
X34777000Y10445536D01*
X35009027Y10325037D01*
X35285978Y10423036D01*
X35538488Y10573183D01*
X35756854Y10769707D01*
X35920000Y10988078D01*
X36083146Y10769707D01*
X36301512Y10573183D01*
X36554022Y10423036D01*
X36830973Y10325037D01*
X37063000Y10445536D01*
X37063000Y11653000D01*
X37317000Y11653000D01*
X37317000Y10445536D01*
X37549027Y10325037D01*
X37825978Y10423036D01*
X38078488Y10573183D01*
X38296854Y10769707D01*
X38460000Y10988078D01*
X38623146Y10769707D01*
X38841512Y10573183D01*
X39094022Y10423036D01*
X39370973Y10325037D01*
X39603000Y10445536D01*
X39603000Y11653000D01*
X39857000Y11653000D01*
X39857000Y10445536D01*
X40089027Y10325037D01*
X40365978Y10423036D01*
X40618488Y10573183D01*
X40836854Y10769707D01*
X41000000Y10988078D01*
X41163146Y10769707D01*
X41381512Y10573183D01*
X41634022Y10423036D01*
X41910973Y10325037D01*
X42143000Y10445536D01*
X42143000Y11653000D01*
X42397000Y11653000D01*
X42397000Y10445536D01*
X42629027Y10325037D01*
X42905978Y10423036D01*
X43158488Y10573183D01*
X43376854Y10769707D01*
X43540000Y10988078D01*
X43703146Y10769707D01*
X43921512Y10573183D01*
X44174022Y10423036D01*
X44450973Y10325037D01*
X44683000Y10445536D01*
X44683000Y11653000D01*
X44937000Y11653000D01*
X44937000Y10445536D01*
X45169027Y10325037D01*
X45445978Y10423036D01*
X45698488Y10573183D01*
X45916854Y10769707D01*
X46092684Y11005056D01*
X46219222Y11270186D01*
X46264958Y11420974D01*
X46143817Y11653000D01*
X44937000Y11653000D01*
X44683000Y11653000D01*
X42397000Y11653000D01*
X42143000Y11653000D01*
X39857000Y11653000D01*
X39603000Y11653000D01*
X37317000Y11653000D01*
X37063000Y11653000D01*
X34777000Y11653000D01*
X34523000Y11653000D01*
X32237000Y11653000D01*
X31983000Y11653000D01*
X29697000Y11653000D01*
X29443000Y11653000D01*
X27157000Y11653000D01*
X26903000Y11653000D01*
X24617000Y11653000D01*
X24363000Y11653000D01*
X22077000Y11653000D01*
X21823000Y11653000D01*
X19537000Y11653000D01*
X19283000Y11653000D01*
X16997000Y11653000D01*
X16743000Y11653000D01*
X14457000Y11653000D01*
X14203000Y11653000D01*
X11917000Y11653000D01*
X11663000Y11653000D01*
X10456183Y11653000D01*
X10335042Y11420974D01*
X6653128Y11420974D01*
X6662310Y11616817D01*
X6621322Y11888933D01*
X6528036Y12147823D01*
X6466056Y12263780D01*
X6225965Y12330760D01*
X5440005Y11544800D01*
X5080795Y11544800D01*
X4294835Y12330760D01*
X4054744Y12263780D01*
X3993321Y12133156D01*
X3988036Y12147823D01*
X3926056Y12263780D01*
X3685965Y12330760D01*
X2900005Y11544800D01*
X2540795Y11544800D01*
X1754835Y12330760D01*
X1530653Y12268218D01*
X1490950Y12726640D01*
X1485000Y13105349D01*
X1485000Y13119235D01*
X1934440Y13119235D01*
X2001420Y12879144D01*
X2132044Y12817721D01*
X2117377Y12812436D01*
X2001420Y12750456D01*
X1934440Y12510365D01*
X2720400Y11724405D01*
X3506360Y12510365D01*
X3439380Y12750456D01*
X3308756Y12811879D01*
X3323423Y12817164D01*
X3439380Y12879144D01*
X3506360Y13119235D01*
X4474440Y13119235D01*
X4541420Y12879144D01*
X4672044Y12817721D01*
X4657377Y12812436D01*
X4541420Y12750456D01*
X4474440Y12510365D01*
X5260400Y11724405D01*
X6046360Y12510365D01*
X5979380Y12750456D01*
X5848756Y12811879D01*
X5863423Y12817164D01*
X5979380Y12879144D01*
X6046360Y13119235D01*
X5260400Y13905195D01*
X4474440Y13119235D01*
X3506360Y13119235D01*
X2720400Y13905195D01*
X1934440Y13119235D01*
X1485000Y13119235D01*
X1485000Y13421467D01*
X1514744Y13365820D01*
X1754835Y13298840D01*
X2540795Y14084800D01*
X2900005Y14084800D01*
X3685965Y13298840D01*
X3926056Y13365820D01*
X3987479Y13496444D01*
X3992764Y13481777D01*
X4054744Y13365820D01*
X4294835Y13298840D01*
X5080795Y14084800D01*
X5440005Y14084800D01*
X6225965Y13298840D01*
X6466056Y13365820D01*
X6583156Y13614848D01*
X6649423Y13881935D01*
X6662310Y14156817D01*
X6621322Y14428933D01*
X6607390Y14467599D01*
X10291400Y14467599D01*
X10291400Y14172401D01*
X10348990Y13882875D01*
X10461958Y13610147D01*
X10625961Y13364698D01*
X10834698Y13155961D01*
X11000103Y13045441D01*
X10901512Y12986817D01*
X10683146Y12790293D01*
X10507316Y12554944D01*
X10380778Y12289814D01*
X10335042Y12139026D01*
X10456183Y11907000D01*
X11663000Y11907000D01*
X11663000Y11927000D01*
X11917000Y11927000D01*
X11917000Y11907000D01*
X14203000Y11907000D01*
X14203000Y11927000D01*
X14457000Y11927000D01*
X14457000Y11907000D01*
X16743000Y11907000D01*
X16743000Y11927000D01*
X16997000Y11927000D01*
X16997000Y11907000D01*
X19283000Y11907000D01*
X19283000Y11927000D01*
X19537000Y11927000D01*
X19537000Y11907000D01*
X21823000Y11907000D01*
X21823000Y11927000D01*
X22077000Y11927000D01*
X22077000Y11907000D01*
X24363000Y11907000D01*
X24363000Y11927000D01*
X24617000Y11927000D01*
X24617000Y11907000D01*
X26903000Y11907000D01*
X26903000Y11927000D01*
X27157000Y11927000D01*
X27157000Y11907000D01*
X29443000Y11907000D01*
X29443000Y11927000D01*
X29697000Y11927000D01*
X29697000Y11907000D01*
X31983000Y11907000D01*
X31983000Y11927000D01*
X32237000Y11927000D01*
X32237000Y11907000D01*
X34523000Y11907000D01*
X34523000Y11927000D01*
X34777000Y11927000D01*
X34777000Y11907000D01*
X37063000Y11907000D01*
X37063000Y11927000D01*
X37317000Y11927000D01*
X37317000Y11907000D01*
X39603000Y11907000D01*
X39603000Y11927000D01*
X39857000Y11927000D01*
X39857000Y11907000D01*
X42143000Y11907000D01*
X42143000Y11927000D01*
X42397000Y11927000D01*
X42397000Y11907000D01*
X44683000Y11907000D01*
X44683000Y11927000D01*
X44937000Y11927000D01*
X44937000Y11907000D01*
X46143817Y11907000D01*
X46264958Y12139026D01*
X46219222Y12289814D01*
X46092684Y12554944D01*
X45916854Y12790293D01*
X45853426Y12847376D01*
X45917780Y12866898D01*
X46028094Y12925863D01*
X46124785Y13005215D01*
X46204137Y13101906D01*
X46263102Y13212220D01*
X46299412Y13331918D01*
X46311672Y13456400D01*
X46311672Y15183600D01*
X46299412Y15308082D01*
X46263102Y15427780D01*
X46204137Y15538094D01*
X46124785Y15634785D01*
X46028094Y15714137D01*
X45917780Y15773102D01*
X45798082Y15809412D01*
X45673600Y15821672D01*
X43946400Y15821672D01*
X43821918Y15809412D01*
X43702220Y15773102D01*
X43591906Y15714137D01*
X43495215Y15634785D01*
X43415863Y15538094D01*
X43356898Y15427780D01*
X43339364Y15369977D01*
X43225302Y15484039D01*
X42979853Y15648042D01*
X42707125Y15761010D01*
X42417599Y15818600D01*
X42122401Y15818600D01*
X41832875Y15761010D01*
X41560147Y15648042D01*
X41314698Y15484039D01*
X41105961Y15275302D01*
X41000000Y15116719D01*
X40894039Y15275302D01*
X40685302Y15484039D01*
X40439853Y15648042D01*
X40167125Y15761010D01*
X39877599Y15818600D01*
X39582401Y15818600D01*
X39292875Y15761010D01*
X39020147Y15648042D01*
X38774698Y15484039D01*
X38565961Y15275302D01*
X38460000Y15116719D01*
X38354039Y15275302D01*
X38145302Y15484039D01*
X37899853Y15648042D01*
X37627125Y15761010D01*
X37337599Y15818600D01*
X37042401Y15818600D01*
X36752875Y15761010D01*
X36480147Y15648042D01*
X36234698Y15484039D01*
X36025961Y15275302D01*
X35920000Y15116719D01*
X35814039Y15275302D01*
X35605302Y15484039D01*
X35359853Y15648042D01*
X35087125Y15761010D01*
X34797599Y15818600D01*
X34502401Y15818600D01*
X34212875Y15761010D01*
X33940147Y15648042D01*
X33694698Y15484039D01*
X33485961Y15275302D01*
X33380000Y15116719D01*
X33274039Y15275302D01*
X33065302Y15484039D01*
X32819853Y15648042D01*
X32547125Y15761010D01*
X32257599Y15818600D01*
X31962401Y15818600D01*
X31672875Y15761010D01*
X31400147Y15648042D01*
X31154698Y15484039D01*
X30945961Y15275302D01*
X30840000Y15116719D01*
X30734039Y15275302D01*
X30525302Y15484039D01*
X30279853Y15648042D01*
X30007125Y15761010D01*
X29717599Y15818600D01*
X29422401Y15818600D01*
X29132875Y15761010D01*
X28860147Y15648042D01*
X28614698Y15484039D01*
X28405961Y15275302D01*
X28300000Y15116719D01*
X28194039Y15275302D01*
X27985302Y15484039D01*
X27739853Y15648042D01*
X27467125Y15761010D01*
X27177599Y15818600D01*
X26882401Y15818600D01*
X26592875Y15761010D01*
X26320147Y15648042D01*
X26074698Y15484039D01*
X25865961Y15275302D01*
X25760000Y15116719D01*
X25654039Y15275302D01*
X25445302Y15484039D01*
X25199853Y15648042D01*
X24927125Y15761010D01*
X24637599Y15818600D01*
X24342401Y15818600D01*
X24052875Y15761010D01*
X23780147Y15648042D01*
X23534698Y15484039D01*
X23325961Y15275302D01*
X23220000Y15116719D01*
X23114039Y15275302D01*
X22905302Y15484039D01*
X22659853Y15648042D01*
X22387125Y15761010D01*
X22097599Y15818600D01*
X21802401Y15818600D01*
X21512875Y15761010D01*
X21240147Y15648042D01*
X20994698Y15484039D01*
X20785961Y15275302D01*
X20680000Y15116719D01*
X20574039Y15275302D01*
X20365302Y15484039D01*
X20119853Y15648042D01*
X19847125Y15761010D01*
X19557599Y15818600D01*
X19262401Y15818600D01*
X18972875Y15761010D01*
X18700147Y15648042D01*
X18454698Y15484039D01*
X18245961Y15275302D01*
X18140000Y15116719D01*
X18034039Y15275302D01*
X17825302Y15484039D01*
X17579853Y15648042D01*
X17307125Y15761010D01*
X17017599Y15818600D01*
X16722401Y15818600D01*
X16432875Y15761010D01*
X16160147Y15648042D01*
X15914698Y15484039D01*
X15705961Y15275302D01*
X15600000Y15116719D01*
X15494039Y15275302D01*
X15285302Y15484039D01*
X15039853Y15648042D01*
X14767125Y15761010D01*
X14477599Y15818600D01*
X14182401Y15818600D01*
X13892875Y15761010D01*
X13620147Y15648042D01*
X13374698Y15484039D01*
X13165961Y15275302D01*
X13060000Y15116719D01*
X12954039Y15275302D01*
X12745302Y15484039D01*
X12499853Y15648042D01*
X12227125Y15761010D01*
X11937599Y15818600D01*
X11642401Y15818600D01*
X11352875Y15761010D01*
X11080147Y15648042D01*
X10834698Y15484039D01*
X10625961Y15275302D01*
X10461958Y15029853D01*
X10348990Y14757125D01*
X10291400Y14467599D01*
X6607390Y14467599D01*
X6528036Y14687823D01*
X6466056Y14803780D01*
X6225965Y14870760D01*
X5440005Y14084800D01*
X5080795Y14084800D01*
X4294835Y14870760D01*
X4054744Y14803780D01*
X3993321Y14673156D01*
X3988036Y14687823D01*
X3926056Y14803780D01*
X3685965Y14870760D01*
X2900005Y14084800D01*
X2540795Y14084800D01*
X1754835Y14870760D01*
X1514744Y14803780D01*
X1485000Y14740526D01*
X1485000Y15959174D01*
X1635280Y15734265D01*
X1829865Y15539680D01*
X2058673Y15386795D01*
X2130343Y15357108D01*
X2117377Y15352436D01*
X2001420Y15290456D01*
X1934440Y15050365D01*
X2720400Y14264405D01*
X3506360Y15050365D01*
X3439380Y15290456D01*
X3303640Y15354285D01*
X3382127Y15386795D01*
X3610935Y15539680D01*
X3805520Y15734265D01*
X3958405Y15963073D01*
X3990400Y16040315D01*
X4022395Y15963073D01*
X4175280Y15734265D01*
X4369865Y15539680D01*
X4598673Y15386795D01*
X4670343Y15357108D01*
X4657377Y15352436D01*
X4541420Y15290456D01*
X4474440Y15050365D01*
X5260400Y14264405D01*
X6046360Y15050365D01*
X5979380Y15290456D01*
X5843640Y15354285D01*
X5922127Y15386795D01*
X6150935Y15539680D01*
X6345520Y15734265D01*
X6498405Y15963073D01*
X6603714Y16217310D01*
X6657400Y16487208D01*
X6657400Y16762392D01*
X6603714Y17032290D01*
X6498405Y17286527D01*
X6345520Y17515335D01*
X6150935Y17709920D01*
X5922127Y17862805D01*
X5844885Y17894800D01*
X5922127Y17926795D01*
X6150935Y18079680D01*
X6345520Y18274265D01*
X6498405Y18503073D01*
X6603714Y18757310D01*
X6657400Y19027208D01*
X6657400Y19302392D01*
X6603714Y19572290D01*
X6498405Y19826527D01*
X6345520Y20055335D01*
X6150935Y20249920D01*
X5922127Y20402805D01*
X5844885Y20434800D01*
X5922127Y20466795D01*
X6150935Y20619680D01*
X6345520Y20814265D01*
X6498405Y21043073D01*
X6603714Y21297310D01*
X6657400Y21567208D01*
X6657400Y21842392D01*
X6603714Y22112290D01*
X6498405Y22366527D01*
X6345520Y22595335D01*
X6150935Y22789920D01*
X5922127Y22942805D01*
X5844885Y22974800D01*
X5922127Y23006795D01*
X6150935Y23159680D01*
X6345520Y23354265D01*
X6498405Y23583073D01*
X6603714Y23837310D01*
X6657400Y24107208D01*
X6657400Y24382392D01*
X6603714Y24652290D01*
X6498405Y24906527D01*
X6345520Y25135335D01*
X6150935Y25329920D01*
X5922127Y25482805D01*
X5844885Y25514800D01*
X5922127Y25546795D01*
X6150935Y25699680D01*
X6345520Y25894265D01*
X6498405Y26123073D01*
X6603714Y26377310D01*
X6657400Y26647208D01*
X6657400Y26922392D01*
X6611615Y27152569D01*
X29808600Y27152569D01*
X29808600Y26947431D01*
X29848620Y26746235D01*
X29927123Y26556712D01*
X30041092Y26386146D01*
X30186146Y26241092D01*
X30356712Y26127123D01*
X30546235Y26048620D01*
X30747431Y26008600D01*
X30813770Y26008600D01*
X39158600Y17663769D01*
X39158600Y17572431D01*
X39198620Y17371235D01*
X39277123Y17181712D01*
X39391092Y17011146D01*
X39536146Y16866092D01*
X39706712Y16752123D01*
X39896235Y16673620D01*
X40097431Y16633600D01*
X40302569Y16633600D01*
X40503765Y16673620D01*
X40693288Y16752123D01*
X40863854Y16866092D01*
X41008908Y17011146D01*
X41122877Y17181712D01*
X41201380Y17371235D01*
X41241400Y17572431D01*
X41241400Y17777569D01*
X41201380Y17978765D01*
X41122877Y18168288D01*
X41008908Y18338854D01*
X40863854Y18483908D01*
X40693288Y18597877D01*
X40503765Y18676380D01*
X40302569Y18716400D01*
X40261231Y18716400D01*
X31891400Y27086230D01*
X31891400Y27152569D01*
X31851380Y27353765D01*
X31772877Y27543288D01*
X31658908Y27713854D01*
X31513854Y27858908D01*
X31343288Y27972877D01*
X31153765Y28051380D01*
X30952569Y28091400D01*
X30747431Y28091400D01*
X30546235Y28051380D01*
X30356712Y27972877D01*
X30186146Y27858908D01*
X30041092Y27713854D01*
X29927123Y27543288D01*
X29848620Y27353765D01*
X29808600Y27152569D01*
X6611615Y27152569D01*
X6603714Y27192290D01*
X6498405Y27446527D01*
X6345520Y27675335D01*
X6150935Y27869920D01*
X5922127Y28022805D01*
X5844885Y28054800D01*
X5922127Y28086795D01*
X6150935Y28239680D01*
X6345520Y28434265D01*
X6498405Y28663073D01*
X6603714Y28917310D01*
X6657400Y29187208D01*
X6657400Y29462392D01*
X6603714Y29732290D01*
X6498405Y29986527D01*
X6345520Y30215335D01*
X6150935Y30409920D01*
X5922127Y30562805D01*
X5844885Y30594800D01*
X5922127Y30626795D01*
X6150935Y30779680D01*
X6345520Y30974265D01*
X6498405Y31203073D01*
X6603714Y31457310D01*
X6657400Y31727208D01*
X6657400Y32002392D01*
X6603714Y32272290D01*
X6498405Y32526527D01*
X6345520Y32755335D01*
X6150935Y32949920D01*
X5922127Y33102805D01*
X5844885Y33134800D01*
X5922127Y33166795D01*
X6150935Y33319680D01*
X6345520Y33514265D01*
X6498405Y33743073D01*
X6603714Y33997310D01*
X6657400Y34267208D01*
X6657400Y34542392D01*
X6603714Y34812290D01*
X6498405Y35066527D01*
X6345520Y35295335D01*
X6150935Y35489920D01*
X5922127Y35642805D01*
X5844885Y35674800D01*
X5922127Y35706795D01*
X6150935Y35859680D01*
X6345520Y36054265D01*
X6498405Y36283073D01*
X6603714Y36537310D01*
X6657400Y36807208D01*
X6657400Y37082392D01*
X6603714Y37352290D01*
X6498405Y37606527D01*
X6345520Y37835335D01*
X6150935Y38029920D01*
X5922127Y38182805D01*
X5844885Y38214800D01*
X5922127Y38246795D01*
X6150935Y38399680D01*
X6345520Y38594265D01*
X6498405Y38823073D01*
X6603714Y39077310D01*
X6657400Y39347208D01*
X6657400Y39622392D01*
X6603714Y39892290D01*
X6498405Y40146527D01*
X6345520Y40375335D01*
X6150935Y40569920D01*
X5922127Y40722805D01*
X5844885Y40754800D01*
X5922127Y40786795D01*
X6150935Y40939680D01*
X6345520Y41134265D01*
X6498405Y41363073D01*
X6603714Y41617310D01*
X6657400Y41887208D01*
X6657400Y42162392D01*
X6603714Y42432290D01*
X6498405Y42686527D01*
X6345520Y42915335D01*
X6150935Y43109920D01*
X5922127Y43262805D01*
X5844885Y43294800D01*
X5922127Y43326795D01*
X6150935Y43479680D01*
X6345520Y43674265D01*
X6498405Y43903073D01*
X6603714Y44157310D01*
X6657400Y44427208D01*
X6657400Y44702392D01*
X6603714Y44972290D01*
X6498405Y45226527D01*
X6345520Y45455335D01*
X6150935Y45649920D01*
X5922127Y45802805D01*
X5844885Y45834800D01*
X5922127Y45866795D01*
X6150935Y46019680D01*
X6345520Y46214265D01*
X6498405Y46443073D01*
X6603714Y46697310D01*
X6657400Y46967208D01*
X6657400Y47242392D01*
X6603714Y47512290D01*
X6498405Y47766527D01*
X6345520Y47995335D01*
X6150935Y48189920D01*
X5922127Y48342805D01*
X5844885Y48374800D01*
X5922127Y48406795D01*
X6150935Y48559680D01*
X6345520Y48754265D01*
X6498405Y48983073D01*
X6603714Y49237310D01*
X6657400Y49507208D01*
X6657400Y49782392D01*
X6603714Y50052290D01*
X6498405Y50306527D01*
X6345520Y50535335D01*
X6150935Y50729920D01*
X5922127Y50882805D01*
X5844885Y50914800D01*
X5922127Y50946795D01*
X6150935Y51099680D01*
X6345520Y51294265D01*
X6498405Y51523073D01*
X6603714Y51777310D01*
X6657400Y52047208D01*
X6657400Y52322392D01*
X6603714Y52592290D01*
X6498405Y52846527D01*
X6345520Y53075335D01*
X6150935Y53269920D01*
X5922127Y53422805D01*
X5844885Y53454800D01*
X5922127Y53486795D01*
X6150935Y53639680D01*
X6345520Y53834265D01*
X6498405Y54063073D01*
X6603714Y54317310D01*
X6657400Y54587208D01*
X6657400Y54862392D01*
X6603714Y55132290D01*
X6498405Y55386527D01*
X6345520Y55615335D01*
X6150935Y55809920D01*
X5922127Y55962805D01*
X5844885Y55994800D01*
X5922127Y56026795D01*
X6150935Y56179680D01*
X6345520Y56374265D01*
X6498405Y56603073D01*
X6603714Y56857310D01*
X6657400Y57127208D01*
X6657400Y57402392D01*
X6603714Y57672290D01*
X6498405Y57926527D01*
X6345520Y58155335D01*
X6150935Y58349920D01*
X5922127Y58502805D01*
X5844885Y58534800D01*
X5922127Y58566795D01*
X6150935Y58719680D01*
X6345520Y58914265D01*
X6498405Y59143073D01*
X6603714Y59397310D01*
X6657400Y59667208D01*
X6657400Y59942392D01*
X6603714Y60212290D01*
X6498405Y60466527D01*
X6345520Y60695335D01*
X6150935Y60889920D01*
X5922127Y61042805D01*
X5844885Y61074800D01*
X5922127Y61106795D01*
X6150935Y61259680D01*
X6345520Y61454265D01*
X6498405Y61683073D01*
X6603714Y61937310D01*
X6657400Y62207208D01*
X6657400Y62482392D01*
X6603714Y62752290D01*
X6498405Y63006527D01*
X6345520Y63235335D01*
X6150935Y63429920D01*
X5922127Y63582805D01*
X5844885Y63614800D01*
X5922127Y63646795D01*
X6150935Y63799680D01*
X6345520Y63994265D01*
X6498405Y64223073D01*
X6603714Y64477310D01*
X6657400Y64747208D01*
X6657400Y65022392D01*
X6603714Y65292290D01*
X6498405Y65546527D01*
X6345520Y65775335D01*
X6150935Y65969920D01*
X5922127Y66122805D01*
X5850457Y66152492D01*
X5863423Y66157164D01*
X5979380Y66219144D01*
X6046360Y66459235D01*
X5260400Y67245195D01*
X4474440Y66459235D01*
X4541420Y66219144D01*
X4677160Y66155315D01*
X4598673Y66122805D01*
X4369865Y65969920D01*
X4175280Y65775335D01*
X4022395Y65546527D01*
X3990400Y65469285D01*
X3958405Y65546527D01*
X3805520Y65775335D01*
X3610935Y65969920D01*
X3382127Y66122805D01*
X3293871Y66159362D01*
X3319232Y66168523D01*
X3432263Y66228940D01*
X3497788Y66467807D01*
X2720400Y67245195D01*
X1943012Y66467807D01*
X2008537Y66228940D01*
X2152175Y66161535D01*
X2058673Y66122805D01*
X1829865Y65969920D01*
X1635280Y65775335D01*
X1485000Y65550426D01*
X1485000Y66786910D01*
X1524540Y66712937D01*
X1763407Y66647412D01*
X2540795Y67424800D01*
X2900005Y67424800D01*
X3677393Y66647412D01*
X3916260Y66712937D01*
X3981719Y66852429D01*
X3992764Y66821777D01*
X4054744Y66705820D01*
X4294835Y66638840D01*
X5080795Y67424800D01*
X5440005Y67424800D01*
X6225965Y66638840D01*
X6466056Y66705820D01*
X6583156Y66954848D01*
X6649423Y67221935D01*
X6662310Y67496817D01*
X6621322Y67768933D01*
X6528036Y68027823D01*
X6466056Y68143780D01*
X6225965Y68210760D01*
X5440005Y67424800D01*
X5080795Y67424800D01*
X4294835Y68210760D01*
X4054744Y68143780D01*
X3986048Y67997689D01*
X3976677Y68023632D01*
X3916260Y68136663D01*
X3677393Y68202188D01*
X2900005Y67424800D01*
X2540795Y67424800D01*
X1763407Y68202188D01*
X1524540Y68136663D01*
X1485000Y68052405D01*
X1485000Y68381793D01*
X1943012Y68381793D01*
X2720400Y67604405D01*
X3497788Y68381793D01*
X3495437Y68390365D01*
X4474440Y68390365D01*
X5260400Y67604405D01*
X6046360Y68390365D01*
X5979380Y68630456D01*
X5730352Y68747556D01*
X5463265Y68813823D01*
X5188383Y68826710D01*
X4916267Y68785722D01*
X4657377Y68692436D01*
X4541420Y68630456D01*
X4474440Y68390365D01*
X3495437Y68390365D01*
X3432263Y68620660D01*
X3185284Y68736560D01*
X2920440Y68802050D01*
X2647908Y68814612D01*
X2378162Y68773765D01*
X2121568Y68681077D01*
X2008537Y68620660D01*
X1943012Y68381793D01*
X1485000Y68381793D01*
X1485000Y70315000D01*
X14042315Y70315000D01*
X16083648Y65649096D01*
G37*
%TD.AperFunction*%
%TD*%
M02*
