%TF.GenerationSoftware,KiCad,Pcbnew,5.1.10*%
%TF.CreationDate,2022-06-04T14:31:52-04:00*%
%TF.ProjectId,BeagleLogic Cape,42656167-6c65-44c6-9f67-696320436170,rev?*%
%TF.SameCoordinates,PX6cb8080PY7bfa480*%
%TF.FileFunction,Soldermask,Bot*%
%TF.FilePolarity,Negative*%
%FSLAX46Y46*%
G04 Gerber Fmt 4.6, Leading zero omitted, Abs format (unit mm)*
G04 Created by KiCad (PCBNEW 5.1.10) date 2022-06-04 14:31:52*
%MOMM*%
%LPD*%
G01*
G04 APERTURE LIST*
%ADD10C,1.500000*%
%ADD11C,1.524000*%
%ADD12R,1.727200X1.727200*%
%ADD13O,1.727200X1.727200*%
%ADD14R,1.000760X0.800100*%
%ADD15C,0.150000*%
%ADD16R,0.600000X1.550000*%
%ADD17R,0.900000X0.500000*%
%ADD18R,0.500000X0.900000*%
G04 APERTURE END LIST*
D10*
%TO.C,U1*%
X50980400Y67424800D03*
D11*
X53520400Y11544800D03*
X50980400Y11544800D03*
X53520400Y14084800D03*
X50980400Y14084800D03*
X53520400Y16624800D03*
X50980400Y16624800D03*
X53520400Y31864800D03*
X53520400Y19164800D03*
X50980400Y19164800D03*
X50980400Y57264800D03*
X50980400Y59804800D03*
X50980400Y62344800D03*
X50980400Y64884800D03*
X50980400Y21704800D03*
X50980400Y24244800D03*
X53520400Y21704800D03*
X53520400Y24244800D03*
X53520400Y26784800D03*
X53520400Y29324800D03*
X53520400Y34404800D03*
X50980400Y26784800D03*
X53520400Y36944800D03*
X53520400Y39484800D03*
X50980400Y29324800D03*
X53520400Y42024800D03*
X50980400Y31864800D03*
X53520400Y44564800D03*
X50980400Y34404800D03*
X53520400Y47104800D03*
X50980400Y36944800D03*
X53520400Y49644800D03*
X50980400Y39484800D03*
X53520400Y52184800D03*
X50980400Y42024800D03*
X53520400Y54724800D03*
X50980400Y44564800D03*
X53520400Y57264800D03*
X50980400Y47104800D03*
X53520400Y59804800D03*
X50980400Y49644800D03*
X53520400Y62344800D03*
X50980400Y52184800D03*
X53520400Y64884800D03*
X50980400Y54724800D03*
X53520400Y67424800D03*
X5260400Y67424800D03*
X2720400Y54724800D03*
X5260400Y64884800D03*
X2720400Y52184800D03*
X5260400Y62344800D03*
X2720400Y49644800D03*
X5260400Y59804800D03*
X2720400Y47104800D03*
X5260400Y57264800D03*
X2720400Y44564800D03*
X5260400Y54724800D03*
X2720400Y42024800D03*
X5260400Y52184800D03*
X2720400Y39484800D03*
X5260400Y49644800D03*
X2720400Y36944800D03*
X5260400Y47104800D03*
X2720400Y34404800D03*
X5260400Y44564800D03*
X2720400Y31864800D03*
X5260400Y42024800D03*
X2720400Y29324800D03*
X5260400Y39484800D03*
X5260400Y36944800D03*
X2720400Y26784800D03*
X5260400Y34404800D03*
X5260400Y29324800D03*
X5260400Y26784800D03*
X5260400Y24244800D03*
X5260400Y21704800D03*
X2720400Y24244800D03*
X2720400Y21704800D03*
X2720400Y64884800D03*
X2720400Y62344800D03*
X2720400Y59804800D03*
X2720400Y57264800D03*
X2720400Y19164800D03*
X5260400Y19164800D03*
X5260400Y31864800D03*
X2720400Y16624800D03*
X5260400Y16624800D03*
X2720400Y14084800D03*
X5260400Y14084800D03*
X2720400Y11544800D03*
X5260400Y11544800D03*
D10*
X2720400Y67424800D03*
%TD*%
D12*
%TO.C,P1*%
X44810000Y14320000D03*
D13*
X44810000Y11780000D03*
X42270000Y14320000D03*
X42270000Y11780000D03*
X39730000Y14320000D03*
X39730000Y11780000D03*
X37190000Y14320000D03*
X37190000Y11780000D03*
X34650000Y14320000D03*
X34650000Y11780000D03*
X32110000Y14320000D03*
X32110000Y11780000D03*
X29570000Y14320000D03*
X29570000Y11780000D03*
X27030000Y14320000D03*
X27030000Y11780000D03*
X24490000Y14320000D03*
X24490000Y11780000D03*
X21950000Y14320000D03*
X21950000Y11780000D03*
X19410000Y14320000D03*
X19410000Y11780000D03*
X16870000Y14320000D03*
X16870000Y11780000D03*
X14330000Y14320000D03*
X14330000Y11780000D03*
X11790000Y14320000D03*
X11790000Y11780000D03*
%TD*%
D14*
%TO.C,Q1*%
X25819380Y25504400D03*
X28019020Y24551900D03*
X28019020Y26456900D03*
%TD*%
D15*
%TO.C,U2*%
G36*
X36988577Y32221830D02*
G01*
X37190102Y32020305D01*
X36482995Y31313198D01*
X36281470Y31514723D01*
X36988577Y32221830D01*
G37*
G36*
X37342131Y31868277D02*
G01*
X37543656Y31666752D01*
X36836549Y30959645D01*
X36635024Y31161170D01*
X37342131Y31868277D01*
G37*
G36*
X37695684Y31514724D02*
G01*
X37897209Y31313199D01*
X37190102Y30606092D01*
X36988577Y30807617D01*
X37695684Y31514724D01*
G37*
G36*
X38049238Y31161170D02*
G01*
X38250763Y30959645D01*
X37543656Y30252538D01*
X37342131Y30454063D01*
X38049238Y31161170D01*
G37*
G36*
X38402791Y30807617D02*
G01*
X38604316Y30606092D01*
X37897209Y29898985D01*
X37695684Y30100510D01*
X38402791Y30807617D01*
G37*
G36*
X38756344Y30454063D02*
G01*
X38957869Y30252538D01*
X38250762Y29545431D01*
X38049237Y29746956D01*
X38756344Y30454063D01*
G37*
G36*
X39109898Y30100510D02*
G01*
X39311423Y29898985D01*
X38604316Y29191878D01*
X38402791Y29393403D01*
X39109898Y30100510D01*
G37*
G36*
X39463451Y29746957D02*
G01*
X39664976Y29545432D01*
X38957869Y28838325D01*
X38756344Y29039850D01*
X39463451Y29746957D01*
G37*
G36*
X39817005Y29393403D02*
G01*
X40018530Y29191878D01*
X39311423Y28484771D01*
X39109898Y28686296D01*
X39817005Y29393403D01*
G37*
G36*
X40170558Y29039850D02*
G01*
X40372083Y28838325D01*
X39664976Y28131218D01*
X39463451Y28332743D01*
X40170558Y29039850D01*
G37*
G36*
X40524111Y28686297D02*
G01*
X40725636Y28484772D01*
X40018529Y27777665D01*
X39817004Y27979190D01*
X40524111Y28686297D01*
G37*
G36*
X40877665Y28332743D02*
G01*
X41079190Y28131218D01*
X40372083Y27424111D01*
X40170558Y27625636D01*
X40877665Y28332743D01*
G37*
G36*
X41231218Y27979190D02*
G01*
X41432743Y27777665D01*
X40725636Y27070558D01*
X40524111Y27272083D01*
X41231218Y27979190D01*
G37*
G36*
X41584772Y27625636D02*
G01*
X41786297Y27424111D01*
X41079190Y26717004D01*
X40877665Y26918529D01*
X41584772Y27625636D01*
G37*
G36*
X41938325Y27272083D02*
G01*
X42139850Y27070558D01*
X41432743Y26363451D01*
X41231218Y26564976D01*
X41938325Y27272083D01*
G37*
G36*
X42291878Y26918530D02*
G01*
X42493403Y26717005D01*
X41786296Y26009898D01*
X41584771Y26211423D01*
X42291878Y26918530D01*
G37*
G36*
X42645432Y26564976D02*
G01*
X42846957Y26363451D01*
X42139850Y25656344D01*
X41938325Y25857869D01*
X42645432Y26564976D01*
G37*
G36*
X42998985Y26211423D02*
G01*
X43200510Y26009898D01*
X42493403Y25302791D01*
X42291878Y25504316D01*
X42998985Y26211423D01*
G37*
G36*
X43352538Y25857869D02*
G01*
X43554063Y25656344D01*
X42846956Y24949237D01*
X42645431Y25150762D01*
X43352538Y25857869D01*
G37*
G36*
X43706092Y25504316D02*
G01*
X43907617Y25302791D01*
X43200510Y24595684D01*
X42998985Y24797209D01*
X43706092Y25504316D01*
G37*
G36*
X44059645Y25150763D02*
G01*
X44261170Y24949238D01*
X43554063Y24242131D01*
X43352538Y24443656D01*
X44059645Y25150763D01*
G37*
G36*
X44413199Y24797209D02*
G01*
X44614724Y24595684D01*
X43907617Y23888577D01*
X43706092Y24090102D01*
X44413199Y24797209D01*
G37*
G36*
X44766752Y24443656D02*
G01*
X44968277Y24242131D01*
X44261170Y23535024D01*
X44059645Y23736549D01*
X44766752Y24443656D01*
G37*
G36*
X45120305Y24090102D02*
G01*
X45321830Y23888577D01*
X44614723Y23181470D01*
X44413198Y23382995D01*
X45120305Y24090102D01*
G37*
G36*
X39817005Y18786802D02*
G01*
X40018530Y18585277D01*
X39311423Y17878170D01*
X39109898Y18079695D01*
X39817005Y18786802D01*
G37*
G36*
X39463451Y19140355D02*
G01*
X39664976Y18938830D01*
X38957869Y18231723D01*
X38756344Y18433248D01*
X39463451Y19140355D01*
G37*
G36*
X39109898Y19493908D02*
G01*
X39311423Y19292383D01*
X38604316Y18585276D01*
X38402791Y18786801D01*
X39109898Y19493908D01*
G37*
G36*
X38756344Y19847462D02*
G01*
X38957869Y19645937D01*
X38250762Y18938830D01*
X38049237Y19140355D01*
X38756344Y19847462D01*
G37*
G36*
X38402791Y20201015D02*
G01*
X38604316Y19999490D01*
X37897209Y19292383D01*
X37695684Y19493908D01*
X38402791Y20201015D01*
G37*
G36*
X38049238Y20554569D02*
G01*
X38250763Y20353044D01*
X37543656Y19645937D01*
X37342131Y19847462D01*
X38049238Y20554569D01*
G37*
G36*
X37695684Y20908122D02*
G01*
X37897209Y20706597D01*
X37190102Y19999490D01*
X36988577Y20201015D01*
X37695684Y20908122D01*
G37*
G36*
X37342131Y21261675D02*
G01*
X37543656Y21060150D01*
X36836549Y20353043D01*
X36635024Y20554568D01*
X37342131Y21261675D01*
G37*
G36*
X36988577Y21615229D02*
G01*
X37190102Y21413704D01*
X36482995Y20706597D01*
X36281470Y20908122D01*
X36988577Y21615229D01*
G37*
G36*
X36635024Y21968782D02*
G01*
X36836549Y21767257D01*
X36129442Y21060150D01*
X35927917Y21261675D01*
X36635024Y21968782D01*
G37*
G36*
X36281471Y22322335D02*
G01*
X36482996Y22120810D01*
X35775889Y21413703D01*
X35574364Y21615228D01*
X36281471Y22322335D01*
G37*
G36*
X35927917Y22675889D02*
G01*
X36129442Y22474364D01*
X35422335Y21767257D01*
X35220810Y21968782D01*
X35927917Y22675889D01*
G37*
G36*
X35574364Y23029442D02*
G01*
X35775889Y22827917D01*
X35068782Y22120810D01*
X34867257Y22322335D01*
X35574364Y23029442D01*
G37*
G36*
X35220810Y23382996D02*
G01*
X35422335Y23181471D01*
X34715228Y22474364D01*
X34513703Y22675889D01*
X35220810Y23382996D01*
G37*
G36*
X34867257Y23736549D02*
G01*
X35068782Y23535024D01*
X34361675Y22827917D01*
X34160150Y23029442D01*
X34867257Y23736549D01*
G37*
G36*
X34513704Y24090102D02*
G01*
X34715229Y23888577D01*
X34008122Y23181470D01*
X33806597Y23382995D01*
X34513704Y24090102D01*
G37*
G36*
X34160150Y24443656D02*
G01*
X34361675Y24242131D01*
X33654568Y23535024D01*
X33453043Y23736549D01*
X34160150Y24443656D01*
G37*
G36*
X33806597Y24797209D02*
G01*
X34008122Y24595684D01*
X33301015Y23888577D01*
X33099490Y24090102D01*
X33806597Y24797209D01*
G37*
G36*
X33453044Y25150763D02*
G01*
X33654569Y24949238D01*
X32947462Y24242131D01*
X32745937Y24443656D01*
X33453044Y25150763D01*
G37*
G36*
X33099490Y25504316D02*
G01*
X33301015Y25302791D01*
X32593908Y24595684D01*
X32392383Y24797209D01*
X33099490Y25504316D01*
G37*
G36*
X32745937Y25857869D02*
G01*
X32947462Y25656344D01*
X32240355Y24949237D01*
X32038830Y25150762D01*
X32745937Y25857869D01*
G37*
G36*
X32392383Y26211423D02*
G01*
X32593908Y26009898D01*
X31886801Y25302791D01*
X31685276Y25504316D01*
X32392383Y26211423D01*
G37*
G36*
X32038830Y26564976D02*
G01*
X32240355Y26363451D01*
X31533248Y25656344D01*
X31331723Y25857869D01*
X32038830Y26564976D01*
G37*
G36*
X31685277Y26918530D02*
G01*
X31886802Y26717005D01*
X31179695Y26009898D01*
X30978170Y26211423D01*
X31685277Y26918530D01*
G37*
%TD*%
D16*
%TO.C,U3*%
X13355600Y42159200D03*
X12085600Y42159200D03*
X10815600Y42159200D03*
X9545600Y42159200D03*
X9545600Y47559200D03*
X10815600Y47559200D03*
X12085600Y47559200D03*
X13355600Y47559200D03*
%TD*%
D17*
%TO.C,R1*%
X29535400Y29556400D03*
X29535400Y28056400D03*
%TD*%
%TO.C,R2*%
X10790200Y49544800D03*
X10790200Y51044800D03*
%TD*%
%TO.C,R3*%
X9063000Y49519400D03*
X9063000Y51019400D03*
%TD*%
%TO.C,R4*%
X12517400Y49519400D03*
X12517400Y51019400D03*
%TD*%
D18*
%TO.C,R5*%
X15425000Y44706800D03*
X16925000Y44706800D03*
%TD*%
%TO.C,R6*%
X15425000Y43081200D03*
X16925000Y43081200D03*
%TD*%
%TO.C,R7*%
X15450400Y41328600D03*
X16950400Y41328600D03*
%TD*%
%TO.C,R8*%
X46800000Y42500000D03*
X48300000Y42500000D03*
%TD*%
%TO.C,R9*%
X46800000Y40600000D03*
X48300000Y40600000D03*
%TD*%
%TO.C,R10*%
X16823400Y49456600D03*
X15323400Y49456600D03*
%TD*%
D17*
%TO.C,R12*%
X11044200Y38013200D03*
X11044200Y39513200D03*
%TD*%
%TO.C,R13*%
X12974600Y38013200D03*
X12974600Y39513200D03*
%TD*%
%TO.C,R14*%
X27625000Y28050000D03*
X27625000Y29550000D03*
%TD*%
D15*
%TO.C,C1*%
G36*
X32661091Y29749695D02*
G01*
X32024695Y30386091D01*
X32378249Y30739645D01*
X33014645Y30103249D01*
X32661091Y29749695D01*
G37*
G36*
X33721751Y30810355D02*
G01*
X33085355Y31446751D01*
X33438909Y31800305D01*
X34075305Y31163909D01*
X33721751Y30810355D01*
G37*
%TD*%
%TO.C,C2*%
G36*
X42811091Y18074695D02*
G01*
X42174695Y18711091D01*
X42528249Y19064645D01*
X43164645Y18428249D01*
X42811091Y18074695D01*
G37*
G36*
X43871751Y19135355D02*
G01*
X43235355Y19771751D01*
X43588909Y20125305D01*
X44225305Y19488909D01*
X43871751Y19135355D01*
G37*
%TD*%
%TO.C,R15*%
G36*
X32146751Y29127513D02*
G01*
X31722487Y28703249D01*
X31439645Y28986091D01*
X31863909Y29410355D01*
X32146751Y29127513D01*
G37*
G36*
X31510355Y29763909D02*
G01*
X31086091Y29339645D01*
X30803249Y29622487D01*
X31227513Y30046751D01*
X31510355Y29763909D01*
G37*
%TD*%
M02*
